<?xml version="1.0" encoding="UTF-8" standalone="no"?>
<!DOCTYPE svg PUBLIC "-//W3C//DTD SVG 1.1//EN" "http://www.w3.org/Graphics/SVG/1.1/DTD/svg11.dtd">
<!-- 由 Microsoft Visio, SVG Export 生成 mosfet开关等效电路.svg 页-1 -->
<svg xmlns="http://www.w3.org/2000/svg" xmlns:xlink="http://www.w3.org/1999/xlink" xmlns:ev="http://www.w3.org/2001/xml-events"
		xmlns:v="http://schemas.microsoft.com/visio/2003/SVGExtensions/" width="2.56922in" height="1.86599in"
		viewBox="0 0 184.984 134.351" xml:space="preserve" color-interpolation-filters="sRGB" class="st16">
	<v:documentProperties v:langID="2052" v:metric="true" v:viewMarkup="false"/>

	<style type="text/css">
	<![CDATA[
		.st1 {fill:none;stroke:none;stroke-linecap:round;stroke-linejoin:round;stroke-width:0.75}
		.st2 {fill:#000000;font-family:Times New Roman;font-size:0.499992em}
		.st3 {stroke:#ff0000;stroke-linecap:round;stroke-linejoin:round;stroke-width:1}
		.st4 {marker-start:url(#mrkr2-28);stroke:#ff0000;stroke-linecap:round;stroke-linejoin:round;stroke-width:1}
		.st5 {fill:#ff0000;fill-opacity:1;stroke:#ff0000;stroke-opacity:1;stroke-width:0.35714285714286}
		.st6 {fill:#000000;font-family:Times New Roman;font-size:0.833336em}
		.st7 {baseline-shift:-32.4947%;font-size:0.649894em}
		.st8 {stroke:#000000;stroke-linecap:round;stroke-linejoin:round;stroke-width:1}
		.st9 {fill:#ffffff;stroke:#000000;stroke-linecap:round;stroke-linejoin:round;stroke-width:1}
		.st10 {fill:#000000;font-family:Times New Roman;font-size:0.833336em;font-style:italic}
		.st11 {marker-end:url(#mrkr5-138);stroke:#000000;stroke-linecap:round;stroke-linejoin:round;stroke-width:1}
		.st12 {fill:#000000;fill-opacity:1;stroke:#000000;stroke-opacity:1;stroke-width:0.40983606557377}
		.st13 {fill:#000000;stroke:#000000;stroke-linecap:round;stroke-linejoin:round;stroke-width:1}
		.st14 {stroke:#000000;stroke-linecap:round;stroke-linejoin:round;stroke-width:1.5}
		.st15 {marker-end:url(#mrkr4-345);stroke:#000000;stroke-linecap:round;stroke-linejoin:round;stroke-width:1}
		.st16 {fill:none;fill-rule:evenodd;font-size:12px;overflow:visible;stroke-linecap:square;stroke-miterlimit:3}
	]]>
	</style>

	<defs id="Markers">
		<g id="lend2">
			<path d="M 1 1 L 0 0 L 1 -1 L 1 1 " style="stroke:none"/>
		</g>
		<marker id="mrkr2-28" class="st5" v:arrowType="2" v:arrowSize="1" v:setback="2.44" refX="2.44" orient="auto"
				markerUnits="strokeWidth" overflow="visible">
			<use xlink:href="#lend2" transform="scale(2.8) "/>
		</marker>
		<g id="lend5">
			<path d="M 2 1 L 0 0 L 1.98117 -0.993387 C 1.67173 -0.364515 1.67301 0.372641 1.98465 1.00043 " style="stroke:none"/>
		</g>
		<marker id="mrkr5-138" class="st12" v:arrowType="5" v:arrowSize="0" v:setback="4.27" refX="-4.27" orient="auto"
				markerUnits="strokeWidth" overflow="visible">
			<use xlink:href="#lend5" transform="scale(-2.44,-2.44) "/>
		</marker>
		<g id="lend4">
			<path d="M 2 1 L 0 0 L 2 -1 L 2 1 " style="stroke:none"/>
		</g>
		<marker id="mrkr4-345" class="st12" v:arrowType="4" v:arrowSize="0" v:setback="4.88" refX="-4.88" orient="auto"
				markerUnits="strokeWidth" overflow="visible">
			<use xlink:href="#lend4" transform="scale(-2.44,-2.44) "/>
		</marker>
	</defs>
	<g v:mID="0" v:index="1" v:groupContext="foregroundPage">
		<title>页-1</title>
		<v:pageProperties v:drawingScale="0.0393701" v:pageScale="0.0393701" v:drawingUnits="24" v:shadowOffsetX="4.25197"
				v:shadowOffsetY="-4.25197"/>
		<v:layer v:name="连接线" v:index="0"/>
		<g id="group109-1" transform="translate(69.8747,-28.5505)" v:mID="109" v:groupContext="group">
			<title>Mos管</title>
			<g id="shape110-2" v:mID="110" v:groupContext="shape" transform="translate(22.387,-23.3824)">
				<title>电容.50</title>
				<desc>d</desc>
				<v:textBlock v:margins="rect(2,2,2,2)" v:tabSpace="42.5197"/>
				<v:textRect cx="4.68305" cy="131.302" width="9.37" height="6.09797"/>
				<rect x="0" y="128.253" width="9.3661" height="6.09797" class="st1"/>
				<text x="3.18" y="133.1" class="st2" v:langID="2052"><v:paragraph v:horizAlign="1"/><v:tabList/>d</text>			</g>
			<g id="shape111-5" v:mID="111" v:groupContext="shape" transform="translate(22.9979,0)">
				<title>电容.57</title>
				<desc>s</desc>
				<v:textBlock v:margins="rect(2,2,2,2)" v:tabSpace="42.5197"/>
				<v:textRect cx="3.88408" cy="131.823" width="7.77" height="5.05761"/>
				<rect x="0" y="129.294" width="7.76817" height="5.05761" class="st1"/>
				<text x="2.72" y="133.62" class="st2" v:langID="2052"><v:paragraph v:horizAlign="1"/><v:tabList/>s</text>			</g>
			<g id="shape112-8" v:mID="112" v:groupContext="shape" transform="translate(0,-8.24289)">
				<title>电容.58</title>
				<desc>g</desc>
				<v:textBlock v:margins="rect(2,2,2,2)" v:tabSpace="42.5197"/>
				<v:textRect cx="3.88408" cy="131.823" width="7.77" height="5.05761"/>
				<rect x="0" y="129.294" width="7.76817" height="5.05761" class="st1"/>
				<text x="2.38" y="133.62" class="st2" v:langID="2052"><v:paragraph v:horizAlign="1"/><v:tabList/>g</text>			</g>
			<g id="shape113-11" v:mID="113" v:groupContext="shape" transform="translate(-124.781,130.95) rotate(-90)">
				<title>工作表.113</title>
				<path d="M0 134.35 L22.28 134.35" class="st3"/>
			</g>
			<g id="shape114-14" v:mID="114" v:groupContext="shape" transform="translate(149.581,108.694) rotate(90)">
				<title>工作表.114</title>
				<path d="M0 134.35 L4.69 134.35" class="st3"/>
			</g>
			<g id="shape115-17" v:mID="115" v:groupContext="shape" transform="translate(149.581,117.575) rotate(90)">
				<title>工作表.115</title>
				<path d="M0 134.35 L4.69 134.35" class="st3"/>
			</g>
			<g id="shape116-20" v:mID="116" v:groupContext="shape" transform="translate(149.581,126.31) rotate(90)">
				<title>工作表.116</title>
				<path d="M0 134.35 L4.69 134.35" class="st3"/>
			</g>
			<g id="shape117-23" v:mID="117" v:groupContext="shape" transform="translate(15.2298,0)">
				<title>工作表.117</title>
				<path d="M2.44 119.95 L2.8 119.95 L7.77 119.95 L7.77 134.35" class="st4"/>
			</g>
			<g id="shape118-29" v:mID="118" v:groupContext="shape" transform="translate(15.2298,-5.66929)">
				<title>工作表.118</title>
				<path d="M0 134.35 L7.77 134.35" class="st3"/>
			</g>
			<g id="shape119-32" v:mID="119" v:groupContext="shape" transform="translate(15.2298,-23.2441)">
				<title>工作表.119</title>
				<path d="M0 134.35 L7.77 134.35 L7.77 127.55" class="st3"/>
			</g>
			<g id="shape120-35" v:mID="120" v:groupContext="shape" transform="translate(9.57011,262.807) rotate(180)">
				<title>工作表.120</title>
				<path d="M0 134.35 L7.81 134.35" class="st3"/>
			</g>
		</g>
		<g id="group121-38" transform="translate(186.422,102.107) rotate(90)" v:mID="121" v:groupContext="group">
			<title>电容.7</title>
			<g id="shape122-39" v:mID="122" v:groupContext="shape" transform="translate(-115.395,151.926) rotate(-90)">
				<title>工作表.122</title>
				<desc>Cgs</desc>
				<v:textBlock v:margins="rect(2,2,2,2)" v:tabSpace="42.5197"/>
				<v:textRect cx="8.23059" cy="130.099" width="16.47" height="8.50394"/>
				<rect x="0" y="125.847" width="16.4612" height="8.50394" class="st1"/>
				<text x="2.01" y="133.1" class="st6" v:langID="2052"><v:paragraph v:horizAlign="1"/><v:tabList/>C<tspan
							dy="-0.279em" class="st7" v:baseFontSize="10">gs</tspan></text>			</g>
			<g id="shape123-43" v:mID="123" v:groupContext="shape" transform="translate(-115.359,134.351) rotate(-90)">
				<title>工作表.123</title>
				<path d="M0 134.35 L14.52 134.35" class="st8"/>
			</g>
			<g id="shape124-46" v:mID="124" v:groupContext="shape" transform="translate(147.603,119.828) rotate(90)">
				<title>工作表.124</title>
				<path d="M0 134.35 L14.52 134.35" class="st8"/>
			</g>
			<g id="shape125-49" v:mID="125" v:groupContext="shape" v:layerMember="0" transform="translate(14.1732,-0.350207)">
				<title>动态连接线.39</title>
				<path d="M-0.92 127.26 L-13.25 127.26" class="st8"/>
			</g>
			<g id="shape126-52" v:mID="126" v:groupContext="shape" v:layerMember="0" transform="translate(32.2441,-0.35018)">
				<title>动态连接线.40</title>
				<path d="M-0.92 127.26 L-13.25 127.26" class="st8"/>
			</g>
			<g id="shape121-55" v:mID="121" v:groupContext="groupContent">
				<v:textBlock v:margins="rect(4,4,4,4)" v:tabSpace="42.5197"/>
			</g>
		</g>
		<g id="group127-56" transform="translate(186.422,65.2569) rotate(90)" v:mID="127" v:groupContext="group">
			<title>电容.127</title>
			<g id="shape128-57" v:mID="128" v:groupContext="shape" transform="translate(-115.351,152.119) rotate(-90)">
				<title>工作表.128</title>
				<desc>Cgd</desc>
				<v:textBlock v:margins="rect(2,2,2,2)" v:tabSpace="42.5197"/>
				<v:textRect cx="8.86839" cy="130.099" width="17.74" height="8.50394"/>
				<rect x="0" y="125.847" width="17.7368" height="8.50394" class="st1"/>
				<text x="2.28" y="133.1" class="st6" v:langID="2052"><v:paragraph v:horizAlign="1"/><v:tabList/>C<tspan
							dy="-0.279em" class="st7" v:baseFontSize="10">gd</tspan></text>			</g>
			<g id="shape129-61" v:mID="129" v:groupContext="shape" transform="translate(-115.359,134.351) rotate(-90)">
				<title>工作表.129</title>
				<path d="M0 134.35 L14.52 134.35" class="st8"/>
			</g>
			<g id="shape130-64" v:mID="130" v:groupContext="shape" transform="translate(147.603,119.828) rotate(90)">
				<title>工作表.130</title>
				<path d="M0 134.35 L14.52 134.35" class="st8"/>
			</g>
			<g id="shape131-67" v:mID="131" v:groupContext="shape" v:layerMember="0" transform="translate(14.1732,-0.350207)">
				<title>动态连接线.39</title>
				<path d="M-0.92 127.26 L-13.25 127.26" class="st8"/>
			</g>
			<g id="shape132-70" v:mID="132" v:groupContext="shape" v:layerMember="0" transform="translate(32.2441,-0.35018)">
				<title>动态连接线.40</title>
				<path d="M-0.92 127.26 L-13.25 127.26" class="st8"/>
			</g>
			<g id="shape127-73" v:mID="127" v:groupContext="groupContent">
				<v:textBlock v:margins="rect(4,4,4,4)" v:tabSpace="42.5197"/>
			</g>
		</g>
		<g id="group133-74" transform="translate(11.7323,-28.8779)" v:mID="133" v:groupContext="group">
			<title>电阻</title>
			<g id="shape134-75" v:mID="134" v:groupContext="shape" transform="translate(10.4857,-2.2192)">
				<title>工作表.134</title>
				<rect x="0" y="127.694" width="18.1975" height="6.65761" class="st9"/>
			</g>
			<g id="shape135-77" v:mID="135" v:groupContext="shape" v:layerMember="0" transform="translate(12.6346,1.5386)">
				<title>动态连接线</title>
				<path d="M-2.26 127.26 L-11.91 127.26" class="st8"/>
			</g>
			<g id="shape136-80" v:mID="136" v:groupContext="shape" v:layerMember="0" transform="translate(40.763,1.53861)">
				<title>动态连接线.5</title>
				<path d="M-2.09 127.26 L-12.08 127.26" class="st8"/>
			</g>
			<g id="shape137-83" v:mID="137" v:groupContext="shape" transform="translate(11.3032,-12.7559)">
				<title>工作表.137</title>
				<desc>Rg</desc>
				<v:textBlock v:margins="rect(2,2,2,2)" v:tabSpace="42.5197"/>
				<v:textRect cx="8.07874" cy="131.023" width="16.16" height="6.65761"/>
				<rect x="0" y="127.694" width="16.1575" height="6.65761" class="st1"/>
				<text x="3.12" y="134.02" class="st6" v:langID="2052"><v:paragraph v:horizAlign="1"/><v:tabList/>R<tspan
							dy="-0.279em" class="st7" v:baseFontSize="10">g</tspan></text>			</g>
		</g>
		<g id="shape138-87" v:mID="138" v:groupContext="shape" transform="translate(50.4019,-34.4259)">
			<title>工作表.138</title>
			<path d="M0 134.35 L20.68 134.35" class="st8"/>
		</g>
		<g id="shape140-90" v:mID="140" v:groupContext="shape" transform="translate(193.859,96.5787) rotate(89.9995)">
			<title>工作表.140</title>
			<path d="M0 134.35 L6.63 134.35" class="st8"/>
		</g>
		<g id="shape170-93" v:mID="170" v:groupContext="shape" transform="translate(12.4535,234.277) rotate(180)">
			<title>工作表.170</title>
			<path d="M0 134.35 L5.84 134.35" class="st8"/>
		</g>
		<g id="shape190-96" v:mID="190" v:groupContext="shape" transform="translate(-127.879,107.741) rotate(-90)">
			<title>工作表.190</title>
			<path d="M0 134.35 L7.82 134.35" class="st8"/>
		</g>
		<g id="shape192-99" v:mID="192" v:groupContext="shape" transform="translate(59.4505,267.782) rotate(-179.976)">
			<title>工作表.192</title>
			<path d="M0 134.35 L53.05 134.35" class="st8"/>
		</g>
		<g id="shape193-102" v:mID="193" v:groupContext="shape" transform="translate(140.821,131.121) rotate(90.3599)">
			<title>工作表.193</title>
			<path d="M0 134.35 L3.15 134.35" class="st8"/>
		</g>
		<g id="group194-105" transform="translate(0.5,-4.07478)" v:mID="194" v:groupContext="group">
			<title>工作表.194</title>
			<g id="group176-106" transform="translate(0,-5.10232)" v:mID="176" v:groupContext="group">
				<title>工作表.176</title>
				<g id="shape177-107" v:mID="177" v:groupContext="shape">
					<title>工作表.177</title>
					<ellipse cx="5.95276" cy="128.161" rx="5.95276" ry="6.19087" class="st9"/>
				</g>
				<g id="group178-109" transform="translate(4.41204,-7.41628)" v:mID="178" v:groupContext="group">
					<title>工作表.178</title>
					<g id="shape179-110" v:mID="179" v:groupContext="shape" transform="translate(135.902,133.539) rotate(90.3086)">
						<title>工作表.179</title>
						<path d="M0 134.35 L1.54 134.35" class="st8"/>
					</g>
					<g id="shape180-113" v:mID="180" v:groupContext="shape" transform="translate(135.91,132.014) rotate(90.3086)">
						<title>工作表.180</title>
						<path d="M0 134.35 L1.52 134.35" class="st8"/>
					</g>
					<g id="shape181-116" v:mID="181" v:groupContext="shape"
							transform="translate(1.44144,-1.53577) rotate(-0.047422)">
						<title>工作表.181</title>
						<path d="M0 134.35 L1.53 134.35" class="st8"/>
					</g>
					<g id="shape182-119" v:mID="182" v:groupContext="shape"
							transform="translate(-0.111199,-1.53448) rotate(-0.047422)">
						<title>工作表.182</title>
						<path d="M0 134.35 L1.55 134.35" class="st8"/>
					</g>
				</g>
				<g id="group183-122" transform="translate(4.41204,-1.70163)" v:mID="183" v:groupContext="group">
					<title>工作表.183</title>
					<g id="shape184-123" v:mID="184" v:groupContext="shape"
							transform="translate(1.44144,-1.53577) rotate(-0.047422)">
						<title>工作表.184</title>
						<path d="M0 134.35 L1.53 134.35" class="st8"/>
					</g>
					<g id="shape185-126" v:mID="185" v:groupContext="shape"
							transform="translate(-0.111199,-1.53448) rotate(-0.047422)">
						<title>工作表.185</title>
						<path d="M0 134.35 L1.55 134.35" class="st8"/>
					</g>
				</g>
			</g>
			<g id="shape186-129" v:mID="186" v:groupContext="shape" transform="translate(18.1367,-7.28909)">
				<title>电容.122</title>
				<desc>vg</desc>
				<v:textBlock v:margins="rect(2,2,2,2)" v:tabSpace="42.5197"/>
				<v:textRect cx="6.80821" cy="130.099" width="13.62" height="8.50394"/>
				<rect x="0" y="125.847" width="13.6164" height="8.50394" class="st1"/>
				<text x="2.96" y="133.1" class="st10" v:langID="2052"><v:paragraph v:horizAlign="1"/><v:tabList/>v<tspan
							dy="-0.279em" class="st7" v:baseFontSize="10">g</tspan></text>			</g>
			<g id="shape187-133" v:mID="187" v:groupContext="shape" transform="translate(-117.91,129.391) rotate(-90)">
				<title>工作表.187</title>
				<path d="M0 134.35 L8.11 134.35" class="st11"/>
			</g>
			<g id="shape188-139" v:mID="188" v:groupContext="shape" transform="translate(-128.379,116.822) rotate(-90)">
				<title>工作表.188</title>
				<path d="M0 134.35 L5.1 134.35" class="st8"/>
			</g>
			<g id="shape189-142" v:mID="189" v:groupContext="shape" transform="translate(-128.379,134.351) rotate(-90)">
				<title>工作表.189</title>
				<path d="M0 134.35 L5.1 134.35" class="st8"/>
			</g>
		</g>
		<g id="shape200-145" v:mID="200" v:groupContext="shape" transform="translate(227.194,105.801) rotate(90)">
			<title>工作表.200</title>
			<path d="M0 134.35 L27.63 134.35" class="st8"/>
		</g>
		<g id="shape279-148" v:mID="279" v:groupContext="shape" transform="translate(-41.43,75.9932) rotate(-90)">
			<title>工作表.279</title>
			<path d="M0 134.35 L10.2 134.35" class="st8"/>
		</g>
		<g id="group281-151" transform="translate(78.9985,-68.2795)" v:mID="281" v:groupContext="group">
			<title>工作表.281</title>
			<g id="shape266-152" v:mID="266" v:groupContext="shape" transform="translate(-120.393,117.331) rotate(-90) scale(-1,1)">
				<title>工作表.266</title>
				<path d="M0 134.35 L0.03 134.35" class="st8"/>
			</g>
			<g id="shape267-155" v:mID="267" v:groupContext="shape" transform="translate(-120.393,123) rotate(-90) scale(-1,1)">
				<title>工作表.267</title>
				<path d="M0 134.35 L0.03 134.35" class="st8"/>
			</g>
			<g id="shape268-158" v:mID="268" v:groupContext="shape" transform="translate(-120.393,128.695) rotate(-90) scale(-1,1)">
				<title>工作表.268</title>
				<path d="M0 134.35 L5.66 134.35" class="st8"/>
			</g>
			<g id="shape269-161" v:mID="269" v:groupContext="shape"
					transform="translate(9.198,-16.9078) rotate(-2.17537) scale(-1,1)">
				<title>工作表.269</title>
				<path d="M-0 134.35 A3.5562 2.84753 -2.18 0 0 0.34 134.35" class="st8"/>
			</g>
			<g id="shape270-164" v:mID="270" v:groupContext="shape"
					transform="translate(8.8588,251.582) rotate(2.17537) scale(1,-1)">
				<title>工作表.270</title>
				<path d="M0 134.35 A3.5562 2.84753 -177.82 0 0 0.34 134.35" class="st8"/>
			</g>
			<g id="shape271-167" v:mID="271" v:groupContext="shape" transform="translate(-116.836,117.344) rotate(-90) scale(-1,1)">
				<title>工作表.271</title>
				<path d="M0 131.13 A3.5562 2.84753 -90 0 0 5.67 131.13" class="st8"/>
			</g>
			<g id="shape272-170" v:mID="272" v:groupContext="shape"
					transform="translate(9.198,-11.2385) rotate(-2.17537) scale(-1,1)">
				<title>工作表.272</title>
				<path d="M0 134.35 A3.5562 2.84753 -2.18 0 0 0.34 134.35" class="st8"/>
			</g>
			<g id="shape273-173" v:mID="273" v:groupContext="shape"
					transform="translate(8.8588,257.251) rotate(2.17537) scale(1,-1)">
				<title>工作表.273</title>
				<path d="M-0 134.35 A3.5562 2.84753 -177.82 0 0 0.34 134.35" class="st8"/>
			</g>
			<g id="shape274-176" v:mID="274" v:groupContext="shape"
					transform="translate(-116.436,115.209) rotate(-86.5838) scale(-1,1)">
				<title>工作表.274</title>
				<path d="M0 130.97 A3.5562 2.84753 -86.58 0 0 5.69 130.97" class="st8"/>
			</g>
			<g id="shape275-179" v:mID="275" v:groupContext="shape"
					transform="translate(-116.775,119.465) rotate(86.5838) scale(1,-1)">
				<title>工作表.275</title>
				<path d="M-0 130.97 A3.5562 2.84753 -93.42 0 0 5.69 130.97" class="st8"/>
			</g>
			<g id="shape276-182" v:mID="276" v:groupContext="shape" transform="translate(-120.393,105.438) rotate(-90) scale(-1,1)">
				<title>工作表.276</title>
				<path d="M0 134.35 L6.22 134.35" class="st8"/>
			</g>
			<g id="shape277-185" v:mID="277" v:groupContext="shape" transform="translate(11.6432,-9.63778) scale(-1,1)">
				<title>电阻.137</title>
				<desc>LD</desc>
				<v:textBlock v:margins="rect(2,2,2,2)" v:tabSpace="42.5197"/>
				<v:textRect cx="8.50394" cy="128.824" width="17.01" height="11.0551"/>
				<rect x="0" y="123.296" width="17.0079" height="11.0551" class="st1"/>
				<text x="-13.9" y="131.82" transform="scale(-1,1)" class="st6" v:langID="2052"><v:paragraph v:horizAlign="1"/><v:tabList/>L<tspan
							dy="-0.279em" class="st7" v:baseFontSize="10">D</tspan></text>			</g>
		</g>
		<g id="shape283-189" v:mID="283" v:groupContext="shape" transform="translate(104.815,-47.3032)">
			<title>工作表.283</title>
			<desc>Cds</desc>
			<v:textBlock v:margins="rect(2,2,2,2)" v:tabSpace="42.5197"/>
			<v:textRect cx="8.86839" cy="130.099" width="17.74" height="8.50394"/>
			<rect x="0" y="125.847" width="17.7368" height="8.50394" class="st1"/>
			<text x="2.64" y="133.1" class="st6" v:langID="2052"><v:paragraph v:horizAlign="1"/><v:tabList/>C<tspan dy="-0.279em"
						class="st7" v:baseFontSize="10">ds</tspan></text>		</g>
		<g id="shape284-193" v:mID="284" v:groupContext="shape" transform="translate(122.932,-48.1536)">
			<title>工作表.284</title>
			<path d="M0 134.35 L14.52 134.35" class="st8"/>
		</g>
		<g id="shape285-196" v:mID="285" v:groupContext="shape" transform="translate(137.455,214.809) rotate(180)">
			<title>工作表.285</title>
			<path d="M0 134.35 L14.52 134.35" class="st8"/>
		</g>
		<g id="shape286-199" v:mID="286" v:groupContext="shape" v:layerMember="0" transform="translate(137.434,-53.8937)">
			<title>动态连接线.39</title>
			<path d="M-7.07 134.35 L-7.11 120.05" class="st8"/>
		</g>
		<g id="shape282-202" v:mID="282" v:groupContext="shape" transform="translate(257.283,67.2057) rotate(90)">
			<title>电容.282</title>
			<v:textBlock v:margins="rect(4,4,4,4)" v:tabSpace="42.5197"/>
		</g>
		<g id="shape289-203" v:mID="289" v:groupContext="shape" transform="translate(261.383,105.473) rotate(90)">
			<title>工作表.289</title>
			<rect x="0" y="127.694" width="18.1975" height="6.65761" class="st9"/>
		</g>
		<g id="shape292-205" v:mID="292" v:groupContext="shape" transform="translate(134.012,-16.4504)">
			<title>工作表.292</title>
			<desc>Rb</desc>
			<v:textBlock v:margins="rect(2,2,2,2)" v:tabSpace="42.5197"/>
			<v:textRect cx="8.07874" cy="131.023" width="16.16" height="6.65761"/>
			<rect x="0" y="127.694" width="16.1575" height="6.65761" class="st1"/>
			<text x="3.12" y="134.02" class="st6" v:langID="2052"><v:paragraph v:horizAlign="1"/><v:tabList/>R<tspan dy="-0.279em"
						class="st7" v:baseFontSize="10">b</tspan></text>		</g>
		<g id="shape295-209" v:mID="295" v:groupContext="shape" transform="translate(105.372,-17.5393)">
			<title>电容.122</title>
			<desc>vb</desc>
			<v:textBlock v:margins="rect(2,2,2,2)" v:tabSpace="42.5197"/>
			<v:textRect cx="6.80821" cy="130.099" width="13.62" height="8.50394"/>
			<rect x="0" y="125.847" width="13.6164" height="8.50394" class="st1"/>
			<text x="2.96" y="133.1" class="st10" v:langID="2052"><v:paragraph v:horizAlign="1"/><v:tabList/>v<tspan dy="-0.279em"
						class="st7" v:baseFontSize="10">b</tspan></text>		</g>
		<g id="shape296-213" v:mID="296" v:groupContext="shape" transform="translate(-13.6675,120.168) rotate(-90)">
			<title>工作表.296</title>
			<path d="M0 134.35 L8.11 134.35" class="st11"/>
		</g>
		<g id="shape300-218" v:mID="300" v:groupContext="shape" transform="translate(264.678,123.671) rotate(90)">
			<title>工作表.300</title>
			<path d="M0 134.35 L9.76 134.35" class="st8"/>
		</g>
		<g id="shape304-221" v:mID="304" v:groupContext="shape" transform="translate(219.717,5.72936) rotate(90)">
			<title>电容.304</title>
			<v:textBlock v:margins="rect(4,4,4,4)" v:tabSpace="42.5197"/>
		</g>
		<g id="group327-222" transform="translate(79.3547,-105.055)" v:mID="327" v:groupContext="group">
			<title>二极管.12</title>
			<g id="shape328-223" v:mID="328" v:groupContext="shape" transform="translate(-8.55547,-5.00233)">
				<title>工作表.328</title>
				<desc>DF</desc>
				<v:textBlock v:margins="rect(2,2,2,2)" v:tabSpace="42.5197"/>
				<v:textRect cx="8.164" cy="129.742" width="16.33" height="9.21947"/>
				<rect x="0" y="125.132" width="16.328" height="9.21947" class="st1"/>
				<text x="2.75" y="132.74" class="st6" v:langID="2052"><v:paragraph v:horizAlign="1"/><v:tabList/>D<tspan
							dy="-0.279em" class="st7" v:baseFontSize="10">F</tspan></text>			</g>
			<g id="shape329-227" v:mID="329" v:groupContext="shape" transform="translate(18.7357,255.445) rotate(180)">
				<title>工作表.329</title>
				<path d="M0 134.35 L10.59 134.35" class="st8"/>
			</g>
			<g id="group330-230" transform="translate(8.14303,-3.72142)" v:mID="330" v:groupContext="group">
				<title>工作表.330</title>
				<g id="shape331-231" v:mID="331" v:groupContext="shape">
					<title>工作表.331</title>
					<path d="M0 134.35 L10.59 134.35" class="st8"/>
				</g>
				<g id="shape332-234" v:mID="332" v:groupContext="shape">
					<title>工作表.332</title>
					<path d="M0 134.35 L5.41 124.82 L10.58 134.35" class="st8"/>
				</g>
			</g>
			<g id="shape333-237" v:mID="333" v:groupContext="shape" transform="translate(-120.761,134.351) rotate(-90)">
				<title>工作表.333</title>
				<path d="M0 134.35 L3.72 134.35" class="st8"/>
			</g>
			<g id="shape334-240" v:mID="334" v:groupContext="shape" transform="translate(-120.755,121.17) rotate(-90)">
				<title>工作表.334</title>
				<path d="M0 134.35 L4.19 134.35" class="st8"/>
			</g>
		</g>
		<g id="group335-243" transform="translate(117.063,-99.4606)" v:mID="335" v:groupContext="group">
			<title>工作表.335</title>
			<g id="shape336-244" v:mID="336" v:groupContext="shape" transform="translate(-120.393,117.331) rotate(-90) scale(-1,1)">
				<title>工作表.336</title>
				<path d="M0 134.35 L0.03 134.35" class="st8"/>
			</g>
			<g id="shape337-247" v:mID="337" v:groupContext="shape" transform="translate(-120.393,123) rotate(-90) scale(-1,1)">
				<title>工作表.337</title>
				<path d="M0 134.35 L0.03 134.35" class="st8"/>
			</g>
			<g id="shape338-250" v:mID="338" v:groupContext="shape" transform="translate(-120.393,128.695) rotate(-90) scale(-1,1)">
				<title>工作表.338</title>
				<path d="M0 134.35 L5.66 134.35" class="st8"/>
			</g>
			<g id="shape339-253" v:mID="339" v:groupContext="shape"
					transform="translate(9.198,-16.9078) rotate(-2.17537) scale(-1,1)">
				<title>工作表.339</title>
				<path d="M-0 134.35 A3.5562 2.84753 -2.18 0 0 0.34 134.35" class="st8"/>
			</g>
			<g id="shape340-256" v:mID="340" v:groupContext="shape"
					transform="translate(8.8588,251.582) rotate(2.17537) scale(1,-1)">
				<title>工作表.340</title>
				<path d="M0 134.35 A3.5562 2.84753 -177.82 0 0 0.34 134.35" class="st8"/>
			</g>
			<g id="shape341-259" v:mID="341" v:groupContext="shape" transform="translate(-116.836,117.344) rotate(-90) scale(-1,1)">
				<title>工作表.341</title>
				<path d="M0 131.13 A3.5562 2.84753 -90 0 0 5.67 131.13" class="st8"/>
			</g>
			<g id="shape342-262" v:mID="342" v:groupContext="shape"
					transform="translate(9.198,-11.2385) rotate(-2.17537) scale(-1,1)">
				<title>工作表.342</title>
				<path d="M0 134.35 A3.5562 2.84753 -2.18 0 0 0.34 134.35" class="st8"/>
			</g>
			<g id="shape343-265" v:mID="343" v:groupContext="shape"
					transform="translate(8.8588,257.251) rotate(2.17537) scale(1,-1)">
				<title>工作表.343</title>
				<path d="M-0 134.35 A3.5562 2.84753 -177.82 0 0 0.34 134.35" class="st8"/>
			</g>
			<g id="shape344-268" v:mID="344" v:groupContext="shape"
					transform="translate(-116.436,115.209) rotate(-86.5838) scale(-1,1)">
				<title>工作表.344</title>
				<path d="M0 130.97 A3.5562 2.84753 -86.58 0 0 5.69 130.97" class="st8"/>
			</g>
			<g id="shape345-271" v:mID="345" v:groupContext="shape"
					transform="translate(-116.775,119.465) rotate(86.5838) scale(1,-1)">
				<title>工作表.345</title>
				<path d="M-0 130.97 A3.5562 2.84753 -93.42 0 0 5.69 130.97" class="st8"/>
			</g>
			<g id="shape346-274" v:mID="346" v:groupContext="shape" transform="translate(-120.393,105.438) rotate(-90) scale(-1,1)">
				<title>工作表.346</title>
				<path d="M0 134.35 L6.22 134.35" class="st8"/>
			</g>
			<g id="shape347-277" v:mID="347" v:groupContext="shape" transform="translate(14.6813,-8.74978) scale(-1,1)">
				<title>电阻.137</title>
				<desc>L0</desc>
				<v:textBlock v:margins="rect(2,2,2,2)" v:tabSpace="42.5197"/>
				<v:textRect cx="8.50394" cy="128.824" width="17.01" height="11.0551"/>
				<rect x="0" y="123.296" width="17.0079" height="11.0551" class="st1"/>
				<text x="-13.18" y="131.82" transform="scale(-1,1)" class="st6" v:langID="2052"><v:paragraph v:horizAlign="1"/><v:tabList/>L<tspan
							dy="-0.279em" class="st7" v:baseFontSize="10">0</tspan></text>			</g>
		</g>
		<g id="shape348-281" v:mID="348" v:groupContext="shape" transform="translate(227.296,29.2215) rotate(90)">
			<title>工作表.348</title>
			<path d="M0 134.35 L7.94 134.35" class="st8"/>
		</g>
		<g id="shape349-284" v:mID="349" v:groupContext="shape" transform="translate(131.021,169.242) rotate(180)">
			<title>工作表.349</title>
			<path d="M0 134.35 L38.08 134.35" class="st8"/>
		</g>
		<g id="shape354-287" v:mID="354" v:groupContext="shape" transform="translate(-41.3999,11.9302) rotate(-90)">
			<title>工作表.354</title>
			<path d="M0 134.35 L5.95 134.35" class="st8"/>
		</g>
		<g id="shape356-290" v:mID="356" v:groupContext="shape" transform="translate(131.021,140.329) rotate(180)">
			<title>工作表.356</title>
			<path d="M0 134.35 L65.89 134.35" class="st8"/>
		</g>
		<g id="shape357-293" v:mID="357" v:groupContext="shape" transform="translate(103.954,-79.0157)">
			<title>电容.357</title>
			<desc>id</desc>
			<v:textBlock v:margins="rect(2,2,2,2)" v:tabSpace="42.5197"/>
			<v:textRect cx="6.80821" cy="130.099" width="13.62" height="8.50394"/>
			<rect x="0" y="125.847" width="13.6164" height="8.50394" class="st1"/>
			<text x="3.79" y="133.1" class="st10" v:langID="2052"><v:paragraph v:horizAlign="1"/><v:tabList/>i<tspan dy="-0.279em"
						class="st7" v:baseFontSize="10">d</tspan></text>		</g>
		<g id="shape358-297" v:mID="358" v:groupContext="shape" transform="translate(238.151,45.7886) rotate(90)">
			<title>工作表.358</title>
			<path d="M0 134.35 L8.11 134.35" class="st11"/>
		</g>
		<g id="shape359-302" v:mID="359" v:groupContext="shape" transform="translate(141.944,-109.665)">
			<title>电容.359</title>
			<desc>i0</desc>
			<v:textBlock v:margins="rect(2,2,2,2)" v:tabSpace="42.5197"/>
			<v:textRect cx="6.80821" cy="130.099" width="13.62" height="8.50394"/>
			<rect x="0" y="125.847" width="13.6164" height="8.50394" class="st1"/>
			<text x="3.79" y="133.1" class="st10" v:langID="2052"><v:paragraph v:horizAlign="1"/><v:tabList/>i<tspan dy="-0.279em"
						class="st7" v:baseFontSize="10">0</tspan></text>		</g>
		<g id="shape360-306" v:mID="360" v:groupContext="shape" transform="translate(276.017,15.1291) rotate(90)">
			<title>工作表.360</title>
			<path d="M0 134.35 L8.11 134.35" class="st11"/>
		</g>
		<g id="shape361-311" v:mID="361" v:groupContext="shape" transform="translate(101.98,-108.213)">
			<title>电容.361</title>
			<desc>idf</desc>
			<v:textBlock v:margins="rect(2,2,2,2)" v:tabSpace="42.5197"/>
			<v:textRect cx="6.80821" cy="130.099" width="13.62" height="8.50394"/>
			<rect x="0" y="125.847" width="13.6164" height="8.50394" class="st1"/>
			<text x="2.89" y="133.1" class="st10" v:langID="2052"><v:paragraph v:horizAlign="1"/><v:tabList/>i<tspan dy="-0.279em"
						class="st7" v:baseFontSize="10">df</tspan></text>		</g>
		<g id="shape362-315" v:mID="362" v:groupContext="shape" transform="translate(-31.5669,26.9892) rotate(-90)">
			<title>工作表.362</title>
			<path d="M0 134.35 L11.32 134.35" class="st11"/>
		</g>
		<g id="shape363-320" v:mID="363" v:groupContext="shape" transform="translate(57.966,-32.811)">
			<title>工作表.363</title>
			<ellipse cx="1.55905" cy="132.792" rx="1.55905" ry="1.55905" class="st13"/>
		</g>
		<g id="shape364-322" v:mID="364" v:groupContext="shape" transform="translate(91.4171,-66.6267)">
			<title>工作表.364</title>
			<ellipse cx="1.55905" cy="132.792" rx="1.55905" ry="1.55905" class="st13"/>
		</g>
		<g id="shape365-324" v:mID="365" v:groupContext="shape" transform="translate(62.0118,-126.792)">
			<title>工作表.365</title>
			<ellipse cx="1.55905" cy="132.792" rx="1.55905" ry="1.55905" class="st9"/>
		</g>
		<g id="shape366-326" v:mID="366" v:groupContext="shape" transform="translate(39.9016,-122.979)">
			<title>电容.128</title>
			<desc>+Vd</desc>
			<v:textBlock v:margins="rect(2,2,2,2)" v:tabSpace="42.5197"/>
			<v:textRect cx="12.1327" cy="128.979" width="24.27" height="10.7448"/>
			<rect x="0" y="123.607" width="24.2654" height="10.7448" class="st1"/>
			<text x="4.08" y="131.98" class="st6" v:langID="2052"><v:paragraph v:horizAlign="1"/><v:tabList/>+V<tspan dy="-0.279em"
						class="st7" v:baseFontSize="10">d</tspan></text>		</g>
		<g id="group494-330" transform="translate(146.201,-18.5778)" v:mID="494" v:groupContext="group">
			<title>工作表.494</title>
			<g id="shape368-331" v:mID="368" v:groupContext="shape" transform="translate(140.449,111.66) rotate(90)">
				<title>工作表.368</title>
				<path d="M0 134.35 L14.35 134.35" class="st14"/>
			</g>
			<g id="shape369-334" v:mID="369" v:groupContext="shape" transform="translate(73.2732,4.99295) rotate(30)">
				<title>工作表.369</title>
				<path d="M0 134.35 L10.63 134.35" class="st8"/>
			</g>
			<g id="shape370-337" v:mID="370" v:groupContext="shape" transform="translate(-61.0782,-0.387211) rotate(-30)">
				<title>工作表.370</title>
				<path d="M0 134.35 L10.6 134.35" class="st8"/>
			</g>
			<g id="shape371-340" v:mID="371" v:groupContext="shape" transform="translate(72.2824,4.56207) rotate(29.3609)">
				<title>工作表.371</title>
				<path d="M0 134.35 L5.33 134.35" class="st15"/>
			</g>
			<g id="shape372-346" v:mID="372" v:groupContext="shape" transform="translate(149.658,126.662) rotate(90)">
				<title>工作表.372</title>
				<path d="M0 134.35 L7.69 134.35" class="st8"/>
			</g>
			<g id="shape492-349" v:mID="492" v:groupContext="shape" transform="translate(149.63,102.974) rotate(90)">
				<title>工作表.492</title>
				<path d="M0 134.35 L7.69 134.35" class="st8"/>
			</g>
			<g id="shape493-352" v:mID="493" v:groupContext="shape" transform="translate(-8.14349E-14,-15.5175)">
				<title>工作表.493</title>
				<path d="M0 134.35 L6.1 134.35" class="st8"/>
			</g>
		</g>
		<g id="shape499-355" v:mID="499" v:groupContext="shape" transform="translate(-3.99109,105.706) rotate(-90.0992)">
			<title>工作表.499</title>
			<path d="M0 134.35 L19.28 134.35" class="st8"/>
		</g>
		<g id="shape501-358" v:mID="501" v:groupContext="shape" transform="translate(147.902,234.608) rotate(180)">
			<title>工作表.501</title>
			<path d="M0 134.35 L17.55 134.35" class="st8"/>
		</g>
		<g id="shape505-361" v:mID="505" v:groupContext="shape" transform="translate(27.1279,84.5586) rotate(-89.9116)">
			<title>工作表.505</title>
			<path d="M0 134.35 L18.61 134.35" class="st8"/>
		</g>
		<g id="shape507-364" v:mID="507" v:groupContext="shape" transform="translate(59.5071,-68.1985)">
			<title>工作表.507</title>
			<path d="M0 134.35 L102 134.35" class="st8"/>
		</g>
		<g id="shape509-367" v:mID="509" v:groupContext="shape" transform="translate(295.859,115.714) rotate(90)">
			<title>工作表.509</title>
			<path d="M0 134.35 L17.72 134.35" class="st8"/>
		</g>
		<g id="shape511-370" v:mID="511" v:groupContext="shape" transform="translate(59.5071,-0.92126)">
			<title>工作表.511</title>
			<path d="M0 134.35 L102 134.35" class="st8"/>
		</g>
		<g id="shape512-373" v:mID="512" v:groupContext="shape" transform="translate(32.4018,105.464) rotate(-90)">
			<title>工作表.512</title>
			<path d="M0 134.35 L8.11 134.35" class="st11"/>
		</g>
		<g id="shape513-378" v:mID="513" v:groupContext="shape" transform="translate(169.874,-30.1038)">
			<title>电容.513</title>
			<desc>vds</desc>
			<v:textBlock v:margins="rect(2,2,2,2)" v:tabSpace="42.5197"/>
			<v:textRect cx="7.36755" cy="129.212" width="14.74" height="10.2785"/>
			<rect x="0" y="124.073" width="14.7351" height="10.2785" class="st1"/>
			<text x="2.26" y="132.21" class="st10" v:langID="2052"><v:paragraph v:horizAlign="1"/><v:tabList/>v<tspan dy="-0.279em"
						class="st7" v:baseFontSize="10">ds</tspan></text>		</g>
		<g id="shape514-382" v:mID="514" v:groupContext="shape" transform="translate(72.4949,-11.3738)">
			<title>电容.514</title>
			<desc>vgs</desc>
			<v:textBlock v:margins="rect(2,2,2,2)" v:tabSpace="42.5197"/>
			<v:textRect cx="8.07874" cy="130.099" width="16.16" height="8.50394"/>
			<rect x="0" y="125.847" width="16.1575" height="8.50394" class="st1"/>
			<text x="2.97" y="133.1" class="st10" v:langID="2052"><v:paragraph v:horizAlign="1"/><v:tabList/>v<tspan dy="-0.279em"
						class="st7" v:baseFontSize="10">gs</tspan></text>		</g>
		<g id="shape515-386" v:mID="515" v:groupContext="shape" transform="translate(-63.5522,125.306) rotate(-90)">
			<title>工作表.515</title>
			<path d="M0 134.35 L8.11 134.35" class="st11"/>
		</g>
	</g>
</svg>
