<?xml version="1.0" encoding="utf-8" standalone="no"?>
<!DOCTYPE svg PUBLIC "-//W3C//DTD SVG 1.1//EN"
  "http://www.w3.org/Graphics/SVG/1.1/DTD/svg11.dtd">
<svg xmlns:xlink="http://www.w3.org/1999/xlink" width="988.941316pt" height="485.02641pt" viewBox="0 0 988.941316 485.02641" xmlns="http://www.w3.org/2000/svg" version="1.1">
 <metadata>
  <rdf:RDF xmlns:dc="http://purl.org/dc/elements/1.1/" xmlns:cc="http://creativecommons.org/ns#" xmlns:rdf="http://www.w3.org/1999/02/22-rdf-syntax-ns#">
   <cc:Work>
    <dc:type rdf:resource="http://purl.org/dc/dcmitype/StillImage"/>
    <dc:date>2026-03-21T03:15:54.798892</dc:date>
    <dc:format>image/svg+xml</dc:format>
    <dc:creator>
     <cc:Agent>
      <dc:title>Matplotlib v3.8.4, https://matplotlib.org/</dc:title>
     </cc:Agent>
    </dc:creator>
   </cc:Work>
  </rdf:RDF>
 </metadata>
 <defs>
  <style type="text/css">*{stroke-linejoin: round; stroke-linecap: butt}</style>
 </defs>
 <g id="figure_1">
  <g id="patch_1">
   <path d="M 0 485.02641 
L 988.941316 485.02641 
L 988.941316 0 
L 0 0 
z
" style="fill: #ffffff"/>
  </g>
  <g id="axes_1">
   <g id="patch_2">
    <path d="M 7.2 477.82641 
L 981.741316 477.82641 
L 981.741316 8.065636 
L 7.2 8.065636 
z
" style="fill: #ffffff"/>
   </g>
   <g id="PolyCollection_1">
    <defs>
     <path id="mc08537a060" d="M 290.027186 -416.346481 
L 290.027186 -37.507147 
L 290.428669 -37.507147 
L 290.830151 -37.507147 
L 291.231634 -37.507147 
L 291.633116 -37.507147 
L 292.034599 -37.507147 
L 292.436081 -37.507147 
L 292.837564 -37.507147 
L 293.239046 -37.507147 
L 293.640528 -37.507147 
L 294.042011 -37.507147 
L 294.443493 -37.507147 
L 294.844976 -37.507147 
L 295.246458 -37.507147 
L 295.647941 -37.507147 
L 296.049423 -37.507147 
L 296.450906 -37.507147 
L 296.852388 -37.507147 
L 297.253871 -37.507147 
L 297.655353 -37.507147 
L 298.056835 -37.507147 
L 298.458318 -37.507147 
L 298.8598 -37.507147 
L 299.261283 -37.507147 
L 299.662765 -37.507147 
L 300.064248 -37.507147 
L 300.46573 -37.507147 
L 300.867213 -37.507147 
L 301.268695 -37.507147 
L 301.670178 -37.507147 
L 302.07166 -37.507147 
L 302.473143 -37.507147 
L 302.874625 -37.507147 
L 303.276107 -37.507147 
L 303.67759 -37.507147 
L 304.079072 -37.507147 
L 304.480555 -37.507147 
L 304.882037 -37.507147 
L 305.28352 -37.507147 
L 305.685002 -37.507147 
L 306.086485 -37.507147 
L 306.487967 -37.507147 
L 306.88945 -37.507147 
L 307.290932 -37.507147 
L 307.692415 -37.507147 
L 308.093897 -37.507147 
L 308.495379 -37.507147 
L 308.896862 -37.507147 
L 309.298344 -37.507147 
L 309.699827 -37.507147 
L 310.101309 -37.507147 
L 310.502792 -37.507147 
L 310.904274 -37.507147 
L 311.305757 -37.507147 
L 311.707239 -37.507147 
L 312.108722 -37.507147 
L 312.510204 -37.507147 
L 312.911686 -37.507147 
L 313.313169 -37.507147 
L 313.714651 -37.507147 
L 314.116134 -37.507147 
L 314.517616 -37.507147 
L 314.919099 -37.507147 
L 315.320581 -37.507147 
L 315.722064 -37.507147 
L 316.123546 -37.507147 
L 316.525029 -37.507147 
L 316.926511 -37.507147 
L 317.327994 -37.507147 
L 317.729476 -37.507147 
L 318.130958 -37.507147 
L 318.532441 -37.507147 
L 318.933923 -37.507147 
L 319.335406 -37.507147 
L 319.736888 -37.507147 
L 320.138371 -37.507147 
L 320.539853 -37.507147 
L 320.941336 -37.507147 
L 321.342818 -37.507147 
L 321.744301 -37.507147 
L 322.145783 -37.507147 
L 322.547266 -37.507147 
L 322.948748 -37.507147 
L 323.35023 -37.507147 
L 323.751713 -37.507147 
L 324.153195 -37.507147 
L 324.554678 -37.507147 
L 324.95616 -37.507147 
L 325.357643 -37.507147 
L 325.759125 -37.507147 
L 326.160608 -37.507147 
L 326.56209 -37.507147 
L 326.963573 -37.507147 
L 327.365055 -37.507147 
L 327.766537 -37.507147 
L 328.16802 -37.507147 
L 328.569502 -37.507147 
L 328.970985 -37.507147 
L 329.372467 -37.507147 
L 329.77395 -37.507147 
L 330.175432 -37.507147 
L 330.576915 -37.507147 
L 330.978397 -37.507147 
L 331.37988 -37.507147 
L 331.781362 -37.507147 
L 332.182845 -37.507147 
L 332.584327 -37.507147 
L 332.985809 -37.507147 
L 333.387292 -37.507147 
L 333.788774 -37.507147 
L 334.190257 -37.507147 
L 334.591739 -37.507147 
L 334.993222 -37.507147 
L 335.394704 -37.507147 
L 335.796187 -37.507147 
L 336.197669 -37.507147 
L 336.599152 -37.507147 
L 337.000634 -37.507147 
L 337.402117 -37.507147 
L 337.803599 -37.507147 
L 338.205081 -37.507147 
L 338.606564 -37.507147 
L 339.008046 -37.507147 
L 339.409529 -37.507147 
L 339.811011 -37.507147 
L 340.212494 -37.507147 
L 340.613976 -37.507147 
L 341.015459 -37.507147 
L 341.416941 -37.507147 
L 341.818424 -37.507147 
L 342.219906 -37.507147 
L 342.621388 -37.507147 
L 343.022871 -37.507147 
L 343.424353 -37.507147 
L 343.825836 -37.507147 
L 344.227318 -37.507147 
L 344.628801 -37.507147 
L 345.030283 -37.507147 
L 345.431766 -37.507147 
L 345.833248 -37.507147 
L 346.234731 -37.507147 
L 346.636213 -37.507147 
L 347.037696 -37.507147 
L 347.439178 -37.507147 
L 347.84066 -37.507147 
L 348.242143 -37.507147 
L 348.643625 -37.507147 
L 349.045108 -37.507147 
L 349.44659 -37.507147 
L 349.848073 -37.507147 
L 350.249555 -37.507147 
L 350.651038 -37.507147 
L 351.05252 -37.507147 
L 351.454003 -37.507147 
L 351.855485 -37.507147 
L 352.256968 -37.507147 
L 352.65845 -37.507147 
L 353.059932 -37.507147 
L 353.461415 -37.507147 
L 353.862897 -37.507147 
L 354.26438 -37.507147 
L 354.665862 -37.507147 
L 355.067345 -37.507147 
L 355.468827 -37.507147 
L 355.87031 -37.507147 
L 356.271792 -37.507147 
L 356.673275 -37.507147 
L 357.074757 -37.507147 
L 357.476239 -37.507147 
L 357.877722 -37.507147 
L 358.279204 -37.507147 
L 358.680687 -37.507147 
L 359.082169 -37.507147 
L 359.483652 -37.507147 
L 359.885134 -37.507147 
L 360.286617 -37.507147 
L 360.688099 -37.507147 
L 361.089582 -37.507147 
L 361.491064 -37.507147 
L 361.892547 -37.507147 
L 362.294029 -37.507147 
L 362.695511 -37.507147 
L 363.096994 -37.507147 
L 363.498476 -37.507147 
L 363.899959 -37.507147 
L 364.301441 -37.507147 
L 364.702924 -37.507147 
L 365.104406 -37.507147 
L 365.505889 -37.507147 
L 365.907371 -37.507147 
L 366.308854 -37.507147 
L 366.710336 -37.507147 
L 367.111819 -37.507147 
L 367.513301 -37.507147 
L 367.914783 -37.507147 
L 368.316266 -37.507147 
L 368.717748 -37.507147 
L 369.119231 -37.507147 
L 369.520713 -37.507147 
L 369.922196 -37.507147 
L 370.323678 -37.507147 
L 370.725161 -37.507147 
L 371.126643 -37.507147 
L 371.528126 -37.507147 
L 371.929608 -37.507147 
L 372.33109 -37.507147 
L 372.732573 -37.507147 
L 373.134055 -37.507147 
L 373.535538 -37.507147 
L 373.93702 -37.507147 
L 374.338503 -37.507147 
L 374.739985 -37.507147 
L 375.141468 -37.507147 
L 375.54295 -37.507147 
L 375.944433 -37.507147 
L 376.345915 -37.507147 
L 376.747398 -37.507147 
L 377.14888 -37.507147 
L 377.550362 -37.507147 
L 377.951845 -37.507147 
L 378.353327 -37.507147 
L 378.75481 -37.507147 
L 379.156292 -37.507147 
L 379.557775 -37.507147 
L 379.959257 -37.507147 
L 380.36074 -37.507147 
L 380.762222 -37.507147 
L 381.163705 -37.507147 
L 381.565187 -37.507147 
L 381.96667 -37.507147 
L 382.368152 -37.507147 
L 382.769634 -37.507147 
L 383.171117 -37.507147 
L 383.572599 -37.507147 
L 383.974082 -37.507147 
L 384.375564 -37.507147 
L 384.777047 -37.507147 
L 385.178529 -37.507147 
L 385.580012 -37.507147 
L 385.981494 -37.507147 
L 386.382977 -37.507147 
L 386.784459 -37.507147 
L 387.185941 -37.507147 
L 387.587424 -37.507147 
L 387.988906 -37.507147 
L 388.390389 -37.507147 
L 388.791871 -37.507147 
L 389.193354 -37.507147 
L 389.594836 -37.507147 
L 389.996319 -37.507147 
L 390.397801 -37.507147 
L 390.799284 -37.507147 
L 391.200766 -37.507147 
L 391.602249 -37.507147 
L 392.003731 -37.507147 
L 392.405213 -37.507147 
L 392.806696 -37.507147 
L 393.208178 -37.507147 
L 393.609661 -37.507147 
L 394.011143 -37.507147 
L 394.412626 -37.507147 
L 394.814108 -37.507147 
L 395.215591 -37.507147 
L 395.617073 -37.507147 
L 396.018556 -37.507147 
L 396.420038 -37.507147 
L 396.821521 -37.507147 
L 397.223003 -37.507147 
L 397.624485 -37.507147 
L 398.025968 -37.507147 
L 398.42745 -37.507147 
L 398.828933 -37.507147 
L 399.230415 -37.507147 
L 399.631898 -37.507147 
L 400.03338 -37.507147 
L 400.434863 -37.507147 
L 400.836345 -37.507147 
L 401.237828 -37.507147 
L 401.63931 -37.507147 
L 402.040792 -37.507147 
L 402.442275 -37.507147 
L 402.843757 -37.507147 
L 403.24524 -37.507147 
L 403.646722 -37.507147 
L 404.048205 -37.507147 
L 404.449687 -37.507147 
L 404.85117 -37.507147 
L 405.252652 -37.507147 
L 405.654135 -37.507147 
L 406.055617 -37.507147 
L 406.4571 -37.507147 
L 406.858582 -37.507147 
L 407.260064 -37.507147 
L 407.661547 -37.507147 
L 408.063029 -37.507147 
L 408.464512 -37.507147 
L 408.865994 -37.507147 
L 409.267477 -37.507147 
L 409.668959 -37.507147 
L 410.070442 -37.507147 
L 410.471924 -37.507147 
L 410.873407 -37.507147 
L 411.274889 -37.507147 
L 411.676372 -37.507147 
L 412.077854 -37.507147 
L 412.479336 -37.507147 
L 412.880819 -37.507147 
L 413.282301 -37.507147 
L 413.683784 -37.507147 
L 414.085266 -37.507147 
L 414.486749 -37.507147 
L 414.888231 -37.507147 
L 415.289714 -37.507147 
L 415.691196 -37.507147 
L 416.092679 -37.507147 
L 416.494161 -37.507147 
L 416.895643 -37.507147 
L 417.297126 -37.507147 
L 417.698608 -37.507147 
L 418.100091 -37.507147 
L 418.501573 -37.507147 
L 418.903056 -37.507147 
L 419.304538 -37.507147 
L 419.706021 -37.507147 
L 420.107503 -37.507147 
L 420.508986 -37.507147 
L 420.910468 -37.507147 
L 421.311951 -37.507147 
L 421.713433 -37.507147 
L 422.114915 -37.507147 
L 422.516398 -37.507147 
L 422.91788 -37.507147 
L 423.319363 -37.507147 
L 423.720845 -37.507147 
L 424.122328 -37.507147 
L 424.52381 -37.507147 
L 424.925293 -37.507147 
L 425.326775 -37.507147 
L 425.728258 -37.507147 
L 426.12974 -37.507147 
L 426.531223 -37.507147 
L 426.932705 -37.507147 
L 427.334187 -37.507147 
L 427.73567 -37.507147 
L 428.137152 -37.507147 
L 428.538635 -37.507147 
L 428.940117 -37.507147 
L 429.3416 -37.507147 
L 429.743082 -37.507147 
L 430.144565 -37.507147 
L 430.546047 -37.507147 
L 430.94753 -37.507147 
L 431.349012 -37.507147 
L 431.750494 -37.507147 
L 432.151977 -37.507147 
L 432.553459 -37.507147 
L 432.954942 -37.507147 
L 433.356424 -37.507147 
L 433.757907 -37.507147 
L 434.159389 -37.507147 
L 434.560872 -37.507147 
L 434.962354 -37.507147 
L 435.363837 -37.507147 
L 435.765319 -37.507147 
L 436.166802 -37.507147 
L 436.568284 -37.507147 
L 436.969766 -37.507147 
L 437.371249 -37.507147 
L 437.772731 -37.507147 
L 438.174214 -37.507147 
L 438.575696 -37.507147 
L 438.977179 -37.507147 
L 439.378661 -37.507147 
L 439.780144 -37.507147 
L 440.181626 -37.507147 
L 440.583109 -37.507147 
L 440.984591 -37.507147 
L 441.386074 -37.507147 
L 441.787556 -37.507147 
L 442.189038 -37.507147 
L 442.590521 -37.507147 
L 442.992003 -37.507147 
L 443.393486 -37.507147 
L 443.794968 -37.507147 
L 444.196451 -37.507147 
L 444.597933 -37.507147 
L 444.999416 -37.507147 
L 445.400898 -37.507147 
L 445.802381 -37.507147 
L 446.203863 -37.507147 
L 446.605345 -37.507147 
L 447.006828 -37.507147 
L 447.40831 -37.507147 
L 447.809793 -37.507147 
L 448.211275 -37.507147 
L 448.612758 -37.507147 
L 449.01424 -37.507147 
L 449.415723 -37.507147 
L 449.817205 -37.507147 
L 450.218688 -37.507147 
L 450.62017 -37.507147 
L 451.021653 -37.507147 
L 451.423135 -37.507147 
L 451.824617 -37.507147 
L 452.2261 -37.507147 
L 452.627582 -37.507147 
L 453.029065 -37.507147 
L 453.430547 -37.507147 
L 453.83203 -37.507147 
L 454.233512 -37.507147 
L 454.634995 -37.507147 
L 455.036477 -37.507147 
L 455.43796 -37.507147 
L 455.839442 -37.507147 
L 456.240925 -37.507147 
L 456.642407 -37.507147 
L 457.043889 -37.507147 
L 457.445372 -37.507147 
L 457.846854 -37.507147 
L 458.248337 -37.507147 
L 458.649819 -37.507147 
L 459.051302 -37.507147 
L 459.452784 -37.507147 
L 459.854267 -37.507147 
L 460.255749 -37.507147 
L 460.657232 -37.507147 
L 461.058714 -37.507147 
L 461.460196 -37.507147 
L 461.861679 -37.507147 
L 462.263161 -37.507147 
L 462.664644 -37.507147 
L 463.066126 -37.507147 
L 463.467609 -37.507147 
L 463.869091 -37.507147 
L 464.270574 -37.507147 
L 464.672056 -37.507147 
L 465.073539 -37.507147 
L 465.475021 -37.507147 
L 465.876504 -37.507147 
L 466.277986 -37.507147 
L 466.679468 -37.507147 
L 467.080951 -37.507147 
L 467.482433 -37.507147 
L 467.883916 -37.507147 
L 468.285398 -37.507147 
L 468.686881 -37.507147 
L 469.088363 -37.507147 
L 469.489846 -37.507147 
L 469.891328 -37.507147 
L 470.292811 -37.507147 
L 470.694293 -37.507147 
L 471.095776 -37.507147 
L 471.497258 -37.507147 
L 471.89874 -37.507147 
L 472.300223 -37.507147 
L 472.701705 -37.507147 
L 473.103188 -37.507147 
L 473.50467 -37.507147 
L 473.906153 -37.507147 
L 474.307635 -37.507147 
L 474.709118 -37.507147 
L 475.1106 -37.507147 
L 475.512083 -37.507147 
L 475.913565 -37.507147 
L 476.315047 -37.507147 
L 476.71653 -37.507147 
L 477.118012 -37.507147 
L 477.519495 -37.507147 
L 477.920977 -37.507147 
L 478.32246 -37.507147 
L 478.723942 -37.507147 
L 479.125425 -37.507147 
L 479.526907 -37.507147 
L 479.92839 -37.507147 
L 480.329872 -37.507147 
L 480.731355 -37.507147 
L 481.132837 -37.507147 
L 481.534319 -37.507147 
L 481.935802 -37.507147 
L 482.337284 -37.507147 
L 482.738767 -37.507147 
L 483.140249 -37.507147 
L 483.541732 -37.507147 
L 483.943214 -37.507147 
L 484.344697 -37.507147 
L 484.746179 -37.507147 
L 485.147662 -37.507147 
L 485.549144 -37.507147 
L 485.950627 -37.507147 
L 486.352109 -37.507147 
L 486.753591 -37.507147 
L 487.155074 -37.507147 
L 487.556556 -37.507147 
L 487.958039 -37.507147 
L 488.359521 -37.507147 
L 488.761004 -37.507147 
L 489.162486 -37.507147 
L 489.563969 -37.507147 
L 489.965451 -37.507147 
L 490.366934 -37.507147 
L 490.768416 -37.507147 
L 491.169898 -37.507147 
L 491.571381 -37.507147 
L 491.972863 -37.507147 
L 492.374346 -37.507147 
L 492.775828 -37.507147 
L 493.177311 -37.507147 
L 493.578793 -37.507147 
L 493.980276 -37.507147 
L 494.381758 -37.507147 
L 494.783241 -37.507147 
L 495.184723 -37.507147 
L 495.586206 -37.507147 
L 495.987688 -37.507147 
L 496.38917 -37.507147 
L 496.790653 -37.507147 
L 497.192135 -37.507147 
L 497.593618 -37.507147 
L 497.9951 -37.507147 
L 498.396583 -37.507147 
L 498.798065 -37.507147 
L 499.199548 -37.507147 
L 499.60103 -37.507147 
L 500.002513 -37.507147 
L 500.403995 -37.507147 
L 500.805478 -37.507147 
L 501.20696 -37.507147 
L 501.608442 -37.507147 
L 502.009925 -37.507147 
L 502.411407 -37.507147 
L 502.81289 -37.507147 
L 503.214372 -37.507147 
L 503.615855 -37.507147 
L 504.017337 -37.507147 
L 504.41882 -37.507147 
L 504.820302 -37.507147 
L 505.221785 -37.507147 
L 505.623267 -37.507147 
L 506.024749 -37.507147 
L 506.426232 -37.507147 
L 506.827714 -37.507147 
L 507.229197 -37.507147 
L 507.630679 -37.507147 
L 508.032162 -37.507147 
L 508.433644 -37.507147 
L 508.835127 -37.507147 
L 509.236609 -37.507147 
L 509.638092 -37.507147 
L 510.039574 -37.507147 
L 510.441057 -37.507147 
L 510.842539 -37.507147 
L 511.244021 -37.507147 
L 511.645504 -37.507147 
L 512.046986 -37.507147 
L 512.448469 -37.507147 
L 512.849951 -37.507147 
L 513.251434 -37.507147 
L 513.652916 -37.507147 
L 514.054399 -37.507147 
L 514.455881 -37.507147 
L 514.857364 -37.507147 
L 515.258846 -37.507147 
L 515.660329 -37.507147 
L 516.061811 -37.507147 
L 516.463293 -37.507147 
L 516.864776 -37.507147 
L 517.266258 -37.507147 
L 517.667741 -37.507147 
L 518.069223 -37.507147 
L 518.470706 -37.507147 
L 518.872188 -37.507147 
L 519.273671 -37.507147 
L 519.675153 -37.507147 
L 520.076636 -37.507147 
L 520.478118 -37.507147 
L 520.8796 -37.507147 
L 521.281083 -37.507147 
L 521.682565 -37.507147 
L 522.084048 -37.507147 
L 522.48553 -37.507147 
L 522.887013 -37.507147 
L 523.288495 -37.507147 
L 523.689978 -37.507147 
L 524.09146 -37.507147 
L 524.492943 -37.507147 
L 524.894425 -37.507147 
L 525.295908 -37.507147 
L 525.69739 -37.507147 
L 526.098872 -37.507147 
L 526.500355 -37.507147 
L 526.901837 -37.507147 
L 527.30332 -37.507147 
L 527.704802 -37.507147 
L 528.106285 -37.507147 
L 528.507767 -37.507147 
L 528.90925 -37.507147 
L 529.310732 -37.507147 
L 529.712215 -37.507147 
L 530.113697 -37.507147 
L 530.515179 -37.507147 
L 530.916662 -37.507147 
L 531.318144 -37.507147 
L 531.719627 -37.507147 
L 532.121109 -37.507147 
L 532.522592 -37.507147 
L 532.924074 -37.507147 
L 533.325557 -37.507147 
L 533.727039 -37.507147 
L 534.128522 -37.507147 
L 534.530004 -37.507147 
L 534.931487 -37.507147 
L 535.332969 -37.507147 
L 535.734451 -37.507147 
L 536.135934 -37.507147 
L 536.537416 -37.507147 
L 536.938899 -37.507147 
L 537.340381 -37.507147 
L 537.741864 -37.507147 
L 538.143346 -37.507147 
L 538.544829 -37.507147 
L 538.946311 -37.507147 
L 539.347794 -37.507147 
L 539.749276 -37.507147 
L 540.150759 -37.507147 
L 540.552241 -37.507147 
L 540.953723 -37.507147 
L 541.355206 -37.507147 
L 541.756688 -37.507147 
L 542.158171 -37.507147 
L 542.559653 -37.507147 
L 542.961136 -37.507147 
L 543.362618 -37.507147 
L 543.764101 -37.507147 
L 544.165583 -37.507147 
L 544.567066 -37.507147 
L 544.968548 -37.507147 
L 545.37003 -37.507147 
L 545.771513 -37.507147 
L 546.172995 -37.507147 
L 546.574478 -37.507147 
L 546.97596 -37.507147 
L 547.377443 -37.507147 
L 547.778925 -37.507147 
L 548.180408 -37.507147 
L 548.58189 -37.507147 
L 548.983373 -37.507147 
L 549.384855 -37.507147 
L 549.786338 -37.507147 
L 550.18782 -37.507147 
L 550.589302 -37.507147 
L 550.990785 -37.507147 
L 551.392267 -37.507147 
L 551.79375 -37.507147 
L 552.195232 -37.507147 
L 552.596715 -37.507147 
L 552.998197 -37.507147 
L 553.39968 -37.507147 
L 553.801162 -37.507147 
L 554.202645 -37.507147 
L 554.604127 -37.507147 
L 555.00561 -37.507147 
L 555.407092 -37.507147 
L 555.808574 -37.507147 
L 556.210057 -37.507147 
L 556.611539 -37.507147 
L 557.013022 -37.507147 
L 557.414504 -37.507147 
L 557.815987 -37.507147 
L 558.217469 -37.507147 
L 558.618952 -37.507147 
L 559.020434 -37.507147 
L 559.421917 -37.507147 
L 559.823399 -37.507147 
L 560.224881 -37.507147 
L 560.626364 -37.507147 
L 561.027846 -37.507147 
L 561.429329 -37.507147 
L 561.830811 -37.507147 
L 562.232294 -37.507147 
L 562.633776 -37.507147 
L 563.035259 -37.507147 
L 563.436741 -37.507147 
L 563.838224 -37.507147 
L 564.239706 -37.507147 
L 564.641189 -37.507147 
L 565.042671 -37.507147 
L 565.444153 -37.507147 
L 565.845636 -37.507147 
L 566.247118 -37.507147 
L 566.648601 -37.507147 
L 567.050083 -37.507147 
L 567.451566 -37.507147 
L 567.853048 -37.507147 
L 568.254531 -37.507147 
L 568.656013 -37.507147 
L 569.057496 -37.507147 
L 569.458978 -37.507147 
L 569.860461 -37.507147 
L 570.261943 -37.507147 
L 570.663425 -37.507147 
L 571.064908 -37.507147 
L 571.46639 -37.507147 
L 571.867873 -37.507147 
L 572.269355 -37.507147 
L 572.670838 -37.507147 
L 573.07232 -37.507147 
L 573.473803 -37.507147 
L 573.875285 -37.507147 
L 574.276768 -37.507147 
L 574.67825 -37.507147 
L 575.079732 -37.507147 
L 575.481215 -37.507147 
L 575.882697 -37.507147 
L 576.28418 -37.507147 
L 576.685662 -37.507147 
L 577.087145 -37.507147 
L 577.488627 -37.507147 
L 577.89011 -37.507147 
L 578.291592 -37.507147 
L 578.693075 -37.507147 
L 579.094557 -37.507147 
L 579.49604 -37.507147 
L 579.897522 -37.507147 
L 580.299004 -37.507147 
L 580.700487 -37.507147 
L 581.101969 -37.507147 
L 581.503452 -37.507147 
L 581.904934 -37.507147 
L 582.306417 -37.507147 
L 582.707899 -37.507147 
L 583.109382 -37.507147 
L 583.510864 -37.507147 
L 583.912347 -37.507147 
L 584.313829 -37.507147 
L 584.715312 -37.507147 
L 585.116794 -37.507147 
L 585.518276 -37.507147 
L 585.919759 -37.507147 
L 586.321241 -37.507147 
L 586.722724 -37.507147 
L 587.124206 -37.507147 
L 587.525689 -37.507147 
L 587.927171 -37.507147 
L 588.328654 -37.507147 
L 588.730136 -37.507147 
L 589.131619 -37.507147 
L 589.533101 -37.507147 
L 589.934583 -37.507147 
L 590.336066 -37.507147 
L 590.737548 -37.507147 
L 591.139031 -37.507147 
L 591.540513 -37.507147 
L 591.941996 -37.507147 
L 592.343478 -37.507147 
L 592.744961 -37.507147 
L 593.146443 -37.507147 
L 593.547926 -37.507147 
L 593.949408 -37.507147 
L 594.350891 -37.507147 
L 594.752373 -37.507147 
L 595.153855 -37.507147 
L 595.555338 -37.507147 
L 595.95682 -37.507147 
L 596.358303 -37.507147 
L 596.759785 -37.507147 
L 597.161268 -37.507147 
L 597.56275 -37.507147 
L 597.964233 -37.507147 
L 598.365715 -37.507147 
L 598.767198 -37.507147 
L 599.16868 -37.507147 
L 599.570163 -37.507147 
L 599.971645 -37.507147 
L 600.373127 -37.507147 
L 600.77461 -37.507147 
L 601.176092 -37.507147 
L 601.577575 -37.507147 
L 601.979057 -37.507147 
L 602.38054 -37.507147 
L 602.782022 -37.507147 
L 603.183505 -37.507147 
L 603.584987 -37.507147 
L 603.98647 -37.507147 
L 604.387952 -37.507147 
L 604.789434 -37.507147 
L 605.190917 -37.507147 
L 605.592399 -37.507147 
L 605.993882 -37.507147 
L 606.395364 -37.507147 
L 606.796847 -37.507147 
L 607.198329 -37.507147 
L 607.599812 -37.507147 
L 608.001294 -37.507147 
L 608.402777 -37.507147 
L 608.804259 -37.507147 
L 609.205742 -37.507147 
L 609.607224 -37.507147 
L 610.008706 -37.507147 
L 610.410189 -37.507147 
L 610.811671 -37.507147 
L 611.213154 -37.507147 
L 611.614636 -37.507147 
L 612.016119 -37.507147 
L 612.417601 -37.507147 
L 612.819084 -37.507147 
L 613.220566 -37.507147 
L 613.622049 -37.507147 
L 614.023531 -37.507147 
L 614.425014 -37.507147 
L 614.826496 -37.507147 
L 615.227978 -37.507147 
L 615.629461 -37.507147 
L 616.030943 -37.507147 
L 616.432426 -37.507147 
L 616.833908 -37.507147 
L 617.235391 -37.507147 
L 617.636873 -37.507147 
L 618.038356 -37.507147 
L 618.439838 -37.507147 
L 618.841321 -37.507147 
L 619.242803 -37.507147 
L 619.644285 -37.507147 
L 620.045768 -37.507147 
L 620.44725 -37.507147 
L 620.848733 -37.507147 
L 621.250215 -37.507147 
L 621.651698 -37.507147 
L 622.05318 -37.507147 
L 622.454663 -37.507147 
L 622.856145 -37.507147 
L 623.257628 -37.507147 
L 623.65911 -37.507147 
L 624.060593 -37.507147 
L 624.462075 -37.507147 
L 624.863557 -37.507147 
L 625.26504 -37.507147 
L 625.666522 -37.507147 
L 626.068005 -37.507147 
L 626.469487 -37.507147 
L 626.87097 -37.507147 
L 627.272452 -37.507147 
L 627.673935 -37.507147 
L 628.075417 -37.507147 
L 628.4769 -37.507147 
L 628.878382 -37.507147 
L 629.279865 -37.507147 
L 629.681347 -37.507147 
L 630.082829 -37.507147 
L 630.484312 -37.507147 
L 630.885794 -37.507147 
L 631.287277 -37.507147 
L 631.688759 -37.507147 
L 632.090242 -37.507147 
L 632.491724 -37.507147 
L 632.893207 -37.507147 
L 633.294689 -37.507147 
L 633.696172 -37.507147 
L 634.097654 -37.507147 
L 634.499136 -37.507147 
L 634.900619 -37.507147 
L 635.302101 -37.507147 
L 635.703584 -37.507147 
L 636.105066 -37.507147 
L 636.506549 -37.507147 
L 636.908031 -37.507147 
L 637.309514 -37.507147 
L 637.710996 -37.507147 
L 638.112479 -37.507147 
L 638.513961 -37.507147 
L 638.915444 -37.507147 
L 639.316926 -37.507147 
L 639.718408 -37.507147 
L 640.119891 -37.507147 
L 640.521373 -37.507147 
L 640.922856 -37.507147 
L 641.324338 -37.507147 
L 641.725821 -37.507147 
L 642.127303 -37.507147 
L 642.528786 -37.507147 
L 642.930268 -37.507147 
L 643.331751 -37.507147 
L 643.733233 -37.507147 
L 644.134716 -37.507147 
L 644.536198 -37.507147 
L 644.93768 -37.507147 
L 645.339163 -37.507147 
L 645.740645 -37.507147 
L 646.142128 -37.507147 
L 646.54361 -37.507147 
L 646.945093 -37.507147 
L 647.346575 -37.507147 
L 647.748058 -37.507147 
L 648.14954 -37.507147 
L 648.551023 -37.507147 
L 648.952505 -37.507147 
L 649.353987 -37.507147 
L 649.75547 -37.507147 
L 650.156952 -37.507147 
L 650.558435 -37.507147 
L 650.959917 -37.507147 
L 651.3614 -37.507147 
L 651.762882 -37.507147 
L 652.164365 -37.507147 
L 652.565847 -37.507147 
L 652.96733 -37.507147 
L 653.368812 -37.507147 
L 653.770295 -37.507147 
L 654.171777 -37.507147 
L 654.573259 -37.507147 
L 654.974742 -37.507147 
L 655.376224 -37.507147 
L 655.777707 -37.507147 
L 656.179189 -37.507147 
L 656.580672 -37.507147 
L 656.982154 -37.507147 
L 657.383637 -37.507147 
L 657.785119 -37.507147 
L 658.186602 -37.507147 
L 658.588084 -37.507147 
L 658.989567 -37.507147 
L 659.391049 -37.507147 
L 659.792531 -37.507147 
L 660.194014 -37.507147 
L 660.595496 -37.507147 
L 660.996979 -37.507147 
L 661.398461 -37.507147 
L 661.799944 -37.507147 
L 662.201426 -37.507147 
L 662.602909 -37.507147 
L 663.004391 -37.507147 
L 663.405874 -37.507147 
L 663.807356 -37.507147 
L 664.208838 -37.507147 
L 664.610321 -37.507147 
L 665.011803 -37.507147 
L 665.413286 -37.507147 
L 665.814768 -37.507147 
L 666.216251 -37.507147 
L 666.617733 -37.507147 
L 667.019216 -37.507147 
L 667.420698 -37.507147 
L 667.822181 -37.507147 
L 668.223663 -37.507147 
L 668.625146 -37.507147 
L 669.026628 -37.507147 
L 669.42811 -37.507147 
L 669.829593 -37.507147 
L 670.231075 -37.507147 
L 670.632558 -37.507147 
L 671.03404 -37.507147 
L 671.435523 -37.507147 
L 671.837005 -37.507147 
L 671.837005 -416.346481 
L 671.837005 -416.346481 
L 671.435523 -416.346481 
L 671.03404 -416.346481 
L 670.632558 -416.346481 
L 670.231075 -416.346481 
L 669.829593 -416.346481 
L 669.42811 -416.346481 
L 669.026628 -416.346481 
L 668.625146 -416.346481 
L 668.223663 -416.346481 
L 667.822181 -416.346481 
L 667.420698 -416.346481 
L 667.019216 -416.346481 
L 666.617733 -416.346481 
L 666.216251 -416.346481 
L 665.814768 -416.346481 
L 665.413286 -416.346481 
L 665.011803 -416.346481 
L 664.610321 -416.346481 
L 664.208838 -416.346481 
L 663.807356 -416.346481 
L 663.405874 -416.346481 
L 663.004391 -416.346481 
L 662.602909 -416.346481 
L 662.201426 -416.346481 
L 661.799944 -416.346481 
L 661.398461 -416.346481 
L 660.996979 -416.346481 
L 660.595496 -416.346481 
L 660.194014 -416.346481 
L 659.792531 -416.346481 
L 659.391049 -416.346481 
L 658.989567 -416.346481 
L 658.588084 -416.346481 
L 658.186602 -416.346481 
L 657.785119 -416.346481 
L 657.383637 -416.346481 
L 656.982154 -416.346481 
L 656.580672 -416.346481 
L 656.179189 -416.346481 
L 655.777707 -416.346481 
L 655.376224 -416.346481 
L 654.974742 -416.346481 
L 654.573259 -416.346481 
L 654.171777 -416.346481 
L 653.770295 -416.346481 
L 653.368812 -416.346481 
L 652.96733 -416.346481 
L 652.565847 -416.346481 
L 652.164365 -416.346481 
L 651.762882 -416.346481 
L 651.3614 -416.346481 
L 650.959917 -416.346481 
L 650.558435 -416.346481 
L 650.156952 -416.346481 
L 649.75547 -416.346481 
L 649.353987 -416.346481 
L 648.952505 -416.346481 
L 648.551023 -416.346481 
L 648.14954 -416.346481 
L 647.748058 -416.346481 
L 647.346575 -416.346481 
L 646.945093 -416.346481 
L 646.54361 -416.346481 
L 646.142128 -416.346481 
L 645.740645 -416.346481 
L 645.339163 -416.346481 
L 644.93768 -416.346481 
L 644.536198 -416.346481 
L 644.134716 -416.346481 
L 643.733233 -416.346481 
L 643.331751 -416.346481 
L 642.930268 -416.346481 
L 642.528786 -416.346481 
L 642.127303 -416.346481 
L 641.725821 -416.346481 
L 641.324338 -416.346481 
L 640.922856 -416.346481 
L 640.521373 -416.346481 
L 640.119891 -416.346481 
L 639.718408 -416.346481 
L 639.316926 -416.346481 
L 638.915444 -416.346481 
L 638.513961 -416.346481 
L 638.112479 -416.346481 
L 637.710996 -416.346481 
L 637.309514 -416.346481 
L 636.908031 -416.346481 
L 636.506549 -416.346481 
L 636.105066 -416.346481 
L 635.703584 -416.346481 
L 635.302101 -416.346481 
L 634.900619 -416.346481 
L 634.499136 -416.346481 
L 634.097654 -416.346481 
L 633.696172 -416.346481 
L 633.294689 -416.346481 
L 632.893207 -416.346481 
L 632.491724 -416.346481 
L 632.090242 -416.346481 
L 631.688759 -416.346481 
L 631.287277 -416.346481 
L 630.885794 -416.346481 
L 630.484312 -416.346481 
L 630.082829 -416.346481 
L 629.681347 -416.346481 
L 629.279865 -416.346481 
L 628.878382 -416.346481 
L 628.4769 -416.346481 
L 628.075417 -416.346481 
L 627.673935 -416.346481 
L 627.272452 -416.346481 
L 626.87097 -416.346481 
L 626.469487 -416.346481 
L 626.068005 -416.346481 
L 625.666522 -416.346481 
L 625.26504 -416.346481 
L 624.863557 -416.346481 
L 624.462075 -416.346481 
L 624.060593 -416.346481 
L 623.65911 -416.346481 
L 623.257628 -416.346481 
L 622.856145 -416.346481 
L 622.454663 -416.346481 
L 622.05318 -416.346481 
L 621.651698 -416.346481 
L 621.250215 -416.346481 
L 620.848733 -416.346481 
L 620.44725 -416.346481 
L 620.045768 -416.346481 
L 619.644285 -416.346481 
L 619.242803 -416.346481 
L 618.841321 -416.346481 
L 618.439838 -416.346481 
L 618.038356 -416.346481 
L 617.636873 -416.346481 
L 617.235391 -416.346481 
L 616.833908 -416.346481 
L 616.432426 -416.346481 
L 616.030943 -416.346481 
L 615.629461 -416.346481 
L 615.227978 -416.346481 
L 614.826496 -416.346481 
L 614.425014 -416.346481 
L 614.023531 -416.346481 
L 613.622049 -416.346481 
L 613.220566 -416.346481 
L 612.819084 -416.346481 
L 612.417601 -416.346481 
L 612.016119 -416.346481 
L 611.614636 -416.346481 
L 611.213154 -416.346481 
L 610.811671 -416.346481 
L 610.410189 -416.346481 
L 610.008706 -416.346481 
L 609.607224 -416.346481 
L 609.205742 -416.346481 
L 608.804259 -416.346481 
L 608.402777 -416.346481 
L 608.001294 -416.346481 
L 607.599812 -416.346481 
L 607.198329 -416.346481 
L 606.796847 -416.346481 
L 606.395364 -416.346481 
L 605.993882 -416.346481 
L 605.592399 -416.346481 
L 605.190917 -416.346481 
L 604.789434 -416.346481 
L 604.387952 -416.346481 
L 603.98647 -416.346481 
L 603.584987 -416.346481 
L 603.183505 -416.346481 
L 602.782022 -416.346481 
L 602.38054 -416.346481 
L 601.979057 -416.346481 
L 601.577575 -416.346481 
L 601.176092 -416.346481 
L 600.77461 -416.346481 
L 600.373127 -416.346481 
L 599.971645 -416.346481 
L 599.570163 -416.346481 
L 599.16868 -416.346481 
L 598.767198 -416.346481 
L 598.365715 -416.346481 
L 597.964233 -416.346481 
L 597.56275 -416.346481 
L 597.161268 -416.346481 
L 596.759785 -416.346481 
L 596.358303 -416.346481 
L 595.95682 -416.346481 
L 595.555338 -416.346481 
L 595.153855 -416.346481 
L 594.752373 -416.346481 
L 594.350891 -416.346481 
L 593.949408 -416.346481 
L 593.547926 -416.346481 
L 593.146443 -416.346481 
L 592.744961 -416.346481 
L 592.343478 -416.346481 
L 591.941996 -416.346481 
L 591.540513 -416.346481 
L 591.139031 -416.346481 
L 590.737548 -416.346481 
L 590.336066 -416.346481 
L 589.934583 -416.346481 
L 589.533101 -416.346481 
L 589.131619 -416.346481 
L 588.730136 -416.346481 
L 588.328654 -416.346481 
L 587.927171 -416.346481 
L 587.525689 -416.346481 
L 587.124206 -416.346481 
L 586.722724 -416.346481 
L 586.321241 -416.346481 
L 585.919759 -416.346481 
L 585.518276 -416.346481 
L 585.116794 -416.346481 
L 584.715312 -416.346481 
L 584.313829 -416.346481 
L 583.912347 -416.346481 
L 583.510864 -416.346481 
L 583.109382 -416.346481 
L 582.707899 -416.346481 
L 582.306417 -416.346481 
L 581.904934 -416.346481 
L 581.503452 -416.346481 
L 581.101969 -416.346481 
L 580.700487 -416.346481 
L 580.299004 -416.346481 
L 579.897522 -416.346481 
L 579.49604 -416.346481 
L 579.094557 -416.346481 
L 578.693075 -416.346481 
L 578.291592 -416.346481 
L 577.89011 -416.346481 
L 577.488627 -416.346481 
L 577.087145 -416.346481 
L 576.685662 -416.346481 
L 576.28418 -416.346481 
L 575.882697 -416.346481 
L 575.481215 -416.346481 
L 575.079732 -416.346481 
L 574.67825 -416.346481 
L 574.276768 -416.346481 
L 573.875285 -416.346481 
L 573.473803 -416.346481 
L 573.07232 -416.346481 
L 572.670838 -416.346481 
L 572.269355 -416.346481 
L 571.867873 -416.346481 
L 571.46639 -416.346481 
L 571.064908 -416.346481 
L 570.663425 -416.346481 
L 570.261943 -416.346481 
L 569.860461 -416.346481 
L 569.458978 -416.346481 
L 569.057496 -416.346481 
L 568.656013 -416.346481 
L 568.254531 -416.346481 
L 567.853048 -416.346481 
L 567.451566 -416.346481 
L 567.050083 -416.346481 
L 566.648601 -416.346481 
L 566.247118 -416.346481 
L 565.845636 -416.346481 
L 565.444153 -416.346481 
L 565.042671 -416.346481 
L 564.641189 -416.346481 
L 564.239706 -416.346481 
L 563.838224 -416.346481 
L 563.436741 -416.346481 
L 563.035259 -416.346481 
L 562.633776 -416.346481 
L 562.232294 -416.346481 
L 561.830811 -416.346481 
L 561.429329 -416.346481 
L 561.027846 -416.346481 
L 560.626364 -416.346481 
L 560.224881 -416.346481 
L 559.823399 -416.346481 
L 559.421917 -416.346481 
L 559.020434 -416.346481 
L 558.618952 -416.346481 
L 558.217469 -416.346481 
L 557.815987 -416.346481 
L 557.414504 -416.346481 
L 557.013022 -416.346481 
L 556.611539 -416.346481 
L 556.210057 -416.346481 
L 555.808574 -416.346481 
L 555.407092 -416.346481 
L 555.00561 -416.346481 
L 554.604127 -416.346481 
L 554.202645 -416.346481 
L 553.801162 -416.346481 
L 553.39968 -416.346481 
L 552.998197 -416.346481 
L 552.596715 -416.346481 
L 552.195232 -416.346481 
L 551.79375 -416.346481 
L 551.392267 -416.346481 
L 550.990785 -416.346481 
L 550.589302 -416.346481 
L 550.18782 -416.346481 
L 549.786338 -416.346481 
L 549.384855 -416.346481 
L 548.983373 -416.346481 
L 548.58189 -416.346481 
L 548.180408 -416.346481 
L 547.778925 -416.346481 
L 547.377443 -416.346481 
L 546.97596 -416.346481 
L 546.574478 -416.346481 
L 546.172995 -416.346481 
L 545.771513 -416.346481 
L 545.37003 -416.346481 
L 544.968548 -416.346481 
L 544.567066 -416.346481 
L 544.165583 -416.346481 
L 543.764101 -416.346481 
L 543.362618 -416.346481 
L 542.961136 -416.346481 
L 542.559653 -416.346481 
L 542.158171 -416.346481 
L 541.756688 -416.346481 
L 541.355206 -416.346481 
L 540.953723 -416.346481 
L 540.552241 -416.346481 
L 540.150759 -416.346481 
L 539.749276 -416.346481 
L 539.347794 -416.346481 
L 538.946311 -416.346481 
L 538.544829 -416.346481 
L 538.143346 -416.346481 
L 537.741864 -416.346481 
L 537.340381 -416.346481 
L 536.938899 -416.346481 
L 536.537416 -416.346481 
L 536.135934 -416.346481 
L 535.734451 -416.346481 
L 535.332969 -416.346481 
L 534.931487 -416.346481 
L 534.530004 -416.346481 
L 534.128522 -416.346481 
L 533.727039 -416.346481 
L 533.325557 -416.346481 
L 532.924074 -416.346481 
L 532.522592 -416.346481 
L 532.121109 -416.346481 
L 531.719627 -416.346481 
L 531.318144 -416.346481 
L 530.916662 -416.346481 
L 530.515179 -416.346481 
L 530.113697 -416.346481 
L 529.712215 -416.346481 
L 529.310732 -416.346481 
L 528.90925 -416.346481 
L 528.507767 -416.346481 
L 528.106285 -416.346481 
L 527.704802 -416.346481 
L 527.30332 -416.346481 
L 526.901837 -416.346481 
L 526.500355 -416.346481 
L 526.098872 -416.346481 
L 525.69739 -416.346481 
L 525.295908 -416.346481 
L 524.894425 -416.346481 
L 524.492943 -416.346481 
L 524.09146 -416.346481 
L 523.689978 -416.346481 
L 523.288495 -416.346481 
L 522.887013 -416.346481 
L 522.48553 -416.346481 
L 522.084048 -416.346481 
L 521.682565 -416.346481 
L 521.281083 -416.346481 
L 520.8796 -416.346481 
L 520.478118 -416.346481 
L 520.076636 -416.346481 
L 519.675153 -416.346481 
L 519.273671 -416.346481 
L 518.872188 -416.346481 
L 518.470706 -416.346481 
L 518.069223 -416.346481 
L 517.667741 -416.346481 
L 517.266258 -416.346481 
L 516.864776 -416.346481 
L 516.463293 -416.346481 
L 516.061811 -416.346481 
L 515.660329 -416.346481 
L 515.258846 -416.346481 
L 514.857364 -416.346481 
L 514.455881 -416.346481 
L 514.054399 -416.346481 
L 513.652916 -416.346481 
L 513.251434 -416.346481 
L 512.849951 -416.346481 
L 512.448469 -416.346481 
L 512.046986 -416.346481 
L 511.645504 -416.346481 
L 511.244021 -416.346481 
L 510.842539 -416.346481 
L 510.441057 -416.346481 
L 510.039574 -416.346481 
L 509.638092 -416.346481 
L 509.236609 -416.346481 
L 508.835127 -416.346481 
L 508.433644 -416.346481 
L 508.032162 -416.346481 
L 507.630679 -416.346481 
L 507.229197 -416.346481 
L 506.827714 -416.346481 
L 506.426232 -416.346481 
L 506.024749 -416.346481 
L 505.623267 -416.346481 
L 505.221785 -416.346481 
L 504.820302 -416.346481 
L 504.41882 -416.346481 
L 504.017337 -416.346481 
L 503.615855 -416.346481 
L 503.214372 -416.346481 
L 502.81289 -416.346481 
L 502.411407 -416.346481 
L 502.009925 -416.346481 
L 501.608442 -416.346481 
L 501.20696 -416.346481 
L 500.805478 -416.346481 
L 500.403995 -416.346481 
L 500.002513 -416.346481 
L 499.60103 -416.346481 
L 499.199548 -416.346481 
L 498.798065 -416.346481 
L 498.396583 -416.346481 
L 497.9951 -416.346481 
L 497.593618 -416.346481 
L 497.192135 -416.346481 
L 496.790653 -416.346481 
L 496.38917 -416.346481 
L 495.987688 -416.346481 
L 495.586206 -416.346481 
L 495.184723 -416.346481 
L 494.783241 -416.346481 
L 494.381758 -416.346481 
L 493.980276 -416.346481 
L 493.578793 -416.346481 
L 493.177311 -416.346481 
L 492.775828 -416.346481 
L 492.374346 -416.346481 
L 491.972863 -416.346481 
L 491.571381 -416.346481 
L 491.169898 -416.346481 
L 490.768416 -416.346481 
L 490.366934 -416.346481 
L 489.965451 -416.346481 
L 489.563969 -416.346481 
L 489.162486 -416.346481 
L 488.761004 -416.346481 
L 488.359521 -416.346481 
L 487.958039 -416.346481 
L 487.556556 -416.346481 
L 487.155074 -416.346481 
L 486.753591 -416.346481 
L 486.352109 -416.346481 
L 485.950627 -416.346481 
L 485.549144 -416.346481 
L 485.147662 -416.346481 
L 484.746179 -416.346481 
L 484.344697 -416.346481 
L 483.943214 -416.346481 
L 483.541732 -416.346481 
L 483.140249 -416.346481 
L 482.738767 -416.346481 
L 482.337284 -416.346481 
L 481.935802 -416.346481 
L 481.534319 -416.346481 
L 481.132837 -416.346481 
L 480.731355 -416.346481 
L 480.329872 -416.346481 
L 479.92839 -416.346481 
L 479.526907 -416.346481 
L 479.125425 -416.346481 
L 478.723942 -416.346481 
L 478.32246 -416.346481 
L 477.920977 -416.346481 
L 477.519495 -416.346481 
L 477.118012 -416.346481 
L 476.71653 -416.346481 
L 476.315047 -416.346481 
L 475.913565 -416.346481 
L 475.512083 -416.346481 
L 475.1106 -416.346481 
L 474.709118 -416.346481 
L 474.307635 -416.346481 
L 473.906153 -416.346481 
L 473.50467 -416.346481 
L 473.103188 -416.346481 
L 472.701705 -416.346481 
L 472.300223 -416.346481 
L 471.89874 -416.346481 
L 471.497258 -416.346481 
L 471.095776 -416.346481 
L 470.694293 -416.346481 
L 470.292811 -416.346481 
L 469.891328 -416.346481 
L 469.489846 -416.346481 
L 469.088363 -416.346481 
L 468.686881 -416.346481 
L 468.285398 -416.346481 
L 467.883916 -416.346481 
L 467.482433 -416.346481 
L 467.080951 -416.346481 
L 466.679468 -416.346481 
L 466.277986 -416.346481 
L 465.876504 -416.346481 
L 465.475021 -416.346481 
L 465.073539 -416.346481 
L 464.672056 -416.346481 
L 464.270574 -416.346481 
L 463.869091 -416.346481 
L 463.467609 -416.346481 
L 463.066126 -416.346481 
L 462.664644 -416.346481 
L 462.263161 -416.346481 
L 461.861679 -416.346481 
L 461.460196 -416.346481 
L 461.058714 -416.346481 
L 460.657232 -416.346481 
L 460.255749 -416.346481 
L 459.854267 -416.346481 
L 459.452784 -416.346481 
L 459.051302 -416.346481 
L 458.649819 -416.346481 
L 458.248337 -416.346481 
L 457.846854 -416.346481 
L 457.445372 -416.346481 
L 457.043889 -416.346481 
L 456.642407 -416.346481 
L 456.240925 -416.346481 
L 455.839442 -416.346481 
L 455.43796 -416.346481 
L 455.036477 -416.346481 
L 454.634995 -416.346481 
L 454.233512 -416.346481 
L 453.83203 -416.346481 
L 453.430547 -416.346481 
L 453.029065 -416.346481 
L 452.627582 -416.346481 
L 452.2261 -416.346481 
L 451.824617 -416.346481 
L 451.423135 -416.346481 
L 451.021653 -416.346481 
L 450.62017 -416.346481 
L 450.218688 -416.346481 
L 449.817205 -416.346481 
L 449.415723 -416.346481 
L 449.01424 -416.346481 
L 448.612758 -416.346481 
L 448.211275 -416.346481 
L 447.809793 -416.346481 
L 447.40831 -416.346481 
L 447.006828 -416.346481 
L 446.605345 -416.346481 
L 446.203863 -416.346481 
L 445.802381 -416.346481 
L 445.400898 -416.346481 
L 444.999416 -416.346481 
L 444.597933 -416.346481 
L 444.196451 -416.346481 
L 443.794968 -416.346481 
L 443.393486 -416.346481 
L 442.992003 -416.346481 
L 442.590521 -416.346481 
L 442.189038 -416.346481 
L 441.787556 -416.346481 
L 441.386074 -416.346481 
L 440.984591 -416.346481 
L 440.583109 -416.346481 
L 440.181626 -416.346481 
L 439.780144 -416.346481 
L 439.378661 -416.346481 
L 438.977179 -416.346481 
L 438.575696 -416.346481 
L 438.174214 -416.346481 
L 437.772731 -416.346481 
L 437.371249 -416.346481 
L 436.969766 -416.346481 
L 436.568284 -416.346481 
L 436.166802 -416.346481 
L 435.765319 -416.346481 
L 435.363837 -416.346481 
L 434.962354 -416.346481 
L 434.560872 -416.346481 
L 434.159389 -416.346481 
L 433.757907 -416.346481 
L 433.356424 -416.346481 
L 432.954942 -416.346481 
L 432.553459 -416.346481 
L 432.151977 -416.346481 
L 431.750494 -416.346481 
L 431.349012 -416.346481 
L 430.94753 -416.346481 
L 430.546047 -416.346481 
L 430.144565 -416.346481 
L 429.743082 -416.346481 
L 429.3416 -416.346481 
L 428.940117 -416.346481 
L 428.538635 -416.346481 
L 428.137152 -416.346481 
L 427.73567 -416.346481 
L 427.334187 -416.346481 
L 426.932705 -416.346481 
L 426.531223 -416.346481 
L 426.12974 -416.346481 
L 425.728258 -416.346481 
L 425.326775 -416.346481 
L 424.925293 -416.346481 
L 424.52381 -416.346481 
L 424.122328 -416.346481 
L 423.720845 -416.346481 
L 423.319363 -416.346481 
L 422.91788 -416.346481 
L 422.516398 -416.346481 
L 422.114915 -416.346481 
L 421.713433 -416.346481 
L 421.311951 -416.346481 
L 420.910468 -416.346481 
L 420.508986 -416.346481 
L 420.107503 -416.346481 
L 419.706021 -416.346481 
L 419.304538 -416.346481 
L 418.903056 -416.346481 
L 418.501573 -416.346481 
L 418.100091 -416.346481 
L 417.698608 -416.346481 
L 417.297126 -416.346481 
L 416.895643 -416.346481 
L 416.494161 -416.346481 
L 416.092679 -416.346481 
L 415.691196 -416.346481 
L 415.289714 -416.346481 
L 414.888231 -416.346481 
L 414.486749 -416.346481 
L 414.085266 -416.346481 
L 413.683784 -416.346481 
L 413.282301 -416.346481 
L 412.880819 -416.346481 
L 412.479336 -416.346481 
L 412.077854 -416.346481 
L 411.676372 -416.346481 
L 411.274889 -416.346481 
L 410.873407 -416.346481 
L 410.471924 -416.346481 
L 410.070442 -416.346481 
L 409.668959 -416.346481 
L 409.267477 -416.346481 
L 408.865994 -416.346481 
L 408.464512 -416.346481 
L 408.063029 -416.346481 
L 407.661547 -416.346481 
L 407.260064 -416.346481 
L 406.858582 -416.346481 
L 406.4571 -416.346481 
L 406.055617 -416.346481 
L 405.654135 -416.346481 
L 405.252652 -416.346481 
L 404.85117 -416.346481 
L 404.449687 -416.346481 
L 404.048205 -416.346481 
L 403.646722 -416.346481 
L 403.24524 -416.346481 
L 402.843757 -416.346481 
L 402.442275 -416.346481 
L 402.040792 -416.346481 
L 401.63931 -416.346481 
L 401.237828 -416.346481 
L 400.836345 -416.346481 
L 400.434863 -416.346481 
L 400.03338 -416.346481 
L 399.631898 -416.346481 
L 399.230415 -416.346481 
L 398.828933 -416.346481 
L 398.42745 -416.346481 
L 398.025968 -416.346481 
L 397.624485 -416.346481 
L 397.223003 -416.346481 
L 396.821521 -416.346481 
L 396.420038 -416.346481 
L 396.018556 -416.346481 
L 395.617073 -416.346481 
L 395.215591 -416.346481 
L 394.814108 -416.346481 
L 394.412626 -416.346481 
L 394.011143 -416.346481 
L 393.609661 -416.346481 
L 393.208178 -416.346481 
L 392.806696 -416.346481 
L 392.405213 -416.346481 
L 392.003731 -416.346481 
L 391.602249 -416.346481 
L 391.200766 -416.346481 
L 390.799284 -416.346481 
L 390.397801 -416.346481 
L 389.996319 -416.346481 
L 389.594836 -416.346481 
L 389.193354 -416.346481 
L 388.791871 -416.346481 
L 388.390389 -416.346481 
L 387.988906 -416.346481 
L 387.587424 -416.346481 
L 387.185941 -416.346481 
L 386.784459 -416.346481 
L 386.382977 -416.346481 
L 385.981494 -416.346481 
L 385.580012 -416.346481 
L 385.178529 -416.346481 
L 384.777047 -416.346481 
L 384.375564 -416.346481 
L 383.974082 -416.346481 
L 383.572599 -416.346481 
L 383.171117 -416.346481 
L 382.769634 -416.346481 
L 382.368152 -416.346481 
L 381.96667 -416.346481 
L 381.565187 -416.346481 
L 381.163705 -416.346481 
L 380.762222 -416.346481 
L 380.36074 -416.346481 
L 379.959257 -416.346481 
L 379.557775 -416.346481 
L 379.156292 -416.346481 
L 378.75481 -416.346481 
L 378.353327 -416.346481 
L 377.951845 -416.346481 
L 377.550362 -416.346481 
L 377.14888 -416.346481 
L 376.747398 -416.346481 
L 376.345915 -416.346481 
L 375.944433 -416.346481 
L 375.54295 -416.346481 
L 375.141468 -416.346481 
L 374.739985 -416.346481 
L 374.338503 -416.346481 
L 373.93702 -416.346481 
L 373.535538 -416.346481 
L 373.134055 -416.346481 
L 372.732573 -416.346481 
L 372.33109 -416.346481 
L 371.929608 -416.346481 
L 371.528126 -416.346481 
L 371.126643 -416.346481 
L 370.725161 -416.346481 
L 370.323678 -416.346481 
L 369.922196 -416.346481 
L 369.520713 -416.346481 
L 369.119231 -416.346481 
L 368.717748 -416.346481 
L 368.316266 -416.346481 
L 367.914783 -416.346481 
L 367.513301 -416.346481 
L 367.111819 -416.346481 
L 366.710336 -416.346481 
L 366.308854 -416.346481 
L 365.907371 -416.346481 
L 365.505889 -416.346481 
L 365.104406 -416.346481 
L 364.702924 -416.346481 
L 364.301441 -416.346481 
L 363.899959 -416.346481 
L 363.498476 -416.346481 
L 363.096994 -416.346481 
L 362.695511 -416.346481 
L 362.294029 -416.346481 
L 361.892547 -416.346481 
L 361.491064 -416.346481 
L 361.089582 -416.346481 
L 360.688099 -416.346481 
L 360.286617 -416.346481 
L 359.885134 -416.346481 
L 359.483652 -416.346481 
L 359.082169 -416.346481 
L 358.680687 -416.346481 
L 358.279204 -416.346481 
L 357.877722 -416.346481 
L 357.476239 -416.346481 
L 357.074757 -416.346481 
L 356.673275 -416.346481 
L 356.271792 -416.346481 
L 355.87031 -416.346481 
L 355.468827 -416.346481 
L 355.067345 -416.346481 
L 354.665862 -416.346481 
L 354.26438 -416.346481 
L 353.862897 -416.346481 
L 353.461415 -416.346481 
L 353.059932 -416.346481 
L 352.65845 -416.346481 
L 352.256968 -416.346481 
L 351.855485 -416.346481 
L 351.454003 -416.346481 
L 351.05252 -416.346481 
L 350.651038 -416.346481 
L 350.249555 -416.346481 
L 349.848073 -416.346481 
L 349.44659 -416.346481 
L 349.045108 -416.346481 
L 348.643625 -416.346481 
L 348.242143 -416.346481 
L 347.84066 -416.346481 
L 347.439178 -416.346481 
L 347.037696 -416.346481 
L 346.636213 -416.346481 
L 346.234731 -416.346481 
L 345.833248 -416.346481 
L 345.431766 -416.346481 
L 345.030283 -416.346481 
L 344.628801 -416.346481 
L 344.227318 -416.346481 
L 343.825836 -416.346481 
L 343.424353 -416.346481 
L 343.022871 -416.346481 
L 342.621388 -416.346481 
L 342.219906 -416.346481 
L 341.818424 -416.346481 
L 341.416941 -416.346481 
L 341.015459 -416.346481 
L 340.613976 -416.346481 
L 340.212494 -416.346481 
L 339.811011 -416.346481 
L 339.409529 -416.346481 
L 339.008046 -416.346481 
L 338.606564 -416.346481 
L 338.205081 -416.346481 
L 337.803599 -416.346481 
L 337.402117 -416.346481 
L 337.000634 -416.346481 
L 336.599152 -416.346481 
L 336.197669 -416.346481 
L 335.796187 -416.346481 
L 335.394704 -416.346481 
L 334.993222 -416.346481 
L 334.591739 -416.346481 
L 334.190257 -416.346481 
L 333.788774 -416.346481 
L 333.387292 -416.346481 
L 332.985809 -416.346481 
L 332.584327 -416.346481 
L 332.182845 -416.346481 
L 331.781362 -416.346481 
L 331.37988 -416.346481 
L 330.978397 -416.346481 
L 330.576915 -416.346481 
L 330.175432 -416.346481 
L 329.77395 -416.346481 
L 329.372467 -416.346481 
L 328.970985 -416.346481 
L 328.569502 -416.346481 
L 328.16802 -416.346481 
L 327.766537 -416.346481 
L 327.365055 -416.346481 
L 326.963573 -416.346481 
L 326.56209 -416.346481 
L 326.160608 -416.346481 
L 325.759125 -416.346481 
L 325.357643 -416.346481 
L 324.95616 -416.346481 
L 324.554678 -416.346481 
L 324.153195 -416.346481 
L 323.751713 -416.346481 
L 323.35023 -416.346481 
L 322.948748 -416.346481 
L 322.547266 -416.346481 
L 322.145783 -416.346481 
L 321.744301 -416.346481 
L 321.342818 -416.346481 
L 320.941336 -416.346481 
L 320.539853 -416.346481 
L 320.138371 -416.346481 
L 319.736888 -416.346481 
L 319.335406 -416.346481 
L 318.933923 -416.346481 
L 318.532441 -416.346481 
L 318.130958 -416.346481 
L 317.729476 -416.346481 
L 317.327994 -416.346481 
L 316.926511 -416.346481 
L 316.525029 -416.346481 
L 316.123546 -416.346481 
L 315.722064 -416.346481 
L 315.320581 -416.346481 
L 314.919099 -416.346481 
L 314.517616 -416.346481 
L 314.116134 -416.346481 
L 313.714651 -416.346481 
L 313.313169 -416.346481 
L 312.911686 -416.346481 
L 312.510204 -416.346481 
L 312.108722 -416.346481 
L 311.707239 -416.346481 
L 311.305757 -416.346481 
L 310.904274 -416.346481 
L 310.502792 -416.346481 
L 310.101309 -416.346481 
L 309.699827 -416.346481 
L 309.298344 -416.346481 
L 308.896862 -416.346481 
L 308.495379 -416.346481 
L 308.093897 -416.346481 
L 307.692415 -416.346481 
L 307.290932 -416.346481 
L 306.88945 -416.346481 
L 306.487967 -416.346481 
L 306.086485 -416.346481 
L 305.685002 -416.346481 
L 305.28352 -416.346481 
L 304.882037 -416.346481 
L 304.480555 -416.346481 
L 304.079072 -416.346481 
L 303.67759 -416.346481 
L 303.276107 -416.346481 
L 302.874625 -416.346481 
L 302.473143 -416.346481 
L 302.07166 -416.346481 
L 301.670178 -416.346481 
L 301.268695 -416.346481 
L 300.867213 -416.346481 
L 300.46573 -416.346481 
L 300.064248 -416.346481 
L 299.662765 -416.346481 
L 299.261283 -416.346481 
L 298.8598 -416.346481 
L 298.458318 -416.346481 
L 298.056835 -416.346481 
L 297.655353 -416.346481 
L 297.253871 -416.346481 
L 296.852388 -416.346481 
L 296.450906 -416.346481 
L 296.049423 -416.346481 
L 295.647941 -416.346481 
L 295.246458 -416.346481 
L 294.844976 -416.346481 
L 294.443493 -416.346481 
L 294.042011 -416.346481 
L 293.640528 -416.346481 
L 293.239046 -416.346481 
L 292.837564 -416.346481 
L 292.436081 -416.346481 
L 292.034599 -416.346481 
L 291.633116 -416.346481 
L 291.231634 -416.346481 
L 290.830151 -416.346481 
L 290.428669 -416.346481 
L 290.027186 -416.346481 
z
" style="stroke: #f59e0b; stroke-opacity: 0.08"/>
    </defs>
    <g clip-path="url(#p22d10c3ac8)">
     <use xlink:href="#mc08537a060" x="0" y="485.02641" style="fill: #f59e0b; fill-opacity: 0.08; stroke: #f59e0b; stroke-opacity: 0.08"/>
    </g>
   </g>
   <g id="matplotlib.axis_1">
    <g id="xtick_1">
     <g id="line2d_1">
      <defs>
       <path id="mc3b7274d74" d="M 0 0 
L 0 3.5 
" style="stroke: #000000; stroke-width: 0.8"/>
      </defs>
      <g>
       <use xlink:href="#mc3b7274d74" x="290.008068" y="447.519263" style="stroke: #000000; stroke-width: 0.8"/>
      </g>
     </g>
     <g id="text_1">
      <!-- $t_1$ -->
      <g transform="translate(283.888068 468.908013)">
       <text>
        <tspan style="font: italic 18px 'STIXGeneral'" x="0" y="-0.171875">t</tspan>
        <tspan style="font: 12.6px 'STIXGeneral'" x="5.003998" y="2.2093749999999996">1</tspan>
       </text>
      </g>
     </g>
    </g>
    <g id="xtick_2">
     <g id="line2d_2">
      <g>
       <use xlink:href="#mc3b7274d74" x="481.094601" y="447.519263" style="stroke: #000000; stroke-width: 0.8"/>
      </g>
     </g>
     <g id="text_2">
      <!-- $t_2$ -->
      <g transform="translate(474.974601 468.908013)">
       <text>
        <tspan style="font: italic 18px 'STIXGeneral'" x="0" y="-0.171875">t</tspan>
        <tspan style="font: 12.6px 'STIXGeneral'" x="5.003998" y="2.2093749999999996">2</tspan>
       </text>
      </g>
     </g>
    </g>
    <g id="xtick_3">
     <g id="line2d_3">
      <g>
       <use xlink:href="#mc3b7274d74" x="672.181133" y="447.519263" style="stroke: #000000; stroke-width: 0.8"/>
      </g>
     </g>
     <g id="text_3">
      <!-- $t_3$ -->
      <g transform="translate(666.061133 468.908013)">
       <text>
        <tspan style="font: italic 18px 'STIXGeneral'" x="0" y="-0.171875">t</tspan>
        <tspan style="font: 12.6px 'STIXGeneral'" x="5.003998" y="2.2093749999999996">3</tspan>
       </text>
      </g>
     </g>
    </g>
    <g id="xtick_4">
     <g id="line2d_4">
      <g>
       <use xlink:href="#mc3b7274d74" x="863.267666" y="447.519263" style="stroke: #000000; stroke-width: 0.8"/>
      </g>
     </g>
     <g id="text_4">
      <!-- $t_4$ -->
      <g transform="translate(857.147666 468.908013)">
       <text>
        <tspan style="font: italic 18px 'STIXGeneral'" x="0" y="-0.171875">t</tspan>
        <tspan style="font: 12.6px 'STIXGeneral'" x="5.003998" y="2.2093749999999996">4</tspan>
       </text>
      </g>
     </g>
    </g>
   </g>
   <g id="matplotlib.axis_2"/>
   <g id="line2d_5">
    <path d="M 7.2 98.987076 
L 981.741316 98.987076 
" clip-path="url(#p22d10c3ac8)" style="fill: none; stroke-dasharray: 2.59,1.12; stroke-dashoffset: 0; stroke: #2563eb; stroke-opacity: 0.5; stroke-width: 0.7"/>
   </g>
   <g id="line2d_6">
    <path d="M 7.2 135.355652 
L 981.741316 135.355652 
" clip-path="url(#p22d10c3ac8)" style="fill: none; stroke-dasharray: 2.59,1.12; stroke-dashoffset: 0; stroke: #16a34a; stroke-opacity: 0.5; stroke-width: 0.7"/>
   </g>
   <g id="line2d_7">
    <path d="M 7.2 220.215663 
L 981.741316 220.215663 
" clip-path="url(#p22d10c3ac8)" style="fill: none; stroke-dasharray: 2.59,1.12; stroke-dashoffset: 0; stroke: #dc2626; stroke-opacity: 0.5; stroke-width: 0.7"/>
   </g>
   <g id="line2d_8">
    <path d="M 7.2 295.98353 
L 981.741316 295.98353 
" clip-path="url(#p22d10c3ac8)" style="fill: none; stroke-dasharray: 2.59,1.12; stroke-dashoffset: 0; stroke: #2563eb; stroke-opacity: 0.5; stroke-width: 0.7"/>
   </g>
   <g id="line2d_9">
    <path d="M 7.2 347.505679 
L 981.741316 347.505679 
" clip-path="url(#p22d10c3ac8)" style="fill: none; stroke-dasharray: 2.59,1.12; stroke-dashoffset: 0; stroke: #2563eb; stroke-opacity: 0.5; stroke-width: 0.7"/>
   </g>
   <g id="line2d_10">
    <path d="M 7.2 395.997114 
L 981.741316 395.997114 
" clip-path="url(#p22d10c3ac8)" style="fill: none; stroke-dasharray: 2.59,1.12; stroke-dashoffset: 0; stroke: #16a34a; stroke-opacity: 0.5; stroke-width: 0.7"/>
   </g>
   <g id="line2d_11">
    <path d="M 7.2 417.212117 
L 981.741316 417.212117 
" clip-path="url(#p22d10c3ac8)" style="fill: none; stroke-dasharray: 2.59,1.12; stroke-dashoffset: 0; stroke: #2563eb; stroke-opacity: 0.5; stroke-width: 0.7"/>
   </g>
   <g id="line2d_12">
    <path d="M 98.921536 477.82641 
L 98.921536 8.065636 
" clip-path="url(#p22d10c3ac8)" style="fill: none; stroke-dasharray: 1,1.65; stroke-dashoffset: 0; stroke: #9ca3af"/>
   </g>
   <g id="line2d_13">
    <path d="M 290.008068 477.82641 
L 290.008068 8.065636 
" clip-path="url(#p22d10c3ac8)" style="fill: none; stroke-dasharray: 1,1.65; stroke-dashoffset: 0; stroke: #9ca3af"/>
   </g>
   <g id="line2d_14">
    <path d="M 481.094601 477.82641 
L 481.094601 8.065636 
" clip-path="url(#p22d10c3ac8)" style="fill: none; stroke-dasharray: 1,1.65; stroke-dashoffset: 0; stroke: #9ca3af"/>
   </g>
   <g id="line2d_15">
    <path d="M 672.181133 477.82641 
L 672.181133 8.065636 
" clip-path="url(#p22d10c3ac8)" style="fill: none; stroke-dasharray: 1,1.65; stroke-dashoffset: 0; stroke: #9ca3af"/>
   </g>
   <g id="line2d_16">
    <path d="M 863.267666 477.82641 
L 863.267666 8.065636 
" clip-path="url(#p22d10c3ac8)" style="fill: none; stroke-dasharray: 1,1.65; stroke-dashoffset: 0; stroke: #9ca3af"/>
   </g>
   <g id="patch_3">
    <path d="M 98.921536 477.82641 
L 98.921536 8.065636 
" style="fill: none; stroke: #000000; stroke-width: 0.8; stroke-linejoin: miter; stroke-linecap: square"/>
   </g>
   <g id="patch_4">
    <path d="M 7.2 447.519263 
L 981.741316 447.519263 
" style="fill: none; stroke: #000000; stroke-width: 0.8; stroke-linejoin: miter; stroke-linecap: square"/>
   </g>
   <g id="text_5">
    <!-- $V_{gh}$ -->
    <g style="fill: #2563eb" transform="translate(59.154613 103.378795)">
     <text>
      <tspan style="font: italic 18px 'STIXGeneral'" x="0" y="-0.25">V</tspan>
      <tspan style="font: italic 12.6px 'STIXGeneral'" x="10.998001 17.298001" y="2.1312499999999996">gh</tspan>
     </text>
    </g>
   </g>
   <g id="text_6">
    <!-- $V_{DD}$ -->
    <g style="fill: #16a34a" transform="translate(53.574613 140.312683)">
     <text>
      <tspan style="font: italic 18px 'STIXGeneral'" x="0" y="-0.25">V</tspan>
      <tspan style="font: italic 12.6px 'STIXGeneral'" x="10.998001 20.095203" y="2.1312499999999996">DD</tspan>
     </text>
    </g>
   </g>
   <g id="text_7">
    <!-- $I_L$ -->
    <g style="fill: #dc2626" transform="translate(69.774613 225.172694)">
     <text>
      <tspan style="font: italic 18px 'STIXGeneral'" x="0" y="-0.25">I</tspan>
      <tspan style="font: italic 12.6px 'STIXGeneral'" x="5.993988" y="2.1312499999999996">L</tspan>
     </text>
    </g>
   </g>
   <g id="text_8">
    <!-- $V_{gp}$ -->
    <g style="fill: #2563eb" transform="translate(59.154613 300.375249)">
     <text>
      <tspan style="font: italic 18px 'STIXGeneral'" x="0" y="-0.25">V</tspan>
      <tspan style="font: italic 12.6px 'STIXGeneral'" x="10.998001 17.298001" y="2.1312499999999996">gp</tspan>
     </text>
    </g>
   </g>
   <g id="text_9">
    <!-- $V_{th}$ -->
    <g style="fill: #2563eb" transform="translate(62.034613 352.46271)">
     <text>
      <tspan style="font: italic 18px 'STIXGeneral'" x="0" y="-0.25">V</tspan>
      <tspan style="font: italic 12.6px 'STIXGeneral'" x="10.998001 14.5008" y="2.1312499999999996">th</tspan>
     </text>
    </g>
   </g>
   <g id="text_10">
    <!-- $V_{ds(on)}$ -->
    <g style="fill: #16a34a" transform="translate(39.534613 394.687403)">
     <text>
      <tspan style="font: italic 18px 'STIXGeneral'" x="0" y="-0.25">V</tspan>
      <tspan style="font: italic 12.6px 'STIXGeneral'" x="10.998001 17.298001 26.395192 32.695192" y="2.1312499999999996">dson</tspan>
      <tspan style="font: 12.6px 'STIXGeneral'" x="22.1994 38.995192" y="2.1312499999999996">()</tspan>
     </text>
    </g>
   </g>
   <g id="text_11">
    <!-- $V_{gl}$ -->
    <g style="fill: #2563eb" transform="translate(62.034613 427.665265)">
     <text>
      <tspan style="font: italic 18px 'STIXGeneral'" x="0" y="-0.25">V</tspan>
      <tspan style="font: italic 12.6px 'STIXGeneral'" x="10.998001 17.298001" y="2.1312499999999996">gl</tspan>
     </text>
    </g>
   </g>
   <g id="text_12">
    <g id="patch_5">
     <path d="M 146.464802 67.4185 
L 242.464802 67.4185 
Q 247.264802 67.4185 247.264802 62.6185 
L 247.264802 26.5255 
Q 247.264802 21.7255 242.464802 21.7255 
L 146.464802 21.7255 
Q 141.664802 21.7255 141.664802 26.5255 
L 141.664802 62.6185 
Q 141.664802 67.4185 146.464802 67.4185 
z
" style="fill: #ffffff; stroke: #d1d5db; stroke-width: 0.8; stroke-linejoin: miter"/>
    </g>
    <text style="font: 16px 'Microsoft YaHei', 'SimHei', 'DejaVu Sans', 'Bitstream Vera Sans', 'Computer Modern Sans Serif', 'Lucida Grande', 'Verdana', 'Geneva', 'Lucid', 'Arial', 'Helvetica', 'Avant Garde', sans-serif" transform="translate(170.464802 39.3155)">阶段一</text>
    <text style="font: 16px 'Microsoft YaHei', 'SimHei', 'DejaVu Sans', 'Bitstream Vera Sans', 'Computer Modern Sans Serif', 'Lucida Grande', 'Verdana', 'Geneva', 'Lucid', 'Arial', 'Helvetica', 'Avant Garde', sans-serif" transform="translate(146.464802 58.641)">开通延迟时间</text>
   </g>
   <g id="text_13">
    <g id="patch_6">
     <path d="M 337.551334 67.4185 
L 433.551334 67.4185 
Q 438.351334 67.4185 438.351334 62.6185 
L 438.351334 26.5255 
Q 438.351334 21.7255 433.551334 21.7255 
L 337.551334 21.7255 
Q 332.751334 21.7255 332.751334 26.5255 
L 332.751334 62.6185 
Q 332.751334 67.4185 337.551334 67.4185 
z
" style="fill: #ffffff; stroke: #d1d5db; stroke-width: 0.8; stroke-linejoin: miter"/>
    </g>
    <text style="font: 16px 'Microsoft YaHei', 'SimHei', 'DejaVu Sans', 'Bitstream Vera Sans', 'Computer Modern Sans Serif', 'Lucida Grande', 'Verdana', 'Geneva', 'Lucid', 'Arial', 'Helvetica', 'Avant Garde', sans-serif" transform="translate(361.551334 39.3155)">阶段二</text>
    <text style="font: 16px 'Microsoft YaHei', 'SimHei', 'DejaVu Sans', 'Bitstream Vera Sans', 'Computer Modern Sans Serif', 'Lucida Grande', 'Verdana', 'Geneva', 'Lucid', 'Arial', 'Helvetica', 'Avant Garde', sans-serif" transform="translate(337.551334 58.641)">电流上升时间</text>
   </g>
   <g id="text_14">
    <g id="patch_7">
     <path d="M 528.637867 67.4185 
L 624.637867 67.4185 
Q 629.437867 67.4185 629.437867 62.6185 
L 629.437867 7.2 
Q 629.437867 2.4 624.637867 2.4 
L 528.637867 2.4 
Q 523.837867 2.4 523.837867 7.2 
L 523.837867 62.6185 
Q 523.837867 67.4185 528.637867 67.4185 
z
" style="fill: #ffffff; stroke: #d1d5db; stroke-width: 0.8; stroke-linejoin: miter"/>
    </g>
    <text style="font: 16px 'Microsoft YaHei', 'SimHei', 'DejaVu Sans', 'Bitstream Vera Sans', 'Computer Modern Sans Serif', 'Lucida Grande', 'Verdana', 'Geneva', 'Lucid', 'Arial', 'Helvetica', 'Avant Garde', sans-serif" transform="translate(552.637867 19.99)">阶段三</text>
    <text style="font: 16px 'Microsoft YaHei', 'SimHei', 'DejaVu Sans', 'Bitstream Vera Sans', 'Computer Modern Sans Serif', 'Lucida Grande', 'Verdana', 'Geneva', 'Lucid', 'Arial', 'Helvetica', 'Avant Garde', sans-serif" transform="translate(528.637867 39.3155)">电压下降时间</text>
    <text style="font: 16px 'Microsoft YaHei', 'SimHei', 'DejaVu Sans', 'Bitstream Vera Sans', 'Computer Modern Sans Serif', 'Lucida Grande', 'Verdana', 'Geneva', 'Lucid', 'Arial', 'Helvetica', 'Avant Garde', sans-serif" transform="translate(533.496617 58.641)">(Miller平台)</text>
   </g>
   <g id="text_15">
    <g id="patch_8">
     <path d="M 735.724399 67.4185 
L 799.724399 67.4185 
Q 804.524399 67.4185 804.524399 62.6185 
L 804.524399 26.5255 
Q 804.524399 21.7255 799.724399 21.7255 
L 735.724399 21.7255 
Q 730.924399 21.7255 730.924399 26.5255 
L 730.924399 62.6185 
Q 730.924399 67.4185 735.724399 67.4185 
z
" style="fill: #ffffff; stroke: #d1d5db; stroke-width: 0.8; stroke-linejoin: miter"/>
    </g>
    <text style="font: 16px 'Microsoft YaHei', 'SimHei', 'DejaVu Sans', 'Bitstream Vera Sans', 'Computer Modern Sans Serif', 'Lucida Grande', 'Verdana', 'Geneva', 'Lucid', 'Arial', 'Helvetica', 'Avant Garde', sans-serif" transform="translate(743.724399 39.3155)">阶段四</text>
    <text style="font: 16px 'Microsoft YaHei', 'SimHei', 'DejaVu Sans', 'Bitstream Vera Sans', 'Computer Modern Sans Serif', 'Lucida Grande', 'Verdana', 'Geneva', 'Lucid', 'Arial', 'Helvetica', 'Avant Garde', sans-serif" transform="translate(735.724399 58.641)">导通阶段</text>
   </g>
   <g id="text_16">
    <!-- $t_0$ -->
    <g transform="translate(106.564997 466.454085)">
     <text>
      <tspan style="font: italic 18px 'STIXGeneral'" x="0" y="-0.171875">t</tspan>
      <tspan style="font: 12.6px 'STIXGeneral'" x="5.003998" y="2.2093749999999996">0</tspan>
     </text>
    </g>
   </g>
   <g id="text_17">
    <!-- $V_{GS}$波形 -->
    <g style="fill: #2563eb" transform="translate(916.771895 103.944107)">
     <text>
      <tspan style="font: italic 18px 'STIXGeneral'" x="0" y="-0.015625">V</tspan>
      <tspan style="font: italic 12.6px 'STIXGeneral'" x="10.998001 20.095203" y="2.3656250000000014">GS</tspan>
      <tspan style="font: 700 18px 'Microsoft YaHei'" x="27.188953 45.188953" y="-0.015625">波形</tspan>
     </text>
    </g>
   </g>
   <g id="text_18">
    <!-- $I_D$波形 -->
    <g style="fill: #dc2626" transform="translate(916.771895 225.172694)">
     <text>
      <tspan style="font: italic 18px 'STIXGeneral'" x="0" y="-0.015625">I</tspan>
      <tspan style="font: italic 12.6px 'STIXGeneral'" x="5.993988" y="2.3656250000000014">D</tspan>
      <tspan style="font: 700 18px 'Microsoft YaHei'" x="15.88494 33.88494" y="-0.015625">波形</tspan>
     </text>
    </g>
   </g>
   <g id="text_19">
    <!-- $V_{ds}$波形 -->
    <g style="fill: #16a34a" transform="translate(916.771895 400.954145)">
     <text>
      <tspan style="font: italic 18px 'STIXGeneral'" x="0" y="-0.015625">V</tspan>
      <tspan style="font: italic 12.6px 'STIXGeneral'" x="10.998001 17.298001" y="2.3656250000000014">ds</tspan>
      <tspan style="font: 700 18px 'Microsoft YaHei'" x="22.99315 40.99315" y="-0.015625">波形</tspan>
     </text>
    </g>
   </g>
   <g id="line2d_17">
    <path d="M 98.921536 417.212117 
L 118.192694 409.189151 
L 137.463852 401.407077 
L 157.136492 393.703835 
L 176.809133 386.236629 
L 196.883256 378.852836 
L 217.358861 371.559079 
L 238.235949 364.361601 
L 259.113037 357.397942 
L 280.391607 350.533108 
L 302.07166 343.7724 
L 324.153195 337.120748 
L 346.636213 330.582711 
L 369.520713 324.162474 
L 392.806696 317.863857 
L 416.494161 311.690316 
L 440.583109 305.644945 
L 465.073539 299.730485 
L 481.132837 295.98353 
L 671.837005 295.98353 
L 672.238488 295.711421 
L 675.450347 281.058295 
L 678.662207 267.496615 
L 681.874067 254.945085 
L 685.085926 243.328463 
L 688.297786 232.577112 
L 691.509646 222.626581 
L 694.721505 213.417221 
L 697.933365 204.893826 
L 701.145225 197.005301 
L 704.357084 189.704357 
L 707.568944 182.947228 
L 710.780804 176.693408 
L 713.992663 170.905407 
L 717.204523 165.548529 
L 720.416383 160.59066 
L 723.628242 156.002082 
L 727.241585 151.247179 
L 730.854927 146.888823 
L 734.468269 142.893943 
L 738.081611 139.232225 
L 741.694953 135.875884 
L 745.308295 132.799454 
L 749.32312 129.681162 
L 753.337944 126.85045 
L 757.352769 124.280795 
L 761.769076 121.72703 
L 766.185383 119.431104 
L 771.003173 117.190004 
L 775.820962 115.194576 
L 781.040234 113.278935 
L 786.660989 111.468361 
L 792.281743 109.887161 
L 798.30398 108.414616 
L 805.129182 106.984731 
L 812.355866 105.706389 
L 820.385515 104.524182 
L 829.218129 103.462525 
L 838.853708 102.535097 
L 849.693735 101.719383 
L 862.139691 101.011327 
L 876.59306 100.415933 
L 894.258288 99.920537 
L 901.484972 99.771333 
L 901.484972 99.771333 
" clip-path="url(#p22d10c3ac8)" style="fill: none; stroke: #2563eb; stroke-width: 3; stroke-linecap: square"/>
   </g>
   <g id="line2d_18">
    <path d="M 98.921536 402.058543 
L 290.027186 402.037462 
L 303.67759 387.1471 
L 317.729476 372.150977 
L 331.781362 357.484522 
L 345.833248 343.140487 
L 359.885134 329.111785 
L 373.93702 315.391483 
L 388.390389 301.593776 
L 402.843757 288.107959 
L 417.297126 274.926982 
L 431.750494 262.043953 
L 446.203863 249.452139 
L 461.058714 236.807091 
L 475.913565 224.455724 
L 481.132837 220.215663 
L 901.484972 220.215663 
L 901.484972 220.215663 
" clip-path="url(#p22d10c3ac8)" style="fill: none; stroke: #dc2626; stroke-width: 3; stroke-linecap: square"/>
   </g>
   <g id="line2d_19">
    <path d="M 98.921536 135.355652 
L 480.731355 135.355652 
L 481.132837 135.512084 
L 485.950627 154.725773 
L 490.768416 172.970625 
L 495.184723 188.865382 
L 499.60103 203.986412 
L 504.017337 218.353022 
L 508.433644 231.984515 
L 512.849951 244.900199 
L 517.266258 257.119379 
L 521.682565 268.66136 
L 526.098872 279.545448 
L 530.515179 289.790948 
L 534.530004 298.567138 
L 538.544829 306.846029 
L 542.559653 314.642125 
L 546.574478 321.969932 
L 550.589302 328.843954 
L 554.604127 335.278695 
L 558.618952 341.28866 
L 562.633776 346.888353 
L 566.648601 352.09228 
L 570.663425 356.914944 
L 574.67825 361.37085 
L 578.693075 365.474503 
L 582.707899 369.240407 
L 586.722724 372.683066 
L 590.737548 375.816986 
L 594.752373 378.656671 
L 598.767198 381.216626 
L 602.782022 383.511354 
L 606.796847 385.555361 
L 610.811671 387.363151 
L 615.227978 389.0962 
L 619.644285 390.580283 
L 624.060593 391.834705 
L 628.878382 392.963923 
L 633.696172 393.867865 
L 638.915444 394.621987 
L 644.536198 395.20789 
L 650.959917 395.640117 
L 658.186602 395.894731 
L 667.822181 395.99402 
L 726.43862 395.997114 
L 901.484972 395.997114 
L 901.484972 395.997114 
" clip-path="url(#p22d10c3ac8)" style="fill: none; stroke: #16a34a; stroke-width: 3; stroke-linecap: square"/>
   </g>
  </g>
 </g>
 <defs>
  <clipPath id="p22d10c3ac8">
   <rect x="7.2" y="8.065636" width="974.541316" height="469.760774"/>
  </clipPath>
 </defs>
</svg>
