<?xml version="1.0" encoding="utf-8" standalone="no"?>
<!DOCTYPE svg PUBLIC "-//W3C//DTD SVG 1.1//EN"
  "http://www.w3.org/Graphics/SVG/1.1/DTD/svg11.dtd">
<svg xmlns:xlink="http://www.w3.org/1999/xlink" width="988.941316pt" height="496.117419pt" viewBox="0 0 988.941316 496.117419" xmlns="http://www.w3.org/2000/svg" version="1.1">
 <metadata>
  <rdf:RDF xmlns:dc="http://purl.org/dc/elements/1.1/" xmlns:cc="http://creativecommons.org/ns#" xmlns:rdf="http://www.w3.org/1999/02/22-rdf-syntax-ns#">
   <cc:Work>
    <dc:type rdf:resource="http://purl.org/dc/dcmitype/StillImage"/>
    <dc:date>2026-03-21T03:19:51.566917</dc:date>
    <dc:format>image/svg+xml</dc:format>
    <dc:creator>
     <cc:Agent>
      <dc:title>Matplotlib v3.8.4, https://matplotlib.org/</dc:title>
     </cc:Agent>
    </dc:creator>
   </cc:Work>
  </rdf:RDF>
 </metadata>
 <defs>
  <style type="text/css">*{stroke-linejoin: round; stroke-linecap: butt}</style>
 </defs>
 <g id="figure_1">
  <g id="patch_1">
   <path d="M 0 496.117419 
L 988.941316 496.117419 
L 988.941316 0 
L 0 0 
z
" style="fill: #ffffff"/>
  </g>
  <g id="axes_1">
   <g id="patch_2">
    <path d="M 7.2 488.917419 
L 981.741316 488.917419 
L 981.741316 7.2 
L 7.2 7.2 
z
" style="fill: #ffffff"/>
   </g>
   <g id="PolyCollection_1">
    <defs>
     <path id="m826cd6968d" d="M 290.027186 -426.760333 
L 290.027186 -38.278543 
L 290.428669 -38.278543 
L 290.830151 -38.278543 
L 291.231634 -38.278543 
L 291.633116 -38.278543 
L 292.034599 -38.278543 
L 292.436081 -38.278543 
L 292.837564 -38.278543 
L 293.239046 -38.278543 
L 293.640528 -38.278543 
L 294.042011 -38.278543 
L 294.443493 -38.278543 
L 294.844976 -38.278543 
L 295.246458 -38.278543 
L 295.647941 -38.278543 
L 296.049423 -38.278543 
L 296.450906 -38.278543 
L 296.852388 -38.278543 
L 297.253871 -38.278543 
L 297.655353 -38.278543 
L 298.056835 -38.278543 
L 298.458318 -38.278543 
L 298.8598 -38.278543 
L 299.261283 -38.278543 
L 299.662765 -38.278543 
L 300.064248 -38.278543 
L 300.46573 -38.278543 
L 300.867213 -38.278543 
L 301.268695 -38.278543 
L 301.670178 -38.278543 
L 302.07166 -38.278543 
L 302.473143 -38.278543 
L 302.874625 -38.278543 
L 303.276107 -38.278543 
L 303.67759 -38.278543 
L 304.079072 -38.278543 
L 304.480555 -38.278543 
L 304.882037 -38.278543 
L 305.28352 -38.278543 
L 305.685002 -38.278543 
L 306.086485 -38.278543 
L 306.487967 -38.278543 
L 306.88945 -38.278543 
L 307.290932 -38.278543 
L 307.692415 -38.278543 
L 308.093897 -38.278543 
L 308.495379 -38.278543 
L 308.896862 -38.278543 
L 309.298344 -38.278543 
L 309.699827 -38.278543 
L 310.101309 -38.278543 
L 310.502792 -38.278543 
L 310.904274 -38.278543 
L 311.305757 -38.278543 
L 311.707239 -38.278543 
L 312.108722 -38.278543 
L 312.510204 -38.278543 
L 312.911686 -38.278543 
L 313.313169 -38.278543 
L 313.714651 -38.278543 
L 314.116134 -38.278543 
L 314.517616 -38.278543 
L 314.919099 -38.278543 
L 315.320581 -38.278543 
L 315.722064 -38.278543 
L 316.123546 -38.278543 
L 316.525029 -38.278543 
L 316.926511 -38.278543 
L 317.327994 -38.278543 
L 317.729476 -38.278543 
L 318.130958 -38.278543 
L 318.532441 -38.278543 
L 318.933923 -38.278543 
L 319.335406 -38.278543 
L 319.736888 -38.278543 
L 320.138371 -38.278543 
L 320.539853 -38.278543 
L 320.941336 -38.278543 
L 321.342818 -38.278543 
L 321.744301 -38.278543 
L 322.145783 -38.278543 
L 322.547266 -38.278543 
L 322.948748 -38.278543 
L 323.35023 -38.278543 
L 323.751713 -38.278543 
L 324.153195 -38.278543 
L 324.554678 -38.278543 
L 324.95616 -38.278543 
L 325.357643 -38.278543 
L 325.759125 -38.278543 
L 326.160608 -38.278543 
L 326.56209 -38.278543 
L 326.963573 -38.278543 
L 327.365055 -38.278543 
L 327.766537 -38.278543 
L 328.16802 -38.278543 
L 328.569502 -38.278543 
L 328.970985 -38.278543 
L 329.372467 -38.278543 
L 329.77395 -38.278543 
L 330.175432 -38.278543 
L 330.576915 -38.278543 
L 330.978397 -38.278543 
L 331.37988 -38.278543 
L 331.781362 -38.278543 
L 332.182845 -38.278543 
L 332.584327 -38.278543 
L 332.985809 -38.278543 
L 333.387292 -38.278543 
L 333.788774 -38.278543 
L 334.190257 -38.278543 
L 334.591739 -38.278543 
L 334.993222 -38.278543 
L 335.394704 -38.278543 
L 335.796187 -38.278543 
L 336.197669 -38.278543 
L 336.599152 -38.278543 
L 337.000634 -38.278543 
L 337.402117 -38.278543 
L 337.803599 -38.278543 
L 338.205081 -38.278543 
L 338.606564 -38.278543 
L 339.008046 -38.278543 
L 339.409529 -38.278543 
L 339.811011 -38.278543 
L 340.212494 -38.278543 
L 340.613976 -38.278543 
L 341.015459 -38.278543 
L 341.416941 -38.278543 
L 341.818424 -38.278543 
L 342.219906 -38.278543 
L 342.621388 -38.278543 
L 343.022871 -38.278543 
L 343.424353 -38.278543 
L 343.825836 -38.278543 
L 344.227318 -38.278543 
L 344.628801 -38.278543 
L 345.030283 -38.278543 
L 345.431766 -38.278543 
L 345.833248 -38.278543 
L 346.234731 -38.278543 
L 346.636213 -38.278543 
L 347.037696 -38.278543 
L 347.439178 -38.278543 
L 347.84066 -38.278543 
L 348.242143 -38.278543 
L 348.643625 -38.278543 
L 349.045108 -38.278543 
L 349.44659 -38.278543 
L 349.848073 -38.278543 
L 350.249555 -38.278543 
L 350.651038 -38.278543 
L 351.05252 -38.278543 
L 351.454003 -38.278543 
L 351.855485 -38.278543 
L 352.256968 -38.278543 
L 352.65845 -38.278543 
L 353.059932 -38.278543 
L 353.461415 -38.278543 
L 353.862897 -38.278543 
L 354.26438 -38.278543 
L 354.665862 -38.278543 
L 355.067345 -38.278543 
L 355.468827 -38.278543 
L 355.87031 -38.278543 
L 356.271792 -38.278543 
L 356.673275 -38.278543 
L 357.074757 -38.278543 
L 357.476239 -38.278543 
L 357.877722 -38.278543 
L 358.279204 -38.278543 
L 358.680687 -38.278543 
L 359.082169 -38.278543 
L 359.483652 -38.278543 
L 359.885134 -38.278543 
L 360.286617 -38.278543 
L 360.688099 -38.278543 
L 361.089582 -38.278543 
L 361.491064 -38.278543 
L 361.892547 -38.278543 
L 362.294029 -38.278543 
L 362.695511 -38.278543 
L 363.096994 -38.278543 
L 363.498476 -38.278543 
L 363.899959 -38.278543 
L 364.301441 -38.278543 
L 364.702924 -38.278543 
L 365.104406 -38.278543 
L 365.505889 -38.278543 
L 365.907371 -38.278543 
L 366.308854 -38.278543 
L 366.710336 -38.278543 
L 367.111819 -38.278543 
L 367.513301 -38.278543 
L 367.914783 -38.278543 
L 368.316266 -38.278543 
L 368.717748 -38.278543 
L 369.119231 -38.278543 
L 369.520713 -38.278543 
L 369.922196 -38.278543 
L 370.323678 -38.278543 
L 370.725161 -38.278543 
L 371.126643 -38.278543 
L 371.528126 -38.278543 
L 371.929608 -38.278543 
L 372.33109 -38.278543 
L 372.732573 -38.278543 
L 373.134055 -38.278543 
L 373.535538 -38.278543 
L 373.93702 -38.278543 
L 374.338503 -38.278543 
L 374.739985 -38.278543 
L 375.141468 -38.278543 
L 375.54295 -38.278543 
L 375.944433 -38.278543 
L 376.345915 -38.278543 
L 376.747398 -38.278543 
L 377.14888 -38.278543 
L 377.550362 -38.278543 
L 377.951845 -38.278543 
L 378.353327 -38.278543 
L 378.75481 -38.278543 
L 379.156292 -38.278543 
L 379.557775 -38.278543 
L 379.959257 -38.278543 
L 380.36074 -38.278543 
L 380.762222 -38.278543 
L 381.163705 -38.278543 
L 381.565187 -38.278543 
L 381.96667 -38.278543 
L 382.368152 -38.278543 
L 382.769634 -38.278543 
L 383.171117 -38.278543 
L 383.572599 -38.278543 
L 383.974082 -38.278543 
L 384.375564 -38.278543 
L 384.777047 -38.278543 
L 385.178529 -38.278543 
L 385.580012 -38.278543 
L 385.981494 -38.278543 
L 386.382977 -38.278543 
L 386.784459 -38.278543 
L 387.185941 -38.278543 
L 387.587424 -38.278543 
L 387.988906 -38.278543 
L 388.390389 -38.278543 
L 388.791871 -38.278543 
L 389.193354 -38.278543 
L 389.594836 -38.278543 
L 389.996319 -38.278543 
L 390.397801 -38.278543 
L 390.799284 -38.278543 
L 391.200766 -38.278543 
L 391.602249 -38.278543 
L 392.003731 -38.278543 
L 392.405213 -38.278543 
L 392.806696 -38.278543 
L 393.208178 -38.278543 
L 393.609661 -38.278543 
L 394.011143 -38.278543 
L 394.412626 -38.278543 
L 394.814108 -38.278543 
L 395.215591 -38.278543 
L 395.617073 -38.278543 
L 396.018556 -38.278543 
L 396.420038 -38.278543 
L 396.821521 -38.278543 
L 397.223003 -38.278543 
L 397.624485 -38.278543 
L 398.025968 -38.278543 
L 398.42745 -38.278543 
L 398.828933 -38.278543 
L 399.230415 -38.278543 
L 399.631898 -38.278543 
L 400.03338 -38.278543 
L 400.434863 -38.278543 
L 400.836345 -38.278543 
L 401.237828 -38.278543 
L 401.63931 -38.278543 
L 402.040792 -38.278543 
L 402.442275 -38.278543 
L 402.843757 -38.278543 
L 403.24524 -38.278543 
L 403.646722 -38.278543 
L 404.048205 -38.278543 
L 404.449687 -38.278543 
L 404.85117 -38.278543 
L 405.252652 -38.278543 
L 405.654135 -38.278543 
L 406.055617 -38.278543 
L 406.4571 -38.278543 
L 406.858582 -38.278543 
L 407.260064 -38.278543 
L 407.661547 -38.278543 
L 408.063029 -38.278543 
L 408.464512 -38.278543 
L 408.865994 -38.278543 
L 409.267477 -38.278543 
L 409.668959 -38.278543 
L 410.070442 -38.278543 
L 410.471924 -38.278543 
L 410.873407 -38.278543 
L 411.274889 -38.278543 
L 411.676372 -38.278543 
L 412.077854 -38.278543 
L 412.479336 -38.278543 
L 412.880819 -38.278543 
L 413.282301 -38.278543 
L 413.683784 -38.278543 
L 414.085266 -38.278543 
L 414.486749 -38.278543 
L 414.888231 -38.278543 
L 415.289714 -38.278543 
L 415.691196 -38.278543 
L 416.092679 -38.278543 
L 416.494161 -38.278543 
L 416.895643 -38.278543 
L 417.297126 -38.278543 
L 417.698608 -38.278543 
L 418.100091 -38.278543 
L 418.501573 -38.278543 
L 418.903056 -38.278543 
L 419.304538 -38.278543 
L 419.706021 -38.278543 
L 420.107503 -38.278543 
L 420.508986 -38.278543 
L 420.910468 -38.278543 
L 421.311951 -38.278543 
L 421.713433 -38.278543 
L 422.114915 -38.278543 
L 422.516398 -38.278543 
L 422.91788 -38.278543 
L 423.319363 -38.278543 
L 423.720845 -38.278543 
L 424.122328 -38.278543 
L 424.52381 -38.278543 
L 424.925293 -38.278543 
L 425.326775 -38.278543 
L 425.728258 -38.278543 
L 426.12974 -38.278543 
L 426.531223 -38.278543 
L 426.932705 -38.278543 
L 427.334187 -38.278543 
L 427.73567 -38.278543 
L 428.137152 -38.278543 
L 428.538635 -38.278543 
L 428.940117 -38.278543 
L 429.3416 -38.278543 
L 429.743082 -38.278543 
L 430.144565 -38.278543 
L 430.546047 -38.278543 
L 430.94753 -38.278543 
L 431.349012 -38.278543 
L 431.750494 -38.278543 
L 432.151977 -38.278543 
L 432.553459 -38.278543 
L 432.954942 -38.278543 
L 433.356424 -38.278543 
L 433.757907 -38.278543 
L 434.159389 -38.278543 
L 434.560872 -38.278543 
L 434.962354 -38.278543 
L 435.363837 -38.278543 
L 435.765319 -38.278543 
L 436.166802 -38.278543 
L 436.568284 -38.278543 
L 436.969766 -38.278543 
L 437.371249 -38.278543 
L 437.772731 -38.278543 
L 438.174214 -38.278543 
L 438.575696 -38.278543 
L 438.977179 -38.278543 
L 439.378661 -38.278543 
L 439.780144 -38.278543 
L 440.181626 -38.278543 
L 440.583109 -38.278543 
L 440.984591 -38.278543 
L 441.386074 -38.278543 
L 441.787556 -38.278543 
L 442.189038 -38.278543 
L 442.590521 -38.278543 
L 442.992003 -38.278543 
L 443.393486 -38.278543 
L 443.794968 -38.278543 
L 444.196451 -38.278543 
L 444.597933 -38.278543 
L 444.999416 -38.278543 
L 445.400898 -38.278543 
L 445.802381 -38.278543 
L 446.203863 -38.278543 
L 446.605345 -38.278543 
L 447.006828 -38.278543 
L 447.40831 -38.278543 
L 447.809793 -38.278543 
L 448.211275 -38.278543 
L 448.612758 -38.278543 
L 449.01424 -38.278543 
L 449.415723 -38.278543 
L 449.817205 -38.278543 
L 450.218688 -38.278543 
L 450.62017 -38.278543 
L 451.021653 -38.278543 
L 451.423135 -38.278543 
L 451.824617 -38.278543 
L 452.2261 -38.278543 
L 452.627582 -38.278543 
L 453.029065 -38.278543 
L 453.430547 -38.278543 
L 453.83203 -38.278543 
L 454.233512 -38.278543 
L 454.634995 -38.278543 
L 455.036477 -38.278543 
L 455.43796 -38.278543 
L 455.839442 -38.278543 
L 456.240925 -38.278543 
L 456.642407 -38.278543 
L 457.043889 -38.278543 
L 457.445372 -38.278543 
L 457.846854 -38.278543 
L 458.248337 -38.278543 
L 458.649819 -38.278543 
L 459.051302 -38.278543 
L 459.452784 -38.278543 
L 459.854267 -38.278543 
L 460.255749 -38.278543 
L 460.657232 -38.278543 
L 461.058714 -38.278543 
L 461.460196 -38.278543 
L 461.861679 -38.278543 
L 462.263161 -38.278543 
L 462.664644 -38.278543 
L 463.066126 -38.278543 
L 463.467609 -38.278543 
L 463.869091 -38.278543 
L 464.270574 -38.278543 
L 464.672056 -38.278543 
L 465.073539 -38.278543 
L 465.475021 -38.278543 
L 465.876504 -38.278543 
L 466.277986 -38.278543 
L 466.679468 -38.278543 
L 467.080951 -38.278543 
L 467.482433 -38.278543 
L 467.883916 -38.278543 
L 468.285398 -38.278543 
L 468.686881 -38.278543 
L 469.088363 -38.278543 
L 469.489846 -38.278543 
L 469.891328 -38.278543 
L 470.292811 -38.278543 
L 470.694293 -38.278543 
L 471.095776 -38.278543 
L 471.497258 -38.278543 
L 471.89874 -38.278543 
L 472.300223 -38.278543 
L 472.701705 -38.278543 
L 473.103188 -38.278543 
L 473.50467 -38.278543 
L 473.906153 -38.278543 
L 474.307635 -38.278543 
L 474.709118 -38.278543 
L 475.1106 -38.278543 
L 475.512083 -38.278543 
L 475.913565 -38.278543 
L 476.315047 -38.278543 
L 476.71653 -38.278543 
L 477.118012 -38.278543 
L 477.519495 -38.278543 
L 477.920977 -38.278543 
L 478.32246 -38.278543 
L 478.723942 -38.278543 
L 479.125425 -38.278543 
L 479.526907 -38.278543 
L 479.92839 -38.278543 
L 480.329872 -38.278543 
L 480.731355 -38.278543 
L 481.132837 -38.278543 
L 481.534319 -38.278543 
L 481.935802 -38.278543 
L 482.337284 -38.278543 
L 482.738767 -38.278543 
L 483.140249 -38.278543 
L 483.541732 -38.278543 
L 483.943214 -38.278543 
L 484.344697 -38.278543 
L 484.746179 -38.278543 
L 485.147662 -38.278543 
L 485.549144 -38.278543 
L 485.950627 -38.278543 
L 486.352109 -38.278543 
L 486.753591 -38.278543 
L 487.155074 -38.278543 
L 487.556556 -38.278543 
L 487.958039 -38.278543 
L 488.359521 -38.278543 
L 488.761004 -38.278543 
L 489.162486 -38.278543 
L 489.563969 -38.278543 
L 489.965451 -38.278543 
L 490.366934 -38.278543 
L 490.768416 -38.278543 
L 491.169898 -38.278543 
L 491.571381 -38.278543 
L 491.972863 -38.278543 
L 492.374346 -38.278543 
L 492.775828 -38.278543 
L 493.177311 -38.278543 
L 493.578793 -38.278543 
L 493.980276 -38.278543 
L 494.381758 -38.278543 
L 494.783241 -38.278543 
L 495.184723 -38.278543 
L 495.586206 -38.278543 
L 495.987688 -38.278543 
L 496.38917 -38.278543 
L 496.790653 -38.278543 
L 497.192135 -38.278543 
L 497.593618 -38.278543 
L 497.9951 -38.278543 
L 498.396583 -38.278543 
L 498.798065 -38.278543 
L 499.199548 -38.278543 
L 499.60103 -38.278543 
L 500.002513 -38.278543 
L 500.403995 -38.278543 
L 500.805478 -38.278543 
L 501.20696 -38.278543 
L 501.608442 -38.278543 
L 502.009925 -38.278543 
L 502.411407 -38.278543 
L 502.81289 -38.278543 
L 503.214372 -38.278543 
L 503.615855 -38.278543 
L 504.017337 -38.278543 
L 504.41882 -38.278543 
L 504.820302 -38.278543 
L 505.221785 -38.278543 
L 505.623267 -38.278543 
L 506.024749 -38.278543 
L 506.426232 -38.278543 
L 506.827714 -38.278543 
L 507.229197 -38.278543 
L 507.630679 -38.278543 
L 508.032162 -38.278543 
L 508.433644 -38.278543 
L 508.835127 -38.278543 
L 509.236609 -38.278543 
L 509.638092 -38.278543 
L 510.039574 -38.278543 
L 510.441057 -38.278543 
L 510.842539 -38.278543 
L 511.244021 -38.278543 
L 511.645504 -38.278543 
L 512.046986 -38.278543 
L 512.448469 -38.278543 
L 512.849951 -38.278543 
L 513.251434 -38.278543 
L 513.652916 -38.278543 
L 514.054399 -38.278543 
L 514.455881 -38.278543 
L 514.857364 -38.278543 
L 515.258846 -38.278543 
L 515.660329 -38.278543 
L 516.061811 -38.278543 
L 516.463293 -38.278543 
L 516.864776 -38.278543 
L 517.266258 -38.278543 
L 517.667741 -38.278543 
L 518.069223 -38.278543 
L 518.470706 -38.278543 
L 518.872188 -38.278543 
L 519.273671 -38.278543 
L 519.675153 -38.278543 
L 520.076636 -38.278543 
L 520.478118 -38.278543 
L 520.8796 -38.278543 
L 521.281083 -38.278543 
L 521.682565 -38.278543 
L 522.084048 -38.278543 
L 522.48553 -38.278543 
L 522.887013 -38.278543 
L 523.288495 -38.278543 
L 523.689978 -38.278543 
L 524.09146 -38.278543 
L 524.492943 -38.278543 
L 524.894425 -38.278543 
L 525.295908 -38.278543 
L 525.69739 -38.278543 
L 526.098872 -38.278543 
L 526.500355 -38.278543 
L 526.901837 -38.278543 
L 527.30332 -38.278543 
L 527.704802 -38.278543 
L 528.106285 -38.278543 
L 528.507767 -38.278543 
L 528.90925 -38.278543 
L 529.310732 -38.278543 
L 529.712215 -38.278543 
L 530.113697 -38.278543 
L 530.515179 -38.278543 
L 530.916662 -38.278543 
L 531.318144 -38.278543 
L 531.719627 -38.278543 
L 532.121109 -38.278543 
L 532.522592 -38.278543 
L 532.924074 -38.278543 
L 533.325557 -38.278543 
L 533.727039 -38.278543 
L 534.128522 -38.278543 
L 534.530004 -38.278543 
L 534.931487 -38.278543 
L 535.332969 -38.278543 
L 535.734451 -38.278543 
L 536.135934 -38.278543 
L 536.537416 -38.278543 
L 536.938899 -38.278543 
L 537.340381 -38.278543 
L 537.741864 -38.278543 
L 538.143346 -38.278543 
L 538.544829 -38.278543 
L 538.946311 -38.278543 
L 539.347794 -38.278543 
L 539.749276 -38.278543 
L 540.150759 -38.278543 
L 540.552241 -38.278543 
L 540.953723 -38.278543 
L 541.355206 -38.278543 
L 541.756688 -38.278543 
L 542.158171 -38.278543 
L 542.559653 -38.278543 
L 542.961136 -38.278543 
L 543.362618 -38.278543 
L 543.764101 -38.278543 
L 544.165583 -38.278543 
L 544.567066 -38.278543 
L 544.968548 -38.278543 
L 545.37003 -38.278543 
L 545.771513 -38.278543 
L 546.172995 -38.278543 
L 546.574478 -38.278543 
L 546.97596 -38.278543 
L 547.377443 -38.278543 
L 547.778925 -38.278543 
L 548.180408 -38.278543 
L 548.58189 -38.278543 
L 548.983373 -38.278543 
L 549.384855 -38.278543 
L 549.786338 -38.278543 
L 550.18782 -38.278543 
L 550.589302 -38.278543 
L 550.990785 -38.278543 
L 551.392267 -38.278543 
L 551.79375 -38.278543 
L 552.195232 -38.278543 
L 552.596715 -38.278543 
L 552.998197 -38.278543 
L 553.39968 -38.278543 
L 553.801162 -38.278543 
L 554.202645 -38.278543 
L 554.604127 -38.278543 
L 555.00561 -38.278543 
L 555.407092 -38.278543 
L 555.808574 -38.278543 
L 556.210057 -38.278543 
L 556.611539 -38.278543 
L 557.013022 -38.278543 
L 557.414504 -38.278543 
L 557.815987 -38.278543 
L 558.217469 -38.278543 
L 558.618952 -38.278543 
L 559.020434 -38.278543 
L 559.421917 -38.278543 
L 559.823399 -38.278543 
L 560.224881 -38.278543 
L 560.626364 -38.278543 
L 561.027846 -38.278543 
L 561.429329 -38.278543 
L 561.830811 -38.278543 
L 562.232294 -38.278543 
L 562.633776 -38.278543 
L 563.035259 -38.278543 
L 563.436741 -38.278543 
L 563.838224 -38.278543 
L 564.239706 -38.278543 
L 564.641189 -38.278543 
L 565.042671 -38.278543 
L 565.444153 -38.278543 
L 565.845636 -38.278543 
L 566.247118 -38.278543 
L 566.648601 -38.278543 
L 567.050083 -38.278543 
L 567.451566 -38.278543 
L 567.853048 -38.278543 
L 568.254531 -38.278543 
L 568.656013 -38.278543 
L 569.057496 -38.278543 
L 569.458978 -38.278543 
L 569.860461 -38.278543 
L 570.261943 -38.278543 
L 570.663425 -38.278543 
L 571.064908 -38.278543 
L 571.46639 -38.278543 
L 571.867873 -38.278543 
L 572.269355 -38.278543 
L 572.670838 -38.278543 
L 573.07232 -38.278543 
L 573.473803 -38.278543 
L 573.875285 -38.278543 
L 574.276768 -38.278543 
L 574.67825 -38.278543 
L 575.079732 -38.278543 
L 575.481215 -38.278543 
L 575.882697 -38.278543 
L 576.28418 -38.278543 
L 576.685662 -38.278543 
L 577.087145 -38.278543 
L 577.488627 -38.278543 
L 577.89011 -38.278543 
L 578.291592 -38.278543 
L 578.693075 -38.278543 
L 579.094557 -38.278543 
L 579.49604 -38.278543 
L 579.897522 -38.278543 
L 580.299004 -38.278543 
L 580.700487 -38.278543 
L 581.101969 -38.278543 
L 581.503452 -38.278543 
L 581.904934 -38.278543 
L 582.306417 -38.278543 
L 582.707899 -38.278543 
L 583.109382 -38.278543 
L 583.510864 -38.278543 
L 583.912347 -38.278543 
L 584.313829 -38.278543 
L 584.715312 -38.278543 
L 585.116794 -38.278543 
L 585.518276 -38.278543 
L 585.919759 -38.278543 
L 586.321241 -38.278543 
L 586.722724 -38.278543 
L 587.124206 -38.278543 
L 587.525689 -38.278543 
L 587.927171 -38.278543 
L 588.328654 -38.278543 
L 588.730136 -38.278543 
L 589.131619 -38.278543 
L 589.533101 -38.278543 
L 589.934583 -38.278543 
L 590.336066 -38.278543 
L 590.737548 -38.278543 
L 591.139031 -38.278543 
L 591.540513 -38.278543 
L 591.941996 -38.278543 
L 592.343478 -38.278543 
L 592.744961 -38.278543 
L 593.146443 -38.278543 
L 593.547926 -38.278543 
L 593.949408 -38.278543 
L 594.350891 -38.278543 
L 594.752373 -38.278543 
L 595.153855 -38.278543 
L 595.555338 -38.278543 
L 595.95682 -38.278543 
L 596.358303 -38.278543 
L 596.759785 -38.278543 
L 597.161268 -38.278543 
L 597.56275 -38.278543 
L 597.964233 -38.278543 
L 598.365715 -38.278543 
L 598.767198 -38.278543 
L 599.16868 -38.278543 
L 599.570163 -38.278543 
L 599.971645 -38.278543 
L 600.373127 -38.278543 
L 600.77461 -38.278543 
L 601.176092 -38.278543 
L 601.577575 -38.278543 
L 601.979057 -38.278543 
L 602.38054 -38.278543 
L 602.782022 -38.278543 
L 603.183505 -38.278543 
L 603.584987 -38.278543 
L 603.98647 -38.278543 
L 604.387952 -38.278543 
L 604.789434 -38.278543 
L 605.190917 -38.278543 
L 605.592399 -38.278543 
L 605.993882 -38.278543 
L 606.395364 -38.278543 
L 606.796847 -38.278543 
L 607.198329 -38.278543 
L 607.599812 -38.278543 
L 608.001294 -38.278543 
L 608.402777 -38.278543 
L 608.804259 -38.278543 
L 609.205742 -38.278543 
L 609.607224 -38.278543 
L 610.008706 -38.278543 
L 610.410189 -38.278543 
L 610.811671 -38.278543 
L 611.213154 -38.278543 
L 611.614636 -38.278543 
L 612.016119 -38.278543 
L 612.417601 -38.278543 
L 612.819084 -38.278543 
L 613.220566 -38.278543 
L 613.622049 -38.278543 
L 614.023531 -38.278543 
L 614.425014 -38.278543 
L 614.826496 -38.278543 
L 615.227978 -38.278543 
L 615.629461 -38.278543 
L 616.030943 -38.278543 
L 616.432426 -38.278543 
L 616.833908 -38.278543 
L 617.235391 -38.278543 
L 617.636873 -38.278543 
L 618.038356 -38.278543 
L 618.439838 -38.278543 
L 618.841321 -38.278543 
L 619.242803 -38.278543 
L 619.644285 -38.278543 
L 620.045768 -38.278543 
L 620.44725 -38.278543 
L 620.848733 -38.278543 
L 621.250215 -38.278543 
L 621.651698 -38.278543 
L 622.05318 -38.278543 
L 622.454663 -38.278543 
L 622.856145 -38.278543 
L 623.257628 -38.278543 
L 623.65911 -38.278543 
L 624.060593 -38.278543 
L 624.462075 -38.278543 
L 624.863557 -38.278543 
L 625.26504 -38.278543 
L 625.666522 -38.278543 
L 626.068005 -38.278543 
L 626.469487 -38.278543 
L 626.87097 -38.278543 
L 627.272452 -38.278543 
L 627.673935 -38.278543 
L 628.075417 -38.278543 
L 628.4769 -38.278543 
L 628.878382 -38.278543 
L 629.279865 -38.278543 
L 629.681347 -38.278543 
L 630.082829 -38.278543 
L 630.484312 -38.278543 
L 630.885794 -38.278543 
L 631.287277 -38.278543 
L 631.688759 -38.278543 
L 632.090242 -38.278543 
L 632.491724 -38.278543 
L 632.893207 -38.278543 
L 633.294689 -38.278543 
L 633.696172 -38.278543 
L 634.097654 -38.278543 
L 634.499136 -38.278543 
L 634.900619 -38.278543 
L 635.302101 -38.278543 
L 635.703584 -38.278543 
L 636.105066 -38.278543 
L 636.506549 -38.278543 
L 636.908031 -38.278543 
L 637.309514 -38.278543 
L 637.710996 -38.278543 
L 638.112479 -38.278543 
L 638.513961 -38.278543 
L 638.915444 -38.278543 
L 639.316926 -38.278543 
L 639.718408 -38.278543 
L 640.119891 -38.278543 
L 640.521373 -38.278543 
L 640.922856 -38.278543 
L 641.324338 -38.278543 
L 641.725821 -38.278543 
L 642.127303 -38.278543 
L 642.528786 -38.278543 
L 642.930268 -38.278543 
L 643.331751 -38.278543 
L 643.733233 -38.278543 
L 644.134716 -38.278543 
L 644.536198 -38.278543 
L 644.93768 -38.278543 
L 645.339163 -38.278543 
L 645.740645 -38.278543 
L 646.142128 -38.278543 
L 646.54361 -38.278543 
L 646.945093 -38.278543 
L 647.346575 -38.278543 
L 647.748058 -38.278543 
L 648.14954 -38.278543 
L 648.551023 -38.278543 
L 648.952505 -38.278543 
L 649.353987 -38.278543 
L 649.75547 -38.278543 
L 650.156952 -38.278543 
L 650.558435 -38.278543 
L 650.959917 -38.278543 
L 651.3614 -38.278543 
L 651.762882 -38.278543 
L 652.164365 -38.278543 
L 652.565847 -38.278543 
L 652.96733 -38.278543 
L 653.368812 -38.278543 
L 653.770295 -38.278543 
L 654.171777 -38.278543 
L 654.573259 -38.278543 
L 654.974742 -38.278543 
L 655.376224 -38.278543 
L 655.777707 -38.278543 
L 656.179189 -38.278543 
L 656.580672 -38.278543 
L 656.982154 -38.278543 
L 657.383637 -38.278543 
L 657.785119 -38.278543 
L 658.186602 -38.278543 
L 658.588084 -38.278543 
L 658.989567 -38.278543 
L 659.391049 -38.278543 
L 659.792531 -38.278543 
L 660.194014 -38.278543 
L 660.595496 -38.278543 
L 660.996979 -38.278543 
L 661.398461 -38.278543 
L 661.799944 -38.278543 
L 662.201426 -38.278543 
L 662.602909 -38.278543 
L 663.004391 -38.278543 
L 663.405874 -38.278543 
L 663.807356 -38.278543 
L 664.208838 -38.278543 
L 664.610321 -38.278543 
L 665.011803 -38.278543 
L 665.413286 -38.278543 
L 665.814768 -38.278543 
L 666.216251 -38.278543 
L 666.617733 -38.278543 
L 667.019216 -38.278543 
L 667.420698 -38.278543 
L 667.822181 -38.278543 
L 668.223663 -38.278543 
L 668.625146 -38.278543 
L 669.026628 -38.278543 
L 669.42811 -38.278543 
L 669.829593 -38.278543 
L 670.231075 -38.278543 
L 670.632558 -38.278543 
L 671.03404 -38.278543 
L 671.435523 -38.278543 
L 671.837005 -38.278543 
L 671.837005 -426.760333 
L 671.837005 -426.760333 
L 671.435523 -426.760333 
L 671.03404 -426.760333 
L 670.632558 -426.760333 
L 670.231075 -426.760333 
L 669.829593 -426.760333 
L 669.42811 -426.760333 
L 669.026628 -426.760333 
L 668.625146 -426.760333 
L 668.223663 -426.760333 
L 667.822181 -426.760333 
L 667.420698 -426.760333 
L 667.019216 -426.760333 
L 666.617733 -426.760333 
L 666.216251 -426.760333 
L 665.814768 -426.760333 
L 665.413286 -426.760333 
L 665.011803 -426.760333 
L 664.610321 -426.760333 
L 664.208838 -426.760333 
L 663.807356 -426.760333 
L 663.405874 -426.760333 
L 663.004391 -426.760333 
L 662.602909 -426.760333 
L 662.201426 -426.760333 
L 661.799944 -426.760333 
L 661.398461 -426.760333 
L 660.996979 -426.760333 
L 660.595496 -426.760333 
L 660.194014 -426.760333 
L 659.792531 -426.760333 
L 659.391049 -426.760333 
L 658.989567 -426.760333 
L 658.588084 -426.760333 
L 658.186602 -426.760333 
L 657.785119 -426.760333 
L 657.383637 -426.760333 
L 656.982154 -426.760333 
L 656.580672 -426.760333 
L 656.179189 -426.760333 
L 655.777707 -426.760333 
L 655.376224 -426.760333 
L 654.974742 -426.760333 
L 654.573259 -426.760333 
L 654.171777 -426.760333 
L 653.770295 -426.760333 
L 653.368812 -426.760333 
L 652.96733 -426.760333 
L 652.565847 -426.760333 
L 652.164365 -426.760333 
L 651.762882 -426.760333 
L 651.3614 -426.760333 
L 650.959917 -426.760333 
L 650.558435 -426.760333 
L 650.156952 -426.760333 
L 649.75547 -426.760333 
L 649.353987 -426.760333 
L 648.952505 -426.760333 
L 648.551023 -426.760333 
L 648.14954 -426.760333 
L 647.748058 -426.760333 
L 647.346575 -426.760333 
L 646.945093 -426.760333 
L 646.54361 -426.760333 
L 646.142128 -426.760333 
L 645.740645 -426.760333 
L 645.339163 -426.760333 
L 644.93768 -426.760333 
L 644.536198 -426.760333 
L 644.134716 -426.760333 
L 643.733233 -426.760333 
L 643.331751 -426.760333 
L 642.930268 -426.760333 
L 642.528786 -426.760333 
L 642.127303 -426.760333 
L 641.725821 -426.760333 
L 641.324338 -426.760333 
L 640.922856 -426.760333 
L 640.521373 -426.760333 
L 640.119891 -426.760333 
L 639.718408 -426.760333 
L 639.316926 -426.760333 
L 638.915444 -426.760333 
L 638.513961 -426.760333 
L 638.112479 -426.760333 
L 637.710996 -426.760333 
L 637.309514 -426.760333 
L 636.908031 -426.760333 
L 636.506549 -426.760333 
L 636.105066 -426.760333 
L 635.703584 -426.760333 
L 635.302101 -426.760333 
L 634.900619 -426.760333 
L 634.499136 -426.760333 
L 634.097654 -426.760333 
L 633.696172 -426.760333 
L 633.294689 -426.760333 
L 632.893207 -426.760333 
L 632.491724 -426.760333 
L 632.090242 -426.760333 
L 631.688759 -426.760333 
L 631.287277 -426.760333 
L 630.885794 -426.760333 
L 630.484312 -426.760333 
L 630.082829 -426.760333 
L 629.681347 -426.760333 
L 629.279865 -426.760333 
L 628.878382 -426.760333 
L 628.4769 -426.760333 
L 628.075417 -426.760333 
L 627.673935 -426.760333 
L 627.272452 -426.760333 
L 626.87097 -426.760333 
L 626.469487 -426.760333 
L 626.068005 -426.760333 
L 625.666522 -426.760333 
L 625.26504 -426.760333 
L 624.863557 -426.760333 
L 624.462075 -426.760333 
L 624.060593 -426.760333 
L 623.65911 -426.760333 
L 623.257628 -426.760333 
L 622.856145 -426.760333 
L 622.454663 -426.760333 
L 622.05318 -426.760333 
L 621.651698 -426.760333 
L 621.250215 -426.760333 
L 620.848733 -426.760333 
L 620.44725 -426.760333 
L 620.045768 -426.760333 
L 619.644285 -426.760333 
L 619.242803 -426.760333 
L 618.841321 -426.760333 
L 618.439838 -426.760333 
L 618.038356 -426.760333 
L 617.636873 -426.760333 
L 617.235391 -426.760333 
L 616.833908 -426.760333 
L 616.432426 -426.760333 
L 616.030943 -426.760333 
L 615.629461 -426.760333 
L 615.227978 -426.760333 
L 614.826496 -426.760333 
L 614.425014 -426.760333 
L 614.023531 -426.760333 
L 613.622049 -426.760333 
L 613.220566 -426.760333 
L 612.819084 -426.760333 
L 612.417601 -426.760333 
L 612.016119 -426.760333 
L 611.614636 -426.760333 
L 611.213154 -426.760333 
L 610.811671 -426.760333 
L 610.410189 -426.760333 
L 610.008706 -426.760333 
L 609.607224 -426.760333 
L 609.205742 -426.760333 
L 608.804259 -426.760333 
L 608.402777 -426.760333 
L 608.001294 -426.760333 
L 607.599812 -426.760333 
L 607.198329 -426.760333 
L 606.796847 -426.760333 
L 606.395364 -426.760333 
L 605.993882 -426.760333 
L 605.592399 -426.760333 
L 605.190917 -426.760333 
L 604.789434 -426.760333 
L 604.387952 -426.760333 
L 603.98647 -426.760333 
L 603.584987 -426.760333 
L 603.183505 -426.760333 
L 602.782022 -426.760333 
L 602.38054 -426.760333 
L 601.979057 -426.760333 
L 601.577575 -426.760333 
L 601.176092 -426.760333 
L 600.77461 -426.760333 
L 600.373127 -426.760333 
L 599.971645 -426.760333 
L 599.570163 -426.760333 
L 599.16868 -426.760333 
L 598.767198 -426.760333 
L 598.365715 -426.760333 
L 597.964233 -426.760333 
L 597.56275 -426.760333 
L 597.161268 -426.760333 
L 596.759785 -426.760333 
L 596.358303 -426.760333 
L 595.95682 -426.760333 
L 595.555338 -426.760333 
L 595.153855 -426.760333 
L 594.752373 -426.760333 
L 594.350891 -426.760333 
L 593.949408 -426.760333 
L 593.547926 -426.760333 
L 593.146443 -426.760333 
L 592.744961 -426.760333 
L 592.343478 -426.760333 
L 591.941996 -426.760333 
L 591.540513 -426.760333 
L 591.139031 -426.760333 
L 590.737548 -426.760333 
L 590.336066 -426.760333 
L 589.934583 -426.760333 
L 589.533101 -426.760333 
L 589.131619 -426.760333 
L 588.730136 -426.760333 
L 588.328654 -426.760333 
L 587.927171 -426.760333 
L 587.525689 -426.760333 
L 587.124206 -426.760333 
L 586.722724 -426.760333 
L 586.321241 -426.760333 
L 585.919759 -426.760333 
L 585.518276 -426.760333 
L 585.116794 -426.760333 
L 584.715312 -426.760333 
L 584.313829 -426.760333 
L 583.912347 -426.760333 
L 583.510864 -426.760333 
L 583.109382 -426.760333 
L 582.707899 -426.760333 
L 582.306417 -426.760333 
L 581.904934 -426.760333 
L 581.503452 -426.760333 
L 581.101969 -426.760333 
L 580.700487 -426.760333 
L 580.299004 -426.760333 
L 579.897522 -426.760333 
L 579.49604 -426.760333 
L 579.094557 -426.760333 
L 578.693075 -426.760333 
L 578.291592 -426.760333 
L 577.89011 -426.760333 
L 577.488627 -426.760333 
L 577.087145 -426.760333 
L 576.685662 -426.760333 
L 576.28418 -426.760333 
L 575.882697 -426.760333 
L 575.481215 -426.760333 
L 575.079732 -426.760333 
L 574.67825 -426.760333 
L 574.276768 -426.760333 
L 573.875285 -426.760333 
L 573.473803 -426.760333 
L 573.07232 -426.760333 
L 572.670838 -426.760333 
L 572.269355 -426.760333 
L 571.867873 -426.760333 
L 571.46639 -426.760333 
L 571.064908 -426.760333 
L 570.663425 -426.760333 
L 570.261943 -426.760333 
L 569.860461 -426.760333 
L 569.458978 -426.760333 
L 569.057496 -426.760333 
L 568.656013 -426.760333 
L 568.254531 -426.760333 
L 567.853048 -426.760333 
L 567.451566 -426.760333 
L 567.050083 -426.760333 
L 566.648601 -426.760333 
L 566.247118 -426.760333 
L 565.845636 -426.760333 
L 565.444153 -426.760333 
L 565.042671 -426.760333 
L 564.641189 -426.760333 
L 564.239706 -426.760333 
L 563.838224 -426.760333 
L 563.436741 -426.760333 
L 563.035259 -426.760333 
L 562.633776 -426.760333 
L 562.232294 -426.760333 
L 561.830811 -426.760333 
L 561.429329 -426.760333 
L 561.027846 -426.760333 
L 560.626364 -426.760333 
L 560.224881 -426.760333 
L 559.823399 -426.760333 
L 559.421917 -426.760333 
L 559.020434 -426.760333 
L 558.618952 -426.760333 
L 558.217469 -426.760333 
L 557.815987 -426.760333 
L 557.414504 -426.760333 
L 557.013022 -426.760333 
L 556.611539 -426.760333 
L 556.210057 -426.760333 
L 555.808574 -426.760333 
L 555.407092 -426.760333 
L 555.00561 -426.760333 
L 554.604127 -426.760333 
L 554.202645 -426.760333 
L 553.801162 -426.760333 
L 553.39968 -426.760333 
L 552.998197 -426.760333 
L 552.596715 -426.760333 
L 552.195232 -426.760333 
L 551.79375 -426.760333 
L 551.392267 -426.760333 
L 550.990785 -426.760333 
L 550.589302 -426.760333 
L 550.18782 -426.760333 
L 549.786338 -426.760333 
L 549.384855 -426.760333 
L 548.983373 -426.760333 
L 548.58189 -426.760333 
L 548.180408 -426.760333 
L 547.778925 -426.760333 
L 547.377443 -426.760333 
L 546.97596 -426.760333 
L 546.574478 -426.760333 
L 546.172995 -426.760333 
L 545.771513 -426.760333 
L 545.37003 -426.760333 
L 544.968548 -426.760333 
L 544.567066 -426.760333 
L 544.165583 -426.760333 
L 543.764101 -426.760333 
L 543.362618 -426.760333 
L 542.961136 -426.760333 
L 542.559653 -426.760333 
L 542.158171 -426.760333 
L 541.756688 -426.760333 
L 541.355206 -426.760333 
L 540.953723 -426.760333 
L 540.552241 -426.760333 
L 540.150759 -426.760333 
L 539.749276 -426.760333 
L 539.347794 -426.760333 
L 538.946311 -426.760333 
L 538.544829 -426.760333 
L 538.143346 -426.760333 
L 537.741864 -426.760333 
L 537.340381 -426.760333 
L 536.938899 -426.760333 
L 536.537416 -426.760333 
L 536.135934 -426.760333 
L 535.734451 -426.760333 
L 535.332969 -426.760333 
L 534.931487 -426.760333 
L 534.530004 -426.760333 
L 534.128522 -426.760333 
L 533.727039 -426.760333 
L 533.325557 -426.760333 
L 532.924074 -426.760333 
L 532.522592 -426.760333 
L 532.121109 -426.760333 
L 531.719627 -426.760333 
L 531.318144 -426.760333 
L 530.916662 -426.760333 
L 530.515179 -426.760333 
L 530.113697 -426.760333 
L 529.712215 -426.760333 
L 529.310732 -426.760333 
L 528.90925 -426.760333 
L 528.507767 -426.760333 
L 528.106285 -426.760333 
L 527.704802 -426.760333 
L 527.30332 -426.760333 
L 526.901837 -426.760333 
L 526.500355 -426.760333 
L 526.098872 -426.760333 
L 525.69739 -426.760333 
L 525.295908 -426.760333 
L 524.894425 -426.760333 
L 524.492943 -426.760333 
L 524.09146 -426.760333 
L 523.689978 -426.760333 
L 523.288495 -426.760333 
L 522.887013 -426.760333 
L 522.48553 -426.760333 
L 522.084048 -426.760333 
L 521.682565 -426.760333 
L 521.281083 -426.760333 
L 520.8796 -426.760333 
L 520.478118 -426.760333 
L 520.076636 -426.760333 
L 519.675153 -426.760333 
L 519.273671 -426.760333 
L 518.872188 -426.760333 
L 518.470706 -426.760333 
L 518.069223 -426.760333 
L 517.667741 -426.760333 
L 517.266258 -426.760333 
L 516.864776 -426.760333 
L 516.463293 -426.760333 
L 516.061811 -426.760333 
L 515.660329 -426.760333 
L 515.258846 -426.760333 
L 514.857364 -426.760333 
L 514.455881 -426.760333 
L 514.054399 -426.760333 
L 513.652916 -426.760333 
L 513.251434 -426.760333 
L 512.849951 -426.760333 
L 512.448469 -426.760333 
L 512.046986 -426.760333 
L 511.645504 -426.760333 
L 511.244021 -426.760333 
L 510.842539 -426.760333 
L 510.441057 -426.760333 
L 510.039574 -426.760333 
L 509.638092 -426.760333 
L 509.236609 -426.760333 
L 508.835127 -426.760333 
L 508.433644 -426.760333 
L 508.032162 -426.760333 
L 507.630679 -426.760333 
L 507.229197 -426.760333 
L 506.827714 -426.760333 
L 506.426232 -426.760333 
L 506.024749 -426.760333 
L 505.623267 -426.760333 
L 505.221785 -426.760333 
L 504.820302 -426.760333 
L 504.41882 -426.760333 
L 504.017337 -426.760333 
L 503.615855 -426.760333 
L 503.214372 -426.760333 
L 502.81289 -426.760333 
L 502.411407 -426.760333 
L 502.009925 -426.760333 
L 501.608442 -426.760333 
L 501.20696 -426.760333 
L 500.805478 -426.760333 
L 500.403995 -426.760333 
L 500.002513 -426.760333 
L 499.60103 -426.760333 
L 499.199548 -426.760333 
L 498.798065 -426.760333 
L 498.396583 -426.760333 
L 497.9951 -426.760333 
L 497.593618 -426.760333 
L 497.192135 -426.760333 
L 496.790653 -426.760333 
L 496.38917 -426.760333 
L 495.987688 -426.760333 
L 495.586206 -426.760333 
L 495.184723 -426.760333 
L 494.783241 -426.760333 
L 494.381758 -426.760333 
L 493.980276 -426.760333 
L 493.578793 -426.760333 
L 493.177311 -426.760333 
L 492.775828 -426.760333 
L 492.374346 -426.760333 
L 491.972863 -426.760333 
L 491.571381 -426.760333 
L 491.169898 -426.760333 
L 490.768416 -426.760333 
L 490.366934 -426.760333 
L 489.965451 -426.760333 
L 489.563969 -426.760333 
L 489.162486 -426.760333 
L 488.761004 -426.760333 
L 488.359521 -426.760333 
L 487.958039 -426.760333 
L 487.556556 -426.760333 
L 487.155074 -426.760333 
L 486.753591 -426.760333 
L 486.352109 -426.760333 
L 485.950627 -426.760333 
L 485.549144 -426.760333 
L 485.147662 -426.760333 
L 484.746179 -426.760333 
L 484.344697 -426.760333 
L 483.943214 -426.760333 
L 483.541732 -426.760333 
L 483.140249 -426.760333 
L 482.738767 -426.760333 
L 482.337284 -426.760333 
L 481.935802 -426.760333 
L 481.534319 -426.760333 
L 481.132837 -426.760333 
L 480.731355 -426.760333 
L 480.329872 -426.760333 
L 479.92839 -426.760333 
L 479.526907 -426.760333 
L 479.125425 -426.760333 
L 478.723942 -426.760333 
L 478.32246 -426.760333 
L 477.920977 -426.760333 
L 477.519495 -426.760333 
L 477.118012 -426.760333 
L 476.71653 -426.760333 
L 476.315047 -426.760333 
L 475.913565 -426.760333 
L 475.512083 -426.760333 
L 475.1106 -426.760333 
L 474.709118 -426.760333 
L 474.307635 -426.760333 
L 473.906153 -426.760333 
L 473.50467 -426.760333 
L 473.103188 -426.760333 
L 472.701705 -426.760333 
L 472.300223 -426.760333 
L 471.89874 -426.760333 
L 471.497258 -426.760333 
L 471.095776 -426.760333 
L 470.694293 -426.760333 
L 470.292811 -426.760333 
L 469.891328 -426.760333 
L 469.489846 -426.760333 
L 469.088363 -426.760333 
L 468.686881 -426.760333 
L 468.285398 -426.760333 
L 467.883916 -426.760333 
L 467.482433 -426.760333 
L 467.080951 -426.760333 
L 466.679468 -426.760333 
L 466.277986 -426.760333 
L 465.876504 -426.760333 
L 465.475021 -426.760333 
L 465.073539 -426.760333 
L 464.672056 -426.760333 
L 464.270574 -426.760333 
L 463.869091 -426.760333 
L 463.467609 -426.760333 
L 463.066126 -426.760333 
L 462.664644 -426.760333 
L 462.263161 -426.760333 
L 461.861679 -426.760333 
L 461.460196 -426.760333 
L 461.058714 -426.760333 
L 460.657232 -426.760333 
L 460.255749 -426.760333 
L 459.854267 -426.760333 
L 459.452784 -426.760333 
L 459.051302 -426.760333 
L 458.649819 -426.760333 
L 458.248337 -426.760333 
L 457.846854 -426.760333 
L 457.445372 -426.760333 
L 457.043889 -426.760333 
L 456.642407 -426.760333 
L 456.240925 -426.760333 
L 455.839442 -426.760333 
L 455.43796 -426.760333 
L 455.036477 -426.760333 
L 454.634995 -426.760333 
L 454.233512 -426.760333 
L 453.83203 -426.760333 
L 453.430547 -426.760333 
L 453.029065 -426.760333 
L 452.627582 -426.760333 
L 452.2261 -426.760333 
L 451.824617 -426.760333 
L 451.423135 -426.760333 
L 451.021653 -426.760333 
L 450.62017 -426.760333 
L 450.218688 -426.760333 
L 449.817205 -426.760333 
L 449.415723 -426.760333 
L 449.01424 -426.760333 
L 448.612758 -426.760333 
L 448.211275 -426.760333 
L 447.809793 -426.760333 
L 447.40831 -426.760333 
L 447.006828 -426.760333 
L 446.605345 -426.760333 
L 446.203863 -426.760333 
L 445.802381 -426.760333 
L 445.400898 -426.760333 
L 444.999416 -426.760333 
L 444.597933 -426.760333 
L 444.196451 -426.760333 
L 443.794968 -426.760333 
L 443.393486 -426.760333 
L 442.992003 -426.760333 
L 442.590521 -426.760333 
L 442.189038 -426.760333 
L 441.787556 -426.760333 
L 441.386074 -426.760333 
L 440.984591 -426.760333 
L 440.583109 -426.760333 
L 440.181626 -426.760333 
L 439.780144 -426.760333 
L 439.378661 -426.760333 
L 438.977179 -426.760333 
L 438.575696 -426.760333 
L 438.174214 -426.760333 
L 437.772731 -426.760333 
L 437.371249 -426.760333 
L 436.969766 -426.760333 
L 436.568284 -426.760333 
L 436.166802 -426.760333 
L 435.765319 -426.760333 
L 435.363837 -426.760333 
L 434.962354 -426.760333 
L 434.560872 -426.760333 
L 434.159389 -426.760333 
L 433.757907 -426.760333 
L 433.356424 -426.760333 
L 432.954942 -426.760333 
L 432.553459 -426.760333 
L 432.151977 -426.760333 
L 431.750494 -426.760333 
L 431.349012 -426.760333 
L 430.94753 -426.760333 
L 430.546047 -426.760333 
L 430.144565 -426.760333 
L 429.743082 -426.760333 
L 429.3416 -426.760333 
L 428.940117 -426.760333 
L 428.538635 -426.760333 
L 428.137152 -426.760333 
L 427.73567 -426.760333 
L 427.334187 -426.760333 
L 426.932705 -426.760333 
L 426.531223 -426.760333 
L 426.12974 -426.760333 
L 425.728258 -426.760333 
L 425.326775 -426.760333 
L 424.925293 -426.760333 
L 424.52381 -426.760333 
L 424.122328 -426.760333 
L 423.720845 -426.760333 
L 423.319363 -426.760333 
L 422.91788 -426.760333 
L 422.516398 -426.760333 
L 422.114915 -426.760333 
L 421.713433 -426.760333 
L 421.311951 -426.760333 
L 420.910468 -426.760333 
L 420.508986 -426.760333 
L 420.107503 -426.760333 
L 419.706021 -426.760333 
L 419.304538 -426.760333 
L 418.903056 -426.760333 
L 418.501573 -426.760333 
L 418.100091 -426.760333 
L 417.698608 -426.760333 
L 417.297126 -426.760333 
L 416.895643 -426.760333 
L 416.494161 -426.760333 
L 416.092679 -426.760333 
L 415.691196 -426.760333 
L 415.289714 -426.760333 
L 414.888231 -426.760333 
L 414.486749 -426.760333 
L 414.085266 -426.760333 
L 413.683784 -426.760333 
L 413.282301 -426.760333 
L 412.880819 -426.760333 
L 412.479336 -426.760333 
L 412.077854 -426.760333 
L 411.676372 -426.760333 
L 411.274889 -426.760333 
L 410.873407 -426.760333 
L 410.471924 -426.760333 
L 410.070442 -426.760333 
L 409.668959 -426.760333 
L 409.267477 -426.760333 
L 408.865994 -426.760333 
L 408.464512 -426.760333 
L 408.063029 -426.760333 
L 407.661547 -426.760333 
L 407.260064 -426.760333 
L 406.858582 -426.760333 
L 406.4571 -426.760333 
L 406.055617 -426.760333 
L 405.654135 -426.760333 
L 405.252652 -426.760333 
L 404.85117 -426.760333 
L 404.449687 -426.760333 
L 404.048205 -426.760333 
L 403.646722 -426.760333 
L 403.24524 -426.760333 
L 402.843757 -426.760333 
L 402.442275 -426.760333 
L 402.040792 -426.760333 
L 401.63931 -426.760333 
L 401.237828 -426.760333 
L 400.836345 -426.760333 
L 400.434863 -426.760333 
L 400.03338 -426.760333 
L 399.631898 -426.760333 
L 399.230415 -426.760333 
L 398.828933 -426.760333 
L 398.42745 -426.760333 
L 398.025968 -426.760333 
L 397.624485 -426.760333 
L 397.223003 -426.760333 
L 396.821521 -426.760333 
L 396.420038 -426.760333 
L 396.018556 -426.760333 
L 395.617073 -426.760333 
L 395.215591 -426.760333 
L 394.814108 -426.760333 
L 394.412626 -426.760333 
L 394.011143 -426.760333 
L 393.609661 -426.760333 
L 393.208178 -426.760333 
L 392.806696 -426.760333 
L 392.405213 -426.760333 
L 392.003731 -426.760333 
L 391.602249 -426.760333 
L 391.200766 -426.760333 
L 390.799284 -426.760333 
L 390.397801 -426.760333 
L 389.996319 -426.760333 
L 389.594836 -426.760333 
L 389.193354 -426.760333 
L 388.791871 -426.760333 
L 388.390389 -426.760333 
L 387.988906 -426.760333 
L 387.587424 -426.760333 
L 387.185941 -426.760333 
L 386.784459 -426.760333 
L 386.382977 -426.760333 
L 385.981494 -426.760333 
L 385.580012 -426.760333 
L 385.178529 -426.760333 
L 384.777047 -426.760333 
L 384.375564 -426.760333 
L 383.974082 -426.760333 
L 383.572599 -426.760333 
L 383.171117 -426.760333 
L 382.769634 -426.760333 
L 382.368152 -426.760333 
L 381.96667 -426.760333 
L 381.565187 -426.760333 
L 381.163705 -426.760333 
L 380.762222 -426.760333 
L 380.36074 -426.760333 
L 379.959257 -426.760333 
L 379.557775 -426.760333 
L 379.156292 -426.760333 
L 378.75481 -426.760333 
L 378.353327 -426.760333 
L 377.951845 -426.760333 
L 377.550362 -426.760333 
L 377.14888 -426.760333 
L 376.747398 -426.760333 
L 376.345915 -426.760333 
L 375.944433 -426.760333 
L 375.54295 -426.760333 
L 375.141468 -426.760333 
L 374.739985 -426.760333 
L 374.338503 -426.760333 
L 373.93702 -426.760333 
L 373.535538 -426.760333 
L 373.134055 -426.760333 
L 372.732573 -426.760333 
L 372.33109 -426.760333 
L 371.929608 -426.760333 
L 371.528126 -426.760333 
L 371.126643 -426.760333 
L 370.725161 -426.760333 
L 370.323678 -426.760333 
L 369.922196 -426.760333 
L 369.520713 -426.760333 
L 369.119231 -426.760333 
L 368.717748 -426.760333 
L 368.316266 -426.760333 
L 367.914783 -426.760333 
L 367.513301 -426.760333 
L 367.111819 -426.760333 
L 366.710336 -426.760333 
L 366.308854 -426.760333 
L 365.907371 -426.760333 
L 365.505889 -426.760333 
L 365.104406 -426.760333 
L 364.702924 -426.760333 
L 364.301441 -426.760333 
L 363.899959 -426.760333 
L 363.498476 -426.760333 
L 363.096994 -426.760333 
L 362.695511 -426.760333 
L 362.294029 -426.760333 
L 361.892547 -426.760333 
L 361.491064 -426.760333 
L 361.089582 -426.760333 
L 360.688099 -426.760333 
L 360.286617 -426.760333 
L 359.885134 -426.760333 
L 359.483652 -426.760333 
L 359.082169 -426.760333 
L 358.680687 -426.760333 
L 358.279204 -426.760333 
L 357.877722 -426.760333 
L 357.476239 -426.760333 
L 357.074757 -426.760333 
L 356.673275 -426.760333 
L 356.271792 -426.760333 
L 355.87031 -426.760333 
L 355.468827 -426.760333 
L 355.067345 -426.760333 
L 354.665862 -426.760333 
L 354.26438 -426.760333 
L 353.862897 -426.760333 
L 353.461415 -426.760333 
L 353.059932 -426.760333 
L 352.65845 -426.760333 
L 352.256968 -426.760333 
L 351.855485 -426.760333 
L 351.454003 -426.760333 
L 351.05252 -426.760333 
L 350.651038 -426.760333 
L 350.249555 -426.760333 
L 349.848073 -426.760333 
L 349.44659 -426.760333 
L 349.045108 -426.760333 
L 348.643625 -426.760333 
L 348.242143 -426.760333 
L 347.84066 -426.760333 
L 347.439178 -426.760333 
L 347.037696 -426.760333 
L 346.636213 -426.760333 
L 346.234731 -426.760333 
L 345.833248 -426.760333 
L 345.431766 -426.760333 
L 345.030283 -426.760333 
L 344.628801 -426.760333 
L 344.227318 -426.760333 
L 343.825836 -426.760333 
L 343.424353 -426.760333 
L 343.022871 -426.760333 
L 342.621388 -426.760333 
L 342.219906 -426.760333 
L 341.818424 -426.760333 
L 341.416941 -426.760333 
L 341.015459 -426.760333 
L 340.613976 -426.760333 
L 340.212494 -426.760333 
L 339.811011 -426.760333 
L 339.409529 -426.760333 
L 339.008046 -426.760333 
L 338.606564 -426.760333 
L 338.205081 -426.760333 
L 337.803599 -426.760333 
L 337.402117 -426.760333 
L 337.000634 -426.760333 
L 336.599152 -426.760333 
L 336.197669 -426.760333 
L 335.796187 -426.760333 
L 335.394704 -426.760333 
L 334.993222 -426.760333 
L 334.591739 -426.760333 
L 334.190257 -426.760333 
L 333.788774 -426.760333 
L 333.387292 -426.760333 
L 332.985809 -426.760333 
L 332.584327 -426.760333 
L 332.182845 -426.760333 
L 331.781362 -426.760333 
L 331.37988 -426.760333 
L 330.978397 -426.760333 
L 330.576915 -426.760333 
L 330.175432 -426.760333 
L 329.77395 -426.760333 
L 329.372467 -426.760333 
L 328.970985 -426.760333 
L 328.569502 -426.760333 
L 328.16802 -426.760333 
L 327.766537 -426.760333 
L 327.365055 -426.760333 
L 326.963573 -426.760333 
L 326.56209 -426.760333 
L 326.160608 -426.760333 
L 325.759125 -426.760333 
L 325.357643 -426.760333 
L 324.95616 -426.760333 
L 324.554678 -426.760333 
L 324.153195 -426.760333 
L 323.751713 -426.760333 
L 323.35023 -426.760333 
L 322.948748 -426.760333 
L 322.547266 -426.760333 
L 322.145783 -426.760333 
L 321.744301 -426.760333 
L 321.342818 -426.760333 
L 320.941336 -426.760333 
L 320.539853 -426.760333 
L 320.138371 -426.760333 
L 319.736888 -426.760333 
L 319.335406 -426.760333 
L 318.933923 -426.760333 
L 318.532441 -426.760333 
L 318.130958 -426.760333 
L 317.729476 -426.760333 
L 317.327994 -426.760333 
L 316.926511 -426.760333 
L 316.525029 -426.760333 
L 316.123546 -426.760333 
L 315.722064 -426.760333 
L 315.320581 -426.760333 
L 314.919099 -426.760333 
L 314.517616 -426.760333 
L 314.116134 -426.760333 
L 313.714651 -426.760333 
L 313.313169 -426.760333 
L 312.911686 -426.760333 
L 312.510204 -426.760333 
L 312.108722 -426.760333 
L 311.707239 -426.760333 
L 311.305757 -426.760333 
L 310.904274 -426.760333 
L 310.502792 -426.760333 
L 310.101309 -426.760333 
L 309.699827 -426.760333 
L 309.298344 -426.760333 
L 308.896862 -426.760333 
L 308.495379 -426.760333 
L 308.093897 -426.760333 
L 307.692415 -426.760333 
L 307.290932 -426.760333 
L 306.88945 -426.760333 
L 306.487967 -426.760333 
L 306.086485 -426.760333 
L 305.685002 -426.760333 
L 305.28352 -426.760333 
L 304.882037 -426.760333 
L 304.480555 -426.760333 
L 304.079072 -426.760333 
L 303.67759 -426.760333 
L 303.276107 -426.760333 
L 302.874625 -426.760333 
L 302.473143 -426.760333 
L 302.07166 -426.760333 
L 301.670178 -426.760333 
L 301.268695 -426.760333 
L 300.867213 -426.760333 
L 300.46573 -426.760333 
L 300.064248 -426.760333 
L 299.662765 -426.760333 
L 299.261283 -426.760333 
L 298.8598 -426.760333 
L 298.458318 -426.760333 
L 298.056835 -426.760333 
L 297.655353 -426.760333 
L 297.253871 -426.760333 
L 296.852388 -426.760333 
L 296.450906 -426.760333 
L 296.049423 -426.760333 
L 295.647941 -426.760333 
L 295.246458 -426.760333 
L 294.844976 -426.760333 
L 294.443493 -426.760333 
L 294.042011 -426.760333 
L 293.640528 -426.760333 
L 293.239046 -426.760333 
L 292.837564 -426.760333 
L 292.436081 -426.760333 
L 292.034599 -426.760333 
L 291.633116 -426.760333 
L 291.231634 -426.760333 
L 290.830151 -426.760333 
L 290.428669 -426.760333 
L 290.027186 -426.760333 
z
" style="stroke: #f59e0b; stroke-opacity: 0.08"/>
    </defs>
    <g clip-path="url(#p6a931a7581)">
     <use xlink:href="#m826cd6968d" x="0" y="496.117419" style="fill: #f59e0b; fill-opacity: 0.08; stroke: #f59e0b; stroke-opacity: 0.08"/>
    </g>
   </g>
   <g id="matplotlib.axis_1">
    <g id="xtick_1">
     <g id="line2d_1">
      <defs>
       <path id="m80c9856717" d="M 0 0 
L 0 3.5 
" style="stroke: #000000; stroke-width: 0.8"/>
      </defs>
      <g>
       <use xlink:href="#m80c9856717" x="290.008068" y="457.838876" style="stroke: #000000; stroke-width: 0.8"/>
      </g>
     </g>
     <g id="text_1">
      <!-- $t_1$ -->
      <g transform="translate(283.888068 479.227626)">
       <text>
        <tspan style="font: italic 18px 'STIXGeneral'" x="0" y="-0.171875">t</tspan>
        <tspan style="font: 12.6px 'STIXGeneral'" x="5.003998" y="2.2093749999999996">1</tspan>
       </text>
      </g>
     </g>
    </g>
    <g id="xtick_2">
     <g id="line2d_2">
      <g>
       <use xlink:href="#m80c9856717" x="481.094601" y="457.838876" style="stroke: #000000; stroke-width: 0.8"/>
      </g>
     </g>
     <g id="text_2">
      <!-- $t_2$ -->
      <g transform="translate(474.974601 479.227626)">
       <text>
        <tspan style="font: italic 18px 'STIXGeneral'" x="0" y="-0.171875">t</tspan>
        <tspan style="font: 12.6px 'STIXGeneral'" x="5.003998" y="2.2093749999999996">2</tspan>
       </text>
      </g>
     </g>
    </g>
    <g id="xtick_3">
     <g id="line2d_3">
      <g>
       <use xlink:href="#m80c9856717" x="672.181133" y="457.838876" style="stroke: #000000; stroke-width: 0.8"/>
      </g>
     </g>
     <g id="text_3">
      <!-- $t_3$ -->
      <g transform="translate(666.061133 479.227626)">
       <text>
        <tspan style="font: italic 18px 'STIXGeneral'" x="0" y="-0.171875">t</tspan>
        <tspan style="font: 12.6px 'STIXGeneral'" x="5.003998" y="2.2093749999999996">3</tspan>
       </text>
      </g>
     </g>
    </g>
    <g id="xtick_4">
     <g id="line2d_4">
      <g>
       <use xlink:href="#m80c9856717" x="863.267666" y="457.838876" style="stroke: #000000; stroke-width: 0.8"/>
      </g>
     </g>
     <g id="text_4">
      <!-- $t_4$ -->
      <g transform="translate(857.147666 479.227626)">
       <text>
        <tspan style="font: italic 18px 'STIXGeneral'" x="0" y="-0.171875">t</tspan>
        <tspan style="font: 12.6px 'STIXGeneral'" x="5.003998" y="2.2093749999999996">4</tspan>
       </text>
      </g>
     </g>
    </g>
   </g>
   <g id="matplotlib.axis_2"/>
   <g id="line2d_5">
    <path d="M 7.2 100.43563 
L 981.741316 100.43563 
" clip-path="url(#p6a931a7581)" style="fill: none; stroke-dasharray: 2.59,1.12; stroke-dashoffset: 0; stroke: #2563eb; stroke-opacity: 0.5; stroke-width: 0.7"/>
   </g>
   <g id="line2d_6">
    <path d="M 7.2 137.729881 
L 981.741316 137.729881 
" clip-path="url(#p6a931a7581)" style="fill: none; stroke-dasharray: 2.59,1.12; stroke-dashoffset: 0; stroke: #16a34a; stroke-opacity: 0.5; stroke-width: 0.7"/>
   </g>
   <g id="line2d_7">
    <path d="M 7.2 224.749802 
L 981.741316 224.749802 
" clip-path="url(#p6a931a7581)" style="fill: none; stroke-dasharray: 2.59,1.12; stroke-dashoffset: 0; stroke: #dc2626; stroke-opacity: 0.5; stroke-width: 0.7"/>
   </g>
   <g id="line2d_8">
    <path d="M 7.2 302.44616 
L 981.741316 302.44616 
" clip-path="url(#p6a931a7581)" style="fill: none; stroke-dasharray: 2.59,1.12; stroke-dashoffset: 0; stroke: #2563eb; stroke-opacity: 0.5; stroke-width: 0.7"/>
   </g>
   <g id="line2d_9">
    <path d="M 7.2 355.279684 
L 981.741316 355.279684 
" clip-path="url(#p6a931a7581)" style="fill: none; stroke-dasharray: 2.59,1.12; stroke-dashoffset: 0; stroke: #2563eb; stroke-opacity: 0.5; stroke-width: 0.7"/>
   </g>
   <g id="line2d_10">
    <path d="M 7.2 405.005353 
L 981.741316 405.005353 
" clip-path="url(#p6a931a7581)" style="fill: none; stroke-dasharray: 2.59,1.12; stroke-dashoffset: 0; stroke: #16a34a; stroke-opacity: 0.5; stroke-width: 0.7"/>
   </g>
   <g id="line2d_11">
    <path d="M 7.2 426.760333 
L 981.741316 426.760333 
" clip-path="url(#p6a931a7581)" style="fill: none; stroke-dasharray: 2.59,1.12; stroke-dashoffset: 0; stroke: #2563eb; stroke-opacity: 0.5; stroke-width: 0.7"/>
   </g>
   <g id="line2d_12">
    <path d="M 98.921536 488.917419 
L 98.921536 7.2 
" clip-path="url(#p6a931a7581)" style="fill: none; stroke-dasharray: 1,1.65; stroke-dashoffset: 0; stroke: #9ca3af"/>
   </g>
   <g id="line2d_13">
    <path d="M 290.008068 488.917419 
L 290.008068 7.2 
" clip-path="url(#p6a931a7581)" style="fill: none; stroke-dasharray: 1,1.65; stroke-dashoffset: 0; stroke: #9ca3af"/>
   </g>
   <g id="line2d_14">
    <path d="M 481.094601 488.917419 
L 481.094601 7.2 
" clip-path="url(#p6a931a7581)" style="fill: none; stroke-dasharray: 1,1.65; stroke-dashoffset: 0; stroke: #9ca3af"/>
   </g>
   <g id="line2d_15">
    <path d="M 672.181133 488.917419 
L 672.181133 7.2 
" clip-path="url(#p6a931a7581)" style="fill: none; stroke-dasharray: 1,1.65; stroke-dashoffset: 0; stroke: #9ca3af"/>
   </g>
   <g id="line2d_16">
    <path d="M 863.267666 488.917419 
L 863.267666 7.2 
" clip-path="url(#p6a931a7581)" style="fill: none; stroke-dasharray: 1,1.65; stroke-dashoffset: 0; stroke: #9ca3af"/>
   </g>
   <g id="patch_3">
    <path d="M 98.921536 488.917419 
L 98.921536 7.2 
" style="fill: none; stroke: #000000; stroke-width: 0.8; stroke-linejoin: miter; stroke-linecap: square"/>
   </g>
   <g id="patch_4">
    <path d="M 7.2 457.838876 
L 981.741316 457.838876 
" style="fill: none; stroke: #000000; stroke-width: 0.8; stroke-linejoin: miter; stroke-linecap: square"/>
   </g>
   <g id="text_5">
    <!-- $V_{gh}$ -->
    <g style="fill: #2563eb" transform="translate(59.154613 104.827348)">
     <text>
      <tspan style="font: italic 18px 'STIXGeneral'" x="0" y="-0.25">V</tspan>
      <tspan style="font: italic 12.6px 'STIXGeneral'" x="10.998001 17.298001" y="2.1312499999999996">gh</tspan>
     </text>
    </g>
   </g>
   <g id="text_6">
    <!-- $V_{DD}$ -->
    <g style="fill: #16a34a" transform="translate(53.574613 142.686913)">
     <text>
      <tspan style="font: italic 18px 'STIXGeneral'" x="0" y="-0.25">V</tspan>
      <tspan style="font: italic 12.6px 'STIXGeneral'" x="10.998001 20.095203" y="2.1312499999999996">DD</tspan>
     </text>
    </g>
   </g>
   <g id="text_7">
    <!-- $I_L$ -->
    <g style="fill: #dc2626" transform="translate(69.774613 229.706834)">
     <text>
      <tspan style="font: italic 18px 'STIXGeneral'" x="0" y="-0.25">I</tspan>
      <tspan style="font: italic 12.6px 'STIXGeneral'" x="5.993988" y="2.1312499999999996">L</tspan>
     </text>
    </g>
   </g>
   <g id="text_8">
    <!-- $V_{gp}$ -->
    <g style="fill: #2563eb" transform="translate(59.154613 306.837879)">
     <text>
      <tspan style="font: italic 18px 'STIXGeneral'" x="0" y="-0.25">V</tspan>
      <tspan style="font: italic 12.6px 'STIXGeneral'" x="10.998001 17.298001" y="2.1312499999999996">gp</tspan>
     </text>
    </g>
   </g>
   <g id="text_9">
    <!-- $V_{th}$ -->
    <g style="fill: #2563eb" transform="translate(62.034613 360.236715)">
     <text>
      <tspan style="font: italic 18px 'STIXGeneral'" x="0" y="-0.25">V</tspan>
      <tspan style="font: italic 12.6px 'STIXGeneral'" x="10.998001 14.5008" y="2.1312499999999996">th</tspan>
     </text>
    </g>
   </g>
   <g id="text_10">
    <!-- $V_{ds(on)}$ -->
    <g style="fill: #16a34a" transform="translate(39.534613 403.541363)">
     <text>
      <tspan style="font: italic 18px 'STIXGeneral'" x="0" y="-0.25">V</tspan>
      <tspan style="font: italic 12.6px 'STIXGeneral'" x="10.998001 17.298001 26.395192 32.695192" y="2.1312499999999996">dson</tspan>
      <tspan style="font: 12.6px 'STIXGeneral'" x="22.1994 38.995192" y="2.1312499999999996">()</tspan>
     </text>
    </g>
   </g>
   <g id="text_11">
    <!-- $V_{gl}$ -->
    <g style="fill: #2563eb" transform="translate(62.034613 437.36776)">
     <text>
      <tspan style="font: italic 18px 'STIXGeneral'" x="0" y="-0.25">V</tspan>
      <tspan style="font: italic 12.6px 'STIXGeneral'" x="10.998001 17.298001" y="2.1312499999999996">gl</tspan>
     </text>
    </g>
   </g>
   <g id="text_12">
    <g id="patch_5">
     <path d="M 146.464802 67.941378 
L 242.464802 67.941378 
Q 247.264802 67.941378 247.264802 63.141378 
L 247.264802 27.048378 
Q 247.264802 22.248378 242.464802 22.248378 
L 146.464802 22.248378 
Q 141.664802 22.248378 141.664802 27.048378 
L 141.664802 63.141378 
Q 141.664802 67.941378 146.464802 67.941378 
z
" style="fill: #ffffff; stroke: #d1d5db; stroke-width: 0.8; stroke-linejoin: miter"/>
    </g>
    <text style="font: 16px 'Microsoft YaHei', 'SimHei', 'DejaVu Sans', 'Bitstream Vera Sans', 'Computer Modern Sans Serif', 'Lucida Grande', 'Verdana', 'Geneva', 'Lucid', 'Arial', 'Helvetica', 'Avant Garde', sans-serif" transform="translate(170.464802 39.838378)">阶段一</text>
    <text style="font: 16px 'Microsoft YaHei', 'SimHei', 'DejaVu Sans', 'Bitstream Vera Sans', 'Computer Modern Sans Serif', 'Lucida Grande', 'Verdana', 'Geneva', 'Lucid', 'Arial', 'Helvetica', 'Avant Garde', sans-serif" transform="translate(146.464802 59.163878)">开通延迟阶段</text>
   </g>
   <g id="text_13">
    <g id="patch_6">
     <path d="M 337.551334 67.941378 
L 433.551334 67.941378 
Q 438.351334 67.941378 438.351334 63.141378 
L 438.351334 27.048378 
Q 438.351334 22.248378 433.551334 22.248378 
L 337.551334 22.248378 
Q 332.751334 22.248378 332.751334 27.048378 
L 332.751334 63.141378 
Q 332.751334 67.941378 337.551334 67.941378 
z
" style="fill: #ffffff; stroke: #d1d5db; stroke-width: 0.8; stroke-linejoin: miter"/>
    </g>
    <text style="font: 16px 'Microsoft YaHei', 'SimHei', 'DejaVu Sans', 'Bitstream Vera Sans', 'Computer Modern Sans Serif', 'Lucida Grande', 'Verdana', 'Geneva', 'Lucid', 'Arial', 'Helvetica', 'Avant Garde', sans-serif" transform="translate(361.551334 39.838378)">阶段二</text>
    <text style="font: 16px 'Microsoft YaHei', 'SimHei', 'DejaVu Sans', 'Bitstream Vera Sans', 'Computer Modern Sans Serif', 'Lucida Grande', 'Verdana', 'Geneva', 'Lucid', 'Arial', 'Helvetica', 'Avant Garde', sans-serif" transform="translate(337.551334 59.163878)">电流上升阶段</text>
   </g>
   <g id="text_14">
    <g id="patch_7">
     <path d="M 528.637867 67.941378 
L 624.637867 67.941378 
Q 629.437867 67.941378 629.437867 63.141378 
L 629.437867 27.048378 
Q 629.437867 22.248378 624.637867 22.248378 
L 528.637867 22.248378 
Q 523.837867 22.248378 523.837867 27.048378 
L 523.837867 63.141378 
Q 523.837867 67.941378 528.637867 67.941378 
z
" style="fill: #ffffff; stroke: #d1d5db; stroke-width: 0.8; stroke-linejoin: miter"/>
    </g>
    <text style="font: 16px 'Microsoft YaHei', 'SimHei', 'DejaVu Sans', 'Bitstream Vera Sans', 'Computer Modern Sans Serif', 'Lucida Grande', 'Verdana', 'Geneva', 'Lucid', 'Arial', 'Helvetica', 'Avant Garde', sans-serif" transform="translate(552.637867 39.838378)">阶段三</text>
    <text style="font: 16px 'Microsoft YaHei', 'SimHei', 'DejaVu Sans', 'Bitstream Vera Sans', 'Computer Modern Sans Serif', 'Lucida Grande', 'Verdana', 'Geneva', 'Lucid', 'Arial', 'Helvetica', 'Avant Garde', sans-serif" transform="translate(528.637867 59.163878)">电压下降阶段</text>
   </g>
   <g id="text_15">
    <g id="patch_8">
     <path d="M 719.724399 67.941378 
L 815.724399 67.941378 
Q 820.524399 67.941378 820.524399 63.141378 
L 820.524399 27.048378 
Q 820.524399 22.248378 815.724399 22.248378 
L 719.724399 22.248378 
Q 714.924399 22.248378 714.924399 27.048378 
L 714.924399 63.141378 
Q 714.924399 67.941378 719.724399 67.941378 
z
" style="fill: #ffffff; stroke: #d1d5db; stroke-width: 0.8; stroke-linejoin: miter"/>
    </g>
    <text style="font: 16px 'Microsoft YaHei', 'SimHei', 'DejaVu Sans', 'Bitstream Vera Sans', 'Computer Modern Sans Serif', 'Lucida Grande', 'Verdana', 'Geneva', 'Lucid', 'Arial', 'Helvetica', 'Avant Garde', sans-serif" transform="translate(743.724399 39.838378)">阶段四</text>
    <text style="font: 16px 'Microsoft YaHei', 'SimHei', 'DejaVu Sans', 'Bitstream Vera Sans', 'Computer Modern Sans Serif', 'Lucida Grande', 'Verdana', 'Geneva', 'Lucid', 'Arial', 'Helvetica', 'Avant Garde', sans-serif" transform="translate(719.724399 59.163878)">完全导通阶段</text>
   </g>
   <g id="text_16">
    <!-- $t_0$ -->
    <g transform="translate(106.564997 476.889408)">
     <text>
      <tspan style="font: italic 18px 'STIXGeneral'" x="0" y="-0.171875">t</tspan>
      <tspan style="font: 12.6px 'STIXGeneral'" x="5.003998" y="2.2093749999999996">0</tspan>
     </text>
    </g>
   </g>
   <g id="text_17">
    <!-- $V_{GS}$波形 -->
    <g style="fill: #2563eb" transform="translate(916.771895 105.392661)">
     <text>
      <tspan style="font: italic 18px 'STIXGeneral'" x="0" y="-0.015625">V</tspan>
      <tspan style="font: italic 12.6px 'STIXGeneral'" x="10.998001 20.095203" y="2.3656250000000014">GS</tspan>
      <tspan style="font: 700 18px 'Microsoft YaHei'" x="27.188953 45.188953" y="-0.015625">波形</tspan>
     </text>
    </g>
   </g>
   <g id="text_18">
    <!-- $I_D$波形 -->
    <g style="fill: #dc2626" transform="translate(916.771895 229.706834)">
     <text>
      <tspan style="font: italic 18px 'STIXGeneral'" x="0" y="-0.015625">I</tspan>
      <tspan style="font: italic 12.6px 'STIXGeneral'" x="5.993988" y="2.3656250000000014">D</tspan>
      <tspan style="font: 700 18px 'Microsoft YaHei'" x="15.88494 33.88494" y="-0.015625">波形</tspan>
     </text>
    </g>
   </g>
   <g id="text_19">
    <!-- $V_{ds}$波形 -->
    <g style="fill: #16a34a" transform="translate(916.771895 409.962384)">
     <text>
      <tspan style="font: italic 18px 'STIXGeneral'" x="0" y="-0.015625">V</tspan>
      <tspan style="font: italic 12.6px 'STIXGeneral'" x="10.998001 17.298001" y="2.3656250000000014">ds</tspan>
      <tspan style="font: 700 18px 'Microsoft YaHei'" x="22.99315 40.99315" y="-0.015625">波形</tspan>
     </text>
    </g>
   </g>
   <g id="line2d_17">
    <path d="M 98.921536 426.760333 
L 117.791211 418.702016 
L 137.062369 410.716797 
L 156.333527 402.971336 
L 176.006168 395.304337 
L 196.080291 387.722984 
L 216.154414 380.378596 
L 236.630019 373.123764 
L 257.507107 365.964697 
L 278.785677 358.907229 
L 300.064248 352.083366 
L 321.744301 345.363008 
L 343.825836 338.751055 
L 366.308854 332.252038 
L 389.193354 325.870119 
L 412.479336 319.609094 
L 436.166802 313.472398 
L 460.255749 307.463108 
L 481.132837 302.44616 
L 671.837005 302.44616 
L 672.238488 302.167126 
L 675.450347 287.141039 
L 678.662207 273.234179 
L 681.874067 260.36318 
L 685.085926 248.450884 
L 688.297786 237.425882 
L 691.509646 227.222085 
L 694.721505 217.778322 
L 697.933365 209.037984 
L 701.145225 200.948675 
L 704.357084 193.461903 
L 707.568944 186.532788 
L 710.780804 180.119791 
L 713.992663 174.184471 
L 717.204523 168.691246 
L 720.416383 163.607187 
L 723.628242 158.901817 
L 727.241585 154.02589 
L 730.854927 149.556602 
L 734.468269 145.460041 
L 738.081611 141.705123 
L 741.694953 138.263355 
L 745.308295 135.108621 
L 749.32312 131.910961 
L 753.337944 129.008199 
L 757.352769 126.37314 
L 761.769076 123.754375 
L 766.185383 121.400012 
L 771.003173 119.10187 
L 775.820962 117.055653 
L 781.040234 115.091254 
L 786.259506 113.359036 
L 791.880261 111.721826 
L 797.902497 110.197119 
L 804.326217 108.797096 
L 811.552901 107.460602 
L 819.181068 106.280902 
L 827.612199 105.206093 
L 836.846296 104.254301 
L 847.28484 103.404954 
L 859.329314 102.656865 
L 873.3812 102.018776 
L 889.841981 101.500348 
L 901.484972 101.239848 
L 901.484972 101.239848 
" clip-path="url(#p6a931a7581)" style="fill: none; stroke: #2563eb; stroke-width: 3; stroke-linecap: square"/>
   </g>
   <g id="line2d_18">
    <path d="M 98.921536 411.221061 
L 290.027186 411.199444 
L 303.67759 395.930082 
L 317.327994 380.986908 
L 331.37988 365.937598 
L 345.431766 351.219125 
L 359.483652 336.824216 
L 373.535538 322.745758 
L 387.587424 308.976793 
L 402.040792 295.13015 
L 416.494161 281.596503 
L 430.94753 268.368776 
L 445.400898 255.440055 
L 459.854267 242.803581 
L 474.709118 230.113684 
L 481.132837 224.749802 
L 901.484972 224.749802 
L 901.484972 224.749802 
" clip-path="url(#p6a931a7581)" style="fill: none; stroke: #dc2626; stroke-width: 3; stroke-linecap: square"/>
   </g>
   <g id="line2d_19">
    <path d="M 98.921536 137.729881 
L 480.731355 137.729881 
L 481.132837 137.890295 
L 485.950627 157.593023 
L 490.768416 176.302254 
L 495.184723 192.601574 
L 499.60103 208.107475 
L 504.017337 222.839752 
L 508.433644 236.818203 
L 512.849951 250.062625 
L 517.266258 262.592815 
L 521.682565 274.42857 
L 526.098872 285.589686 
L 530.113697 295.167384 
L 534.128522 304.218765 
L 538.143346 312.758701 
L 542.158171 320.802068 
L 546.172995 328.363738 
L 550.18782 335.458586 
L 554.202645 342.101485 
L 558.217469 348.307309 
L 562.232294 354.090931 
L 566.247118 359.467226 
L 570.261943 364.451067 
L 574.276768 369.057328 
L 578.291592 373.300882 
L 582.306417 377.196603 
L 586.321241 380.759365 
L 590.336066 384.004042 
L 594.350891 386.945508 
L 598.365715 389.598635 
L 602.38054 391.978299 
L 606.395364 394.099372 
L 610.410189 395.976728 
L 614.425014 397.625242 
L 618.841321 399.192045 
L 623.257628 400.519742 
L 627.673935 401.628131 
L 632.491724 402.610423 
L 637.710996 403.436443 
L 643.331751 404.085584 
L 649.353987 404.549711 
L 656.179189 404.848393 
L 665.011803 404.991237 
L 687.093339 405.005353 
L 901.484972 405.005353 
L 901.484972 405.005353 
" clip-path="url(#p6a931a7581)" style="fill: none; stroke: #16a34a; stroke-width: 3; stroke-linecap: square"/>
   </g>
  </g>
 </g>
 <defs>
  <clipPath id="p6a931a7581">
   <rect x="7.2" y="7.2" width="974.541316" height="481.717419"/>
  </clipPath>
 </defs>
</svg>
